<svg width="21" height="20" viewBox="0 0 21 20" fill="none" xmlns="http://www.w3.org/2000/svg">
<path d="M4.69387 2.94248C2.15715 4.78552 0.888783 5.70704 0.390624 7.06825C0.350662 7.17745 0.314718 7.28807 0.282865 7.3999C-0.114218 8.79396 0.370254 10.285 1.3392 13.2671C2.30814 16.2492 2.79261 17.7403 3.93326 18.6347C4.02477 18.7064 4.11887 18.7748 4.21538 18.8397C4.62122 19.1124 5.06855 19.2931 5.60356 19.4128V16.1208C5.60356 13.6254 7.62647 11.6025 10.1219 11.6025C12.6172 11.6025 14.6401 13.6254 14.6401 16.1208V19.4128C15.1752 19.2931 15.6225 19.1124 16.0283 18.8397C16.1248 18.7748 16.2189 18.7064 16.3104 18.6347C17.4511 17.7403 17.9356 16.2492 18.9045 13.2671C19.8735 10.285 20.3579 8.79396 19.9608 7.3999C19.929 7.28807 19.893 7.17745 19.8531 7.06825C19.3549 5.70704 18.0866 4.78552 15.5498 2.94249C13.0131 1.09945 11.7447 0.177918 10.2962 0.124779C10.18 0.120516 10.0637 0.120516 9.9475 0.124779C8.49897 0.177918 7.2306 1.09944 4.69387 2.94248Z" fill="#FCDDEC"/>
<path d="M13.2133 19.5961V16.1208C13.2133 14.4134 11.8292 13.0293 10.1219 13.0293C8.41448 13.0293 7.03039 14.4134 7.03039 16.1208V19.5961C7.86076 19.6481 8.86545 19.6481 10.1219 19.6481C11.3783 19.6481 12.3829 19.6481 13.2133 19.5961Z" fill="#FCDDEC"/>
</svg>
