<svg width="18" height="22" viewBox="0 0 18 22" fill="none" xmlns="http://www.w3.org/2000/svg">
<path d="M11.7107 1.70648C11.0431 1.3347 10.2723 1.12158 9.44658 1.12158H7.82673C5.02593 1.12158 2.85891 3.57634 3.20631 6.35551L3.2818 6.95939C3.42081 8.07149 3.01458 9.18231 2.19093 9.94236C1.06591 10.9805 0.753346 12.6329 1.42145 14.0102L1.51976 14.2129C2.15115 15.5146 3.47071 16.3411 4.91742 16.3411H12.7372C13.9769 16.3411 15.1308 15.7077 15.7964 14.6619C16.736 13.1855 16.4871 11.2487 15.2048 10.0578L15.1631 10.0191C14.7698 9.65387 14.4668 9.21331 14.2662 8.73134C14.1843 8.53451 14.1195 8.33078 14.0726 8.12245M6.00345 19.1948L6.28882 19.5752C7.57296 21.2874 10.1413 21.2874 11.4254 19.5752L11.7108 19.1948" stroke="#2D264B" stroke-width="1.42683" stroke-linecap="round"/>
<path d="M15.5157 4.92636C15.5157 5.97705 14.6639 6.8288 13.6133 6.8288C12.5626 6.8288 11.7108 5.97705 11.7108 4.92636C11.7108 3.87568 12.5626 3.02393 13.6133 3.02393C14.6639 3.02393 15.5157 3.87568 15.5157 4.92636Z" fill="#2D264B"/>
</svg>
