<svg width="22" height="22" viewBox="0 0 22 22" fill="none" xmlns="http://www.w3.org/2000/svg">
<path d="M17.9679 16.8368C17.6893 16.5582 17.2375 16.5582 16.9589 16.8368C16.6803 17.1154 16.6803 17.5671 16.9589 17.8457L17.9679 16.8368ZM20.7637 21.6505C21.0423 21.9291 21.494 21.9291 21.7726 21.6505C22.0512 21.3719 22.0512 20.9202 21.7726 20.6416L20.7637 21.6505ZM16.9589 17.8457L20.7637 21.6505L21.7726 20.6416L17.9679 16.8368L16.9589 17.8457ZM9.85358 17.5789C5.51949 17.5789 2.00602 14.0655 2.00602 9.73139H0.579188C0.579188 14.8535 4.73147 19.0058 9.85358 19.0058V17.5789ZM17.7011 9.73139C17.7011 14.0655 14.1877 17.5789 9.85358 17.5789V19.0058C14.9757 19.0058 19.128 14.8535 19.128 9.73139H17.7011ZM9.85358 1.88382C14.1877 1.88382 17.7011 5.3973 17.7011 9.73139H19.128C19.128 4.60928 14.9757 0.456996 9.85358 0.456996V1.88382ZM9.85358 0.456996C4.73147 0.456996 0.579188 4.60928 0.579188 9.73139H2.00602C2.00602 5.3973 5.51949 1.88382 9.85358 1.88382V0.456996Z" fill="#2D264B"/>
</svg>
