<svg width="24" height="24" viewBox="0 0 24 24" fill="none" xmlns="http://www.w3.org/2000/svg">
<path d="M12 21.9999C6.48 21.9939 2.006 17.5199 2 11.9999V11.7999C2.11 6.3049 6.635 1.9279 12.13 1.9999C17.627 2.0739 22.034 6.5689 21.998 12.0649C21.962 17.5619 17.497 21.9999 12 21.9999ZM11.984 19.9999H12C14.121 19.9978 16.1544 19.1534 17.6531 17.6525C19.1518 16.1516 19.9931 14.1169 19.992 11.9959C19.9909 9.87486 19.1476 7.84106 17.6474 6.34163C16.1473 4.84221 14.113 3.9999 11.992 3.9999C9.87096 3.9999 7.83674 4.84221 6.33656 6.34163C4.83638 7.84106 3.99306 9.87486 3.992 11.9959C3.99094 14.1169 4.83223 16.1516 6.3309 17.6525C7.82958 19.1534 9.86296 19.9978 11.984 19.9999V19.9999ZM15 15.9999H13V7.9999H15V15.9999ZM11 15.9999H9V7.9999H11V15.9999Z" fill="white"/>
</svg>
