<svg width="363" height="295" viewBox="0 0 363 295" fill="none" xmlns="http://www.w3.org/2000/svg">
<g filter="url(#filter0_i_144_76)">
<path fill-rule="evenodd" clip-rule="evenodd" d="M247.816 0.249966C270.347 -1.27292 292.912 4.22611 312.752 15.0124C332.875 25.9527 354.109 40.2142 361.314 61.956C368.407 83.3601 350.877 104.951 350.023 127.484C349.212 148.849 365.626 170.893 356.449 190.203C347.307 209.444 321.285 212.308 303.88 224.59C284.426 238.318 271.431 263.812 247.816 266.862C224.162 269.917 201.213 255.298 182.716 240.241C165.579 226.289 159.964 203.664 147.647 185.317C134.288 165.418 106.187 151.437 107.018 127.484C107.855 103.346 136.77 91.0016 151.579 71.9216C164.154 55.721 171.311 35.7104 187.759 23.4609C205.27 10.4193 226.032 1.72242 247.816 0.249966Z" fill="#FFA488"/>
</g>
<path d="M347.207 235.483C347.207 250.5 273.23 262.684 181.992 262.684C90.7528 262.684 16.7763 250.5 16.7763 235.483C16.7763 220.45 90.7528 208.266 181.992 208.266C273.23 208.266 347.207 220.45 347.207 235.483Z" fill="#EBE3D9"/>
<path d="M282.079 172.048C282.079 174.272 282.007 176.478 281.862 178.668H79.0379C78.8926 176.478 78.82 174.272 78.82 172.048C78.82 115.921 124.322 70.4186 180.45 70.4186C236.577 70.4186 282.079 115.921 282.079 172.048Z" fill="white"/>
<path d="M82.2222 175.316C82.1887 174.233 82.1719 173.143 82.1719 172.048C82.1719 145.786 92.3952 121.116 110.965 102.546C129.518 83.9937 154.204 73.7704 180.45 73.7704C206.695 73.7704 231.382 83.9937 249.935 102.546C268.504 121.116 278.728 145.786 278.728 172.048C278.728 173.143 278.705 174.233 278.661 175.316H82.2222Z" fill="#CBE8F9"/>
<path d="M275.376 171.964H85.5238C85.5238 163.92 86.5294 156.043 88.4735 148.451C88.5852 147.993 88.7025 147.546 88.8254 147.11C91.6745 136.568 96.3337 126.613 102.635 117.63C102.959 117.183 103.283 116.736 103.607 116.289C105.736 113.373 108.032 110.558 110.512 107.859C110.959 107.379 111.406 106.904 111.853 106.435C112.345 105.921 112.836 105.418 113.328 104.926C122.244 96.0103 132.618 89.0886 143.914 84.3792C144.361 84.1892 144.808 84.0105 145.255 83.8429C155.361 79.8038 166.171 77.5245 177.299 77.1726C177.746 77.1614 178.193 77.1502 178.64 77.1391C179.243 77.1279 179.846 77.1223 180.45 77.1223C190.891 77.1223 201.081 78.7983 210.701 82.0161C211.148 82.1725 211.594 82.3289 212.041 82.4854C223.79 86.6082 234.65 93.0774 244.086 101.608C244.544 102.021 244.991 102.44 245.426 102.865C246.153 103.535 246.868 104.222 247.572 104.926C251.141 108.496 254.376 112.284 257.292 116.289C257.616 116.736 257.935 117.183 258.247 117.63C264.566 126.613 269.225 136.568 272.074 147.11C272.197 147.546 272.314 147.993 272.426 148.451C274.37 156.043 275.359 163.92 275.376 171.964Z" fill="white"/>
<path fill-rule="evenodd" clip-rule="evenodd" d="M272.426 148.451H245.426V171.964H244.086V148.451H212.041V171.964H210.701V148.451H178.64V171.964H177.299V148.451H145.255V171.964H143.914V148.451H111.853V171.964H110.512V148.451H88.4735C88.5852 147.993 88.7026 147.546 88.8255 147.11H110.512V117.63H102.635C102.959 117.183 103.283 116.736 103.607 116.289H110.512V107.859C110.959 107.379 111.406 106.904 111.853 106.435V116.289H143.914V84.3791C144.361 84.1892 144.808 84.0104 145.255 83.8428V116.289H177.299V77.1726C177.746 77.1614 178.193 77.1502 178.64 77.139V116.289H210.701V82.0161C211.148 82.1725 211.594 82.3289 212.041 82.4853V116.289H244.086V101.608C244.544 102.021 244.991 102.44 245.426 102.865V116.289H257.292C257.616 116.736 257.935 117.183 258.247 117.63H245.426V147.11H272.074C272.197 147.546 272.314 147.993 272.426 148.451ZM143.914 117.63H111.853V147.11H143.914V117.63ZM177.299 117.63H145.255V147.093H177.299V117.63ZM210.701 117.63H178.64V147.11H210.701V117.63ZM244.086 117.63H212.041V147.093H244.086V117.63Z" fill="#CBE8F9"/>
<path d="M175.657 203.539C162.701 203.539 152.193 202.567 152.193 201.377C152.193 200.188 162.701 199.215 175.657 199.215C188.595 199.215 199.103 200.188 199.103 201.377C199.103 202.567 188.595 203.539 175.657 203.539Z" fill="#1B1B1B"/>
<path d="M175.372 67.9381C175.388 69.6643 174.886 73.7536 174.148 78.1446C173.243 83.4742 172.003 89.2562 170.964 91.7366C170.578 90.3456 169.975 89.0551 169.673 86.1892C169.137 81.1446 169.372 84.3289 167.847 80.3737C166.338 76.4352 166.338 76.6698 166.036 73.7872C165.735 71.0051 165.165 71.4576 162.902 69.614C163.003 68.7593 163.338 67.5191 164.361 66.7314C166.036 65.4409 165.886 65.6588 166.791 63.0778C167.696 60.4969 169.824 62.86 172.103 58.9047C174.383 54.9662 176.645 55.1171 176.964 55.2679C177.265 55.4187 175.288 63.8488 175.372 67.9381Z" fill="#579951"/>
<path d="M196.455 76.7703C196.153 79.0161 194.628 78.2619 194.243 80.1557C193.874 82.0496 193.874 83.9434 192.047 84.2451C190.237 84.5467 187.807 85.4685 185.913 85.1668C187.623 85.949 189.438 85.9657 191.36 85.2171C190.355 86.5467 189.774 87.8148 189.617 89.0215C189.399 90.8483 186.734 90.9321 186.584 93.8818C186.433 96.8482 185.377 97.2169 183.55 98.5074C182.042 99.58 182.209 101.222 181.606 103.921C181.489 104.474 181.338 105.06 181.12 105.714C180.416 107.91 179.059 109.267 177.466 109.502C176.31 109.669 175.053 109.25 173.846 108.144C173.556 108.323 173.198 108.491 172.774 108.647C172.539 108.731 172.271 108.815 172.003 108.865C171.215 109.016 170.327 108.999 169.522 108.463C169.573 107.658 169.573 106.703 170.059 105.496C171.265 102.463 170.88 100.183 171.265 95.7756C171.433 93.8985 171.249 92.7924 170.964 91.7366C172.003 89.2562 173.243 83.4741 174.148 78.1446C175.237 77.2061 176.712 76.4351 178.321 77.0385C181.506 78.2619 179.846 76.5189 182.947 76.5189C186.064 76.5189 187.807 76.586 188.26 76.5189C188.712 76.4351 186.366 75.0776 184.841 75.2955C185.958 73.7313 187.5 73.1223 189.466 73.4687C192.433 74.005 193.723 73.7033 194.712 73.4687C195.684 73.2508 196.757 74.5413 196.455 76.7703Z" fill="#3F6A3A"/>
<path d="M170.076 89.0383C169.875 89.0383 169.707 88.8707 169.707 88.6696C169.74 81.815 174.936 65.9102 175.154 65.2398C175.221 65.0387 175.422 64.9381 175.606 65.0052C175.807 65.0722 175.908 65.2733 175.841 65.4577C175.791 65.6253 170.461 81.9323 170.428 88.6696C170.428 88.8707 170.277 89.0383 170.076 89.0383Z" fill="#2B322E"/>
<path d="M178.74 167.305C178.74 167.316 178.74 167.328 178.74 167.339C178.74 167.35 178.735 167.356 178.724 167.356C178.701 167.4 178.651 167.439 178.573 167.473C178.55 167.484 178.528 167.49 178.506 167.49C178.45 167.523 178.377 167.551 178.288 167.573C178.254 167.585 178.226 167.59 178.204 167.59C177.768 167.707 177.081 167.808 176.193 167.909C176.103 167.92 176.014 167.925 175.925 167.925C175.891 167.937 175.858 167.942 175.824 167.942C175.679 167.953 175.534 167.97 175.388 167.992C175.31 167.992 175.232 167.998 175.154 168.009C175.076 168.009 174.997 168.015 174.919 168.026C174.606 168.048 174.277 168.071 173.93 168.093C173.752 168.104 173.573 168.115 173.394 168.126C173.204 168.138 173.014 168.149 172.824 168.16C172.567 168.171 172.299 168.182 172.02 168.193C171.081 168.244 170.059 168.277 168.986 168.311C168.83 168.311 168.668 168.316 168.5 168.328C168.467 168.328 168.433 168.328 168.4 168.328C168.176 168.328 167.947 168.333 167.712 168.344C167.355 168.344 166.997 168.35 166.64 168.361C166.483 168.361 166.321 168.361 166.154 168.361C165.718 168.361 165.266 168.361 164.796 168.361H164.713C164.489 168.372 164.26 168.378 164.025 168.378C163.511 168.378 163.009 168.372 162.517 168.361C162.271 168.361 162.025 168.361 161.78 168.361C159.718 168.328 157.791 168.277 156.098 168.21C155.629 168.188 155.176 168.16 154.741 168.126C154.506 168.115 154.277 168.104 154.053 168.093C153.729 168.071 153.422 168.048 153.132 168.026C152.428 167.959 151.791 167.909 151.271 167.842C151.148 167.819 151.031 167.802 150.919 167.791C150.819 167.78 150.718 167.763 150.618 167.741C149.864 167.624 149.411 167.49 149.327 167.356C149.327 167.356 149.322 167.35 149.311 167.339C149.311 167.328 149.311 167.316 149.311 167.305C149.311 166.937 152.009 166.601 156.098 166.417C156.333 166.406 156.573 166.395 156.819 166.383C157.824 166.333 158.914 166.3 160.07 166.283C160.294 166.283 160.528 166.277 160.774 166.266H160.791C161.025 166.266 161.254 166.266 161.478 166.266C161.802 166.255 162.12 166.249 162.433 166.249C162.679 166.249 162.925 166.249 163.171 166.249C163.45 166.249 163.735 166.249 164.025 166.249H164.243C164.444 166.249 164.651 166.249 164.863 166.249H164.964C165.176 166.249 165.389 166.249 165.601 166.249C166.092 166.249 166.573 166.255 167.042 166.266C167.288 166.266 167.534 166.272 167.78 166.283C169.12 166.3 170.377 166.35 171.534 166.4C171.779 166.411 172.02 166.423 172.254 166.434C176.176 166.618 178.74 166.937 178.74 167.305Z" fill="#2B312C"/>
<path d="M151.271 167.842C151.791 167.909 152.428 167.959 153.132 168.026C152.417 167.97 151.796 167.909 151.271 167.842Z" fill="#4C6564"/>
<path d="M154.741 168.126C155.176 168.16 155.629 168.188 156.098 168.21C155.629 168.188 155.176 168.16 154.741 168.126Z" fill="#4C6564"/>
<path d="M172.02 168.194C172.299 168.182 172.567 168.171 172.824 168.16C172.567 168.171 172.299 168.182 172.02 168.194Z" fill="#4C6564"/>
<path d="M180.601 182.623C179.696 188.903 178.176 195.093 176.042 201.193C176.042 201.511 175.171 201.813 173.679 202.065C171.5 202.416 167.981 202.651 164.025 202.651C160.322 202.651 157.02 202.45 154.824 202.132C153.065 201.88 152.026 201.545 152.026 201.193C149.88 195.093 148.355 188.903 147.45 182.623C146.534 176.355 147.154 171.249 149.311 167.305C149.311 167.316 149.311 167.328 149.311 167.339C149.322 167.35 149.327 167.356 149.327 167.356C149.411 167.49 149.864 167.624 150.618 167.741C150.707 167.763 150.808 167.78 150.919 167.791C151.031 167.803 151.149 167.819 151.271 167.842C151.573 167.875 151.914 167.909 152.294 167.942C152.562 167.976 152.841 168.004 153.132 168.026C153.422 168.048 153.729 168.071 154.054 168.093C154.277 168.104 154.506 168.115 154.741 168.127C155.176 168.16 155.629 168.188 156.098 168.21C157.791 168.277 159.718 168.328 161.78 168.361C162.025 168.361 162.271 168.361 162.517 168.361C163.009 168.372 163.511 168.378 164.025 168.378C164.26 168.378 164.489 168.372 164.713 168.361H164.796C165.266 168.361 165.718 168.361 166.154 168.361C166.321 168.361 166.483 168.361 166.64 168.361C166.997 168.35 167.355 168.344 167.713 168.344C167.947 168.333 168.176 168.328 168.4 168.328C168.433 168.328 168.467 168.328 168.5 168.328C168.668 168.316 168.83 168.311 168.986 168.311C170.059 168.277 171.081 168.244 172.02 168.194C172.299 168.182 172.567 168.171 172.824 168.16C173.014 168.149 173.204 168.138 173.394 168.127C173.573 168.115 173.752 168.104 173.93 168.093C174.277 168.071 174.606 168.048 174.919 168.026C174.997 168.015 175.076 168.009 175.154 168.009C175.232 167.998 175.31 167.992 175.388 167.992C175.467 167.981 175.545 167.97 175.623 167.959C175.69 167.959 175.757 167.953 175.824 167.942C175.858 167.942 175.891 167.937 175.925 167.925C176.014 167.925 176.103 167.92 176.193 167.909C177.081 167.808 177.768 167.708 178.204 167.59C178.226 167.59 178.254 167.585 178.288 167.573C178.377 167.551 178.45 167.523 178.506 167.49C178.528 167.49 178.55 167.484 178.573 167.473C178.651 167.439 178.701 167.4 178.724 167.356C178.735 167.356 178.74 167.35 178.74 167.339C178.74 167.328 178.74 167.316 178.74 167.305C180.897 171.249 181.517 176.355 180.601 182.623Z" fill="#CBE8F9"/>
<path d="M171.265 95.7756C170.88 100.183 171.265 102.463 170.059 105.496C169.573 106.703 169.573 107.658 169.522 108.463C169.472 109.669 169.321 110.591 167.327 111.63C164.83 112.937 160.338 112.72 158.193 112.518C158.059 112.507 157.936 112.496 157.824 112.485C157.679 112.474 157.556 112.463 157.456 112.451C157.266 112.429 157.115 112.407 157.003 112.384C151.696 113.859 148.383 113.557 147.065 111.479C145.271 108.647 146.176 107.641 145.556 105.882C145.5 105.703 145.422 105.519 145.322 105.329C144.266 103.217 142.892 101.926 143.428 99.4963C143.964 97.0661 141.45 95.5578 142.221 88.4182C142.975 81.2954 142.221 80.1558 142.892 77.5748C143.579 74.9938 145.473 75.2285 145.104 72.262C144.718 69.3124 145.623 69.7649 147.216 66.7314C148.808 63.6979 149.277 59.5919 151.841 59.5919C154.238 59.5919 154.221 59.86 154.204 59.8935C154.271 59.8097 155.176 58.6533 157.003 59.5919C158.897 60.5807 160.791 63.0108 161.176 65.0555C161.562 67.1001 160.12 67.251 162.618 69.3794C162.718 69.4576 162.813 69.5358 162.902 69.614C165.165 71.4576 165.735 71.0051 166.036 73.7872C166.338 76.6698 166.338 76.4352 167.847 80.3737C169.372 84.3289 169.137 81.1446 169.673 86.1892C169.975 89.0551 170.578 90.3456 170.964 91.7366C171.249 92.7925 171.433 93.8986 171.265 95.7756Z" fill="#BBCD67"/>
<path d="M142.037 104.256C141.383 104.91 140.411 105.044 139.892 105.144C139.707 105.178 139.573 105.211 139.557 105.262C139.501 105.44 139.434 105.591 139.355 105.714C139.104 106.1 138.769 106.267 138.383 106.301C137.646 106.351 136.741 105.882 135.987 105.262C134.696 104.206 132.132 98.3567 131.294 97.15C130.607 96.1612 132.451 94.6193 133.154 94.083C132.534 94.502 130.992 95.5578 129.92 95.8595C128.562 96.2282 127.875 95.7087 127.506 92.2897C127.121 88.8708 126.216 89.4071 122.713 88.5021C120.389 87.8876 119.406 86.7758 119.764 85.1669C121.423 85.234 123.786 83.1055 122.261 83.558C120.752 84.0273 118.389 83.9435 117.719 81.9659C117.032 80.005 117.333 79.9212 114.149 79.7704C110.965 79.6195 109.909 79.0832 108.987 75.3794C108.082 71.6588 104.898 71.7258 106.943 71.8096C108.987 71.8766 108.618 71.0554 110.579 71.0554C112.557 71.0554 118.624 71.6588 116.797 72.7146C114.987 73.7872 117.786 74.3906 119.831 73.9381C121.892 73.4688 125.227 73.5526 127.121 75.0777C129.015 76.5861 132.132 79.0832 135.92 79.4687C139.707 79.8542 141.3 85.3178 140.629 90.5467C139.942 95.7757 142.07 97.7533 142.674 101.541C142.892 102.915 142.556 103.736 142.037 104.256Z" fill="#BBCD67"/>
<path d="M204.751 92.5243C202.114 93.0159 200.762 93.9098 200.695 95.2058C200.595 97.1667 197.762 97.1667 195.952 98.3902C194.125 99.5968 195.332 99.3957 193.723 100.602C192.098 101.826 191.796 100.25 191.695 102.345C191.595 104.457 190.388 104.708 189.265 106.301C188.159 107.893 189.366 108.06 188.159 109.535C186.952 111.027 186.433 110.725 184.723 112.334C183.573 113.418 181.45 113.418 178.355 112.334C177.662 111.407 177.366 110.463 177.467 109.502C179.059 109.267 180.416 107.91 181.137 105.714C181.338 105.06 181.489 104.474 181.606 103.921C184.221 102.731 185.126 102.027 185.93 99.798C186.735 97.5689 187.355 97.8706 189.466 97.6695C191.595 97.4684 190.991 96.0606 192.818 94.5355C194.628 93.0271 196.455 95.0383 199.489 93.4293C201.511 92.3456 203.265 92.0439 204.751 92.5243Z" fill="#579951"/>
<path d="M161.763 121.032C161.763 123.664 154.523 122.842 154.171 123.261C152.361 125.39 149.227 124.468 146.495 123.379C143.763 122.256 142.54 119.323 143.562 118.2C144.568 117.094 144.769 116.692 142.741 115.77C140.713 114.865 139.205 115.368 140.21 113.055C141.232 110.742 139.406 109.401 138.383 106.301C138.903 106.25 139.339 105.949 139.556 105.262C139.624 105.077 141.132 105.161 142.037 104.256C142.975 104.641 144.216 105.228 145.556 105.882C146.176 107.641 145.271 108.647 147.065 111.479C148.383 113.558 151.696 113.859 157.003 112.384C157.204 112.418 157.478 112.451 157.824 112.485C158.428 113.172 158.729 114.027 158.629 115.166C158.428 117.295 161.763 118.401 161.763 121.032Z" fill="#3F6A3A"/>
<path d="M138.383 125.591C134.931 125.49 134.763 127.401 132.132 128.373C129.501 129.345 129.3 129.529 126.166 132.161C124.076 133.915 122.155 133.948 120.4 132.261C117.97 134.39 111.099 133.166 112.406 131.658C113.713 130.133 115.037 126.697 116.345 123.865C117.669 121.032 120.702 123.161 120.099 122.189C119.479 121.233 120.4 121.435 123.233 120.06C126.065 118.686 130.205 121.133 132.316 122.39C134.411 123.664 133.842 122.356 132.635 120.831C131.411 119.323 133.841 120.027 136.674 123.06C138.562 125.083 141.769 125.418 146.294 124.066C148.908 125.088 141.836 125.691 138.383 125.591Z" fill="#579951"/>
<path d="M176.913 125.993C176.109 126.043 175.036 126.211 173.763 126.563C171.919 127.099 168.953 127.652 166.958 128.004C166.902 127.96 166.858 127.932 166.824 127.92C162.992 128.904 160.93 128.261 160.64 125.993C160.361 123.725 161.104 122.747 162.869 123.06C163.171 123.362 161.964 126.194 168.232 125.893C171.751 125.725 174.785 125.641 176.913 125.993Z" fill="#579951"/>
<path d="M177.936 135.093C178.154 137.524 173.31 134.641 171.333 133.401C169.338 132.161 167.126 131.859 167.528 130.133C167.847 128.809 167.243 128.205 166.958 128.004C168.953 127.652 171.919 127.099 173.763 126.563C175.036 126.211 176.109 126.043 176.913 125.993C178.589 126.244 179.712 126.781 180.064 127.703C180.869 129.831 177.735 132.663 177.936 135.093Z" fill="#3F6A3A"/>
<path d="M186.131 122.356C188.969 119.652 192.427 119.485 196.505 121.853C202.623 125.39 200.494 125.088 203.025 125.289C205.555 125.49 204.131 126.01 206.662 128.373C209.192 130.753 209.092 139.35 206.662 139.652C204.231 139.954 203.93 135.093 201.818 135.496C199.69 135.898 198.165 133.401 198.165 131.021C198.165 128.624 197.863 128.038 196.053 128.373C194.226 128.725 195.952 126.781 193.522 125.993C191.092 125.189 191.092 126.63 189.869 124.552C189.064 123.155 187.818 122.423 186.131 122.356Z" fill="#579951"/>
<path d="M195.533 155.322C195.947 157.479 194.734 158.289 191.896 157.752C191.394 160.183 186.332 157.149 185.528 154.216C184.723 151.283 183.701 151.685 180.953 151.685C178.187 151.685 180.668 150.261 177.332 147.227C173.997 144.194 172.07 146.825 172.992 144.194C173.26 143.389 173.31 142.987 173.159 142.803C173.042 142.635 172.791 142.635 172.439 142.686C171.869 142.753 171.014 142.954 170.059 142.786C167.83 142.384 169.657 141.06 171.768 139.133C172.891 138.127 174.567 137.876 175.874 137.859C176.657 137.848 177.344 137.904 177.936 138.026C178.148 138.015 178.427 138.004 178.774 137.993C180.064 137.926 182.628 137.842 184.522 137.859C187.154 137.892 186.936 137.423 188.26 139.652C189.567 141.898 191.293 140.758 194.126 142.065C196.958 143.389 196.355 143.691 194.679 145.803C193.003 147.931 195.734 147.127 196.455 150.663C197.159 154.216 194.93 152.088 195.533 155.322Z" fill="#579951"/>
<path d="M156.819 166.384C156.573 166.395 156.333 166.406 156.098 166.417C155.495 160.065 153.802 151.769 151.054 141.68C150.081 138.127 148.992 134.373 147.785 130.468C147.718 130.244 147.646 130.015 147.568 129.781C147.221 128.641 146.858 127.49 146.478 126.328C146.333 125.881 146.193 125.434 146.059 124.988C144.015 118.703 141.752 112.167 139.355 105.714C139.434 105.591 139.501 105.44 139.557 105.262C139.573 105.211 139.707 105.178 139.892 105.144C142.489 112.099 144.936 119.155 147.098 125.909C147.266 126.412 147.428 126.909 147.584 127.401C147.819 128.138 148.048 128.87 148.271 129.596C148.339 129.82 148.411 130.049 148.489 130.284C149.679 134.172 150.785 137.943 151.757 141.479C154.506 151.635 156.199 159.981 156.819 166.384Z" fill="#2B312C"/>
<path d="M139.892 105.144C139.707 105.178 139.573 105.211 139.556 105.262C139.501 105.44 139.434 105.591 139.355 105.714C139.311 105.602 139.266 105.491 139.221 105.379C131.361 84.2954 121.004 79.9547 118.993 79.2843H118.959C118.775 79.2172 118.674 79.0161 118.741 78.815C118.808 78.6307 119.009 78.5301 119.194 78.5971H119.227C121.272 79.2843 131.931 83.7255 139.892 105.127C139.892 105.139 139.892 105.144 139.892 105.144Z" fill="#3F6A3A"/>
<path d="M160.791 166.266H160.774C160.528 166.277 160.294 166.283 160.07 166.283C158.746 158.808 154.808 138.395 149.629 130.015C149.484 129.792 149.344 129.574 149.21 129.362C148.864 128.859 148.517 128.412 148.171 128.021C147.97 127.809 147.774 127.602 147.584 127.401C147.216 127.01 146.847 126.652 146.478 126.328C139.942 120.312 134.26 122.172 128.562 124.87C125.395 126.379 122.512 128.088 120.417 129.328C117.4 131.122 116.428 131.675 115.909 131.306C115.758 131.189 115.708 130.971 115.825 130.803C115.942 130.652 116.143 130.619 116.294 130.703C116.73 130.703 118.406 129.697 120.048 128.708C122.16 127.451 125.043 125.742 128.261 124.217C131.361 122.759 134.713 121.418 138.165 121.636C140.897 121.786 143.495 122.893 146.059 124.988C146.406 125.278 146.752 125.585 147.098 125.909C147.635 126.412 148.171 126.954 148.707 127.535C149.132 128.004 149.556 128.563 149.981 129.211C150.115 129.423 150.249 129.647 150.383 129.881C152.88 134.021 155.344 141.211 157.741 151.334C159.165 157.3 160.204 162.914 160.774 166.132C160.774 166.177 160.78 166.222 160.791 166.266Z" fill="#3F6A3A"/>
<path d="M173.159 142.803C171.902 145.719 170.696 149.993 169.573 155.507C168.752 159.579 168.148 163.551 167.78 166.283C167.534 166.272 167.288 166.266 167.042 166.266C167.83 160.518 169.623 149.255 172.439 142.686C172.791 142.635 173.042 142.635 173.159 142.803Z" fill="#2B312C"/>
<path d="M191.226 155.724C191.042 155.808 190.841 155.724 190.757 155.54C190.707 155.389 184.79 140.943 177.818 138.362C177.232 138.144 176.662 138.211 176.075 138.579C175.087 139.183 174.115 140.607 173.159 142.803C173.042 142.635 172.791 142.635 172.439 142.686C173.411 140.423 174.5 138.714 175.707 137.959C175.763 137.926 175.818 137.892 175.874 137.859C176.595 137.473 177.332 137.423 178.07 137.691C178.304 137.781 178.539 137.881 178.774 137.993C181.623 139.334 184.556 142.535 187.539 147.529C189.902 151.518 191.41 155.222 191.427 155.255C191.511 155.456 191.41 155.657 191.226 155.724Z" fill="#4C6564"/>
<path d="M161.746 154.836C161.746 158.456 161.662 162.261 161.478 166.266C161.255 166.266 161.025 166.266 160.791 166.266H160.774C160.774 166.222 160.774 166.177 160.774 166.132C161.059 159.462 161.093 153.328 160.958 147.764C160.914 145.898 160.852 144.099 160.774 142.367V142.35C160.104 128.055 158.411 118.049 157.472 112.552C157.461 112.518 157.456 112.485 157.456 112.451C157.556 112.463 157.679 112.474 157.824 112.485C157.936 112.496 158.059 112.507 158.193 112.518C159.249 118.719 161.243 130.501 161.679 147.596C161.735 149.909 161.757 152.322 161.746 154.836Z" fill="#2B322E"/>
<path d="M158.193 112.518C158.059 112.507 157.936 112.496 157.824 112.485C157.679 112.474 157.556 112.463 157.456 112.451C156.4 106.116 154.824 85.6194 153.886 73.3514C153.484 68.0722 153.165 63.899 153.098 63.5639C153.031 63.3627 153.132 63.1784 153.333 63.1113C153.517 63.0443 153.718 63.1616 153.785 63.346C153.869 63.5806 154.053 65.9772 154.607 73.3011C155.545 85.6194 157.12 106.25 158.176 112.418C158.188 112.451 158.193 112.485 158.193 112.518Z" fill="#3F6A3A"/>
<path d="M172.774 108.647C172.036 112.87 171.282 117.747 170.545 122.876C170.534 122.954 170.523 123.032 170.511 123.11C170.377 124.06 170.238 125.015 170.092 125.976C168.5 137.272 166.975 149.373 165.919 158.238C165.534 161.372 165.215 164.104 164.964 166.249H164.863C164.651 166.249 164.444 166.249 164.243 166.249C164.478 164.138 164.796 161.456 165.165 158.372C165.668 154.216 166.271 149.339 166.925 144.16C166.925 144.138 166.93 144.121 166.942 144.11C167.26 141.563 167.595 138.931 167.947 136.3C168.059 135.462 168.171 134.641 168.282 133.837C168.662 131.021 169.031 128.351 169.388 125.825C170.327 119.122 171.198 113.457 172.003 108.865C172.271 108.815 172.539 108.731 172.774 108.647Z" fill="#2B312C"/>
<path d="M191.36 76.8542C190.991 77.2899 190.237 77.9771 189.215 78.9156C185.595 82.2675 178.841 88.5188 175.824 94.9712C174.953 96.8315 173.897 101.759 172.774 108.262C172.539 108.329 172.271 108.412 172.003 108.463C173.26 101.088 174.332 96.4796 175.17 94.6696C178.254 88.0831 185.075 81.7815 188.729 78.3961C189.701 77.4911 190.472 76.7872 190.824 76.3849C190.958 76.2341 191.193 76.2173 191.327 76.3514C191.477 76.4855 191.494 76.7034 191.36 76.8542Z" fill="#2B312C"/>
<path d="M204.868 138.177C204.667 138.244 204.466 138.144 204.399 137.959C204.349 137.792 198.466 121.3 191.142 122.323C183.986 123.312 182.679 126.714 178.807 136.786L178.405 137.825L178.288 138.16C178.243 138.272 178.198 138.384 178.154 138.496C175.204 146.339 173.176 159.512 172.254 166.434C172.02 166.423 171.779 166.411 171.534 166.4C172.455 159.479 174.5 146.205 177.467 138.278C177.511 138.144 177.556 138.015 177.601 137.892L177.735 137.591L178.137 136.535C182.025 126.446 183.466 122.658 191.042 121.619C198.936 120.513 204.835 137.021 205.086 137.725C205.153 137.909 205.053 138.11 204.868 138.177Z" fill="#2B312C"/>
<path d="M194.327 114.396C192.902 115.368 191.293 113.926 191.494 116.675C191.695 119.423 189.165 117.261 188.059 119.658C186.936 122.055 185.025 119.976 183.399 123.027C182.74 125.071 180.757 125.759 177.45 125.088C173.696 124.317 171.852 123.546 171.182 123.211C171.036 123.133 170.93 123.071 170.863 123.027C170.752 123.06 170.606 123.094 170.428 123.127C169.003 123.395 164.511 124.099 163.59 122.155C162.841 120.602 162.841 119.524 163.59 118.921C163.176 117.546 163.545 116.798 164.696 116.675C166.405 116.49 166.288 116.893 166.958 115.066C167.629 113.256 168.735 114.261 170.863 113.558C172.992 112.837 171.852 111.127 173.578 111.027C175.321 110.926 174.534 113.558 177.45 112.032C180.366 110.524 180.701 109.2 183.014 111.027C185.327 112.837 186.332 113.775 188.964 113.055C191.595 112.334 191.997 112.435 192.198 113.139C192.399 113.859 195.734 113.423 194.327 114.396Z" fill="#BBCD67"/>
<path d="M171.182 123.211C170.802 123.982 170.439 124.904 170.092 125.976C169.422 128.054 168.819 130.686 168.282 133.837C167.763 136.803 167.327 140.239 166.942 144.11C166.93 144.121 166.925 144.138 166.925 144.16C166.623 147.244 166.355 150.613 166.137 154.25C166.053 155.607 165.986 156.931 165.919 158.238C165.768 161.104 165.668 163.836 165.601 166.249C165.388 166.249 165.176 166.249 164.964 166.249H164.863C164.93 163.87 165.031 161.205 165.165 158.372C165.718 147.211 166.891 133.585 169.388 125.825C169.707 124.82 170.059 123.915 170.428 123.127C170.45 123.127 170.478 123.122 170.511 123.11C170.662 123.077 170.779 123.06 170.83 123.043C170.841 123.043 170.852 123.043 170.863 123.043C170.863 123.032 170.863 123.027 170.863 123.027C170.93 123.071 171.036 123.133 171.182 123.211Z" fill="#2B312C"/>
<path d="M190.204 114.479C190.154 114.68 189.952 114.798 189.768 114.747C189.735 114.731 186.483 113.96 182.578 114.613C177.366 115.502 173.545 118.384 171.182 123.194C171.182 123.194 171.182 123.2 171.182 123.211C171.036 123.133 170.93 123.071 170.863 123.027C170.752 123.06 170.606 123.094 170.428 123.127C170.461 123.038 170.5 122.954 170.545 122.876C173.612 116.608 178.724 114.53 182.478 113.909C186.533 113.222 189.802 114.01 189.936 114.044C190.137 114.094 190.254 114.295 190.204 114.479Z" fill="#2B312C"/>
<path d="M157.405 132.261C157.316 132.306 157.232 132.351 157.154 132.395C156.919 132.518 156.707 132.635 156.517 132.747C154.137 134.155 154.64 135.06 151.54 137.524C148.104 140.255 146.294 144.194 142.741 144.496C139.188 144.797 139.506 143.691 136.875 145.317C135.121 146.389 134.517 145.982 135.065 144.093C133.981 144.429 132.903 144.429 131.83 144.093C130.205 143.591 130.305 140.356 130.708 138.529C131.11 136.719 131.931 135.998 131.931 133.401C131.931 131.669 132.601 131.222 133.942 132.06C132.534 130.652 132.735 129.429 135.869 128.239C139.003 127.049 140.21 128.423 143.964 129.932C144.651 130.216 145.322 130.401 145.959 130.501C146.461 130.585 146.947 130.619 147.4 130.619C148.763 130.619 149.908 130.39 150.836 129.932C151.182 129.898 151.612 129.859 152.126 129.814C152.137 129.814 152.143 129.814 152.143 129.814C152.713 129.764 153.45 129.714 154.221 129.663C156.232 129.563 158.579 129.513 159.735 129.831C161.964 130.451 160.858 130.552 157.405 132.261Z" fill="#BBCD67"/>
<path d="M163.171 166.249C162.925 166.249 162.679 166.249 162.433 166.249C162.282 162.076 162.048 158.272 161.746 154.836C161.523 152.278 161.26 149.92 160.958 147.764C159.936 140.574 158.461 135.596 156.517 132.747C156.707 132.635 156.919 132.518 157.154 132.395C158.629 134.574 159.819 137.876 160.774 142.35V142.367C161.109 143.959 161.411 145.686 161.679 147.596C162.4 152.691 162.886 158.875 163.171 166.249Z" fill="#2B322E"/>
<path d="M157.154 132.395C156.919 132.518 156.707 132.635 156.517 132.747C155.97 131.943 155.383 131.306 154.757 130.837C153.903 130.2 153.014 129.898 152.143 129.814C152.143 129.814 152.137 129.814 152.126 129.814C150.769 129.68 149.394 130.049 148.121 130.367C147.886 130.434 147.646 130.518 147.4 130.619C142.255 132.613 136.557 141.261 136.255 142.082C136.188 142.267 135.987 142.367 135.802 142.317C135.618 142.25 135.517 142.049 135.584 141.864C135.836 141.06 140.83 133.3 145.959 130.501C146.612 130.133 147.283 129.848 147.936 129.68C149.797 129.194 152.042 128.591 154.221 129.663C154.545 129.82 154.864 130.021 155.176 130.267C155.88 130.792 156.539 131.501 157.154 132.395Z" fill="#3F6A3A"/>
<path opacity="0.2" d="M176.059 190.5C175.305 195.461 174.282 199.718 173.679 202.065C171.5 202.416 167.981 202.651 164.025 202.651C160.322 202.651 157.02 202.45 154.824 202.132C154.657 201.327 154.472 200.288 154.238 198.998L152.394 190.467C152.16 189.344 153.199 188.389 154.288 188.707C162.752 191.154 170.277 189.88 174.182 188.841C175.221 188.556 176.226 189.445 176.059 190.5Z" fill="#2B312C"/>
<path opacity="0.2" d="M171.919 179.456C165.333 180.612 159.584 180.16 155.528 179.456C152.361 178.903 150.216 175.869 150.769 172.702C151.137 170.523 151.774 168.948 152.294 167.942C152.562 167.976 152.841 168.004 153.132 168.026C153.422 168.048 153.729 168.071 154.053 168.093C154.277 168.104 154.506 168.115 154.741 168.126C155.176 168.16 155.629 168.188 156.098 168.21C157.791 168.277 159.718 168.328 161.78 168.361C162.025 168.361 162.271 168.361 162.517 168.361C163.009 168.372 163.511 168.378 164.025 168.378C164.26 168.378 164.489 168.372 164.713 168.361H164.796C165.266 168.361 165.718 168.361 166.154 168.361C166.321 168.361 166.483 168.361 166.64 168.361C166.997 168.35 167.355 168.344 167.712 168.344C167.947 168.333 168.176 168.328 168.4 168.328C168.433 168.328 168.467 168.328 168.5 168.328C168.668 168.316 168.83 168.311 168.986 168.311C170.059 168.277 171.081 168.244 172.02 168.194C172.299 168.182 172.567 168.171 172.824 168.16C173.014 168.149 173.204 168.138 173.394 168.126C173.573 168.115 173.752 168.104 173.93 168.093C174.277 168.071 174.606 168.048 174.919 168.026C174.997 168.015 175.076 168.009 175.154 168.009C175.232 167.998 175.31 167.992 175.388 167.992C175.467 167.981 175.545 167.97 175.623 167.959C176.126 169.484 176.478 171.16 176.712 172.903C177.115 176.02 175.003 178.92 171.919 179.456Z" fill="#2B312C"/>
<path d="M267.951 196.634C257.694 196.634 249.382 195.813 249.382 194.808C249.382 193.802 257.694 192.981 267.951 192.981C278.225 192.981 286.537 193.802 286.537 194.808C286.537 195.813 278.225 196.634 267.951 196.634Z" fill="#1B1B1B"/>
<path d="M290.577 148.736C290.577 160.769 281.292 170.624 269.493 171.562C268.89 171.607 268.281 171.629 267.666 171.629C267.007 171.64 266.359 171.618 265.722 171.562C253.99 170.573 244.756 160.736 244.756 148.736C244.756 136.736 253.99 126.898 265.722 125.909C266.359 125.853 267.007 125.825 267.666 125.825C268.281 125.837 268.89 125.865 269.493 125.909C281.292 126.848 290.577 136.702 290.577 148.736Z" fill="#322731"/>
<path d="M267.666 165.73C258.298 165.73 250.672 158.104 250.672 148.736C250.672 139.367 258.298 131.742 267.666 131.742C277.035 131.742 284.66 139.367 284.66 148.736C284.66 158.104 277.035 165.73 267.666 165.73Z" fill="#E09D61"/>
<path d="M267.666 154.635C264.415 154.635 261.767 151.987 261.767 148.736C261.767 145.484 264.415 142.836 267.666 142.836C270.918 142.836 273.566 145.484 273.566 148.736C273.566 151.987 270.918 154.635 267.666 154.635Z" fill="#322731"/>
<path d="M269.493 112.602V125.909C268.89 125.865 268.281 125.837 267.666 125.825C267.007 125.825 266.359 125.853 265.722 125.909V112.602H269.493Z" fill="#C5614C"/>
<path d="M269.493 171.562V189.864H265.722V171.562C266.359 171.613 267.013 171.629 267.666 171.629C268.281 171.64 268.89 171.618 269.493 171.562Z" fill="#C5614C"/>
<path d="M278.208 189.495V194.69H275.04V192.411H260.342V194.69H257.175V189.495H278.208Z" fill="#C5614C"/>
<path d="M276.616 191.372V194.69H275.04V192.411H260.342V194.69H258.231V191.372H276.616Z" fill="#E49877"/>
<path d="M267.934 121.87C267.834 123.703 267.096 124.725 265.722 124.937V112.602H267.968C268.001 114.915 268.052 119.809 267.934 121.87Z" fill="#E49877"/>
<path d="M267.683 179.02C267.683 181.366 267.683 184.858 267.683 189.495H265.722V174.746C266.527 175.383 267.683 176.707 267.683 179.02Z" fill="#E49877"/>
<path fill-rule="evenodd" clip-rule="evenodd" d="M238.521 122.524C238.477 122.837 238.426 123.133 238.371 123.412C238.086 124.853 237.566 125.758 237.181 126.244L237.164 126.261C236.929 126.58 236.745 126.731 236.711 126.747V126.764C236.767 126.965 236.806 127.244 236.829 127.602C236.845 127.82 236.862 128.055 236.845 128.339C236.845 129.211 236.695 130.367 236.192 131.658C235.572 133.216 235.019 134.205 234.265 134.976C234.147 135.094 234.013 135.211 233.896 135.311C233.41 135.73 232.857 136.082 232.17 136.451C230.125 137.54 229.387 137.792 226.522 137.44C224.661 137.205 223.404 136.451 222.214 135.378C221.991 135.177 221.767 134.965 221.544 134.742C221.142 134.339 220.74 133.904 220.321 133.451C219.069 132.121 218.678 130.524 219.147 128.658C219.036 128.568 218.896 128.462 218.728 128.339C218.226 127.937 217.455 127.284 217.22 126.764C216.969 126.177 217.203 125.423 216.784 123.647C216.667 123.161 216.499 122.591 216.282 121.937C216.192 121.68 216.086 121.412 215.963 121.133C214.488 117.412 214.22 116.373 215.46 113.608C215.762 112.937 216.282 112.384 216.918 111.932C218.237 110.982 219.89 110.345 221.879 110.021C222.572 108.971 224.119 108.334 226.522 108.111C228.935 107.887 230.443 108.418 231.047 109.703C232.365 109.412 233.946 109.619 235.79 110.323C238.572 111.379 236.812 112.887 237.834 116.256C238.086 117.111 238.287 117.731 238.438 118.217C238.857 119.708 238.806 120.144 238.521 122.524ZM219.449 127.987C219.527 128.088 219.606 128.177 219.684 128.256C219.751 128.311 219.812 128.373 219.868 128.44C219.924 128.485 219.974 128.541 220.019 128.608C220.136 128.742 220.27 128.909 220.404 129.077C220.46 129.144 220.516 129.211 220.572 129.278C221.075 129.915 221.678 130.719 222.382 131.524C222.572 131.736 222.767 131.943 222.969 132.144C223.103 132.278 223.237 132.412 223.371 132.546C223.471 132.635 223.572 132.725 223.672 132.814C223.795 132.915 223.918 133.015 224.041 133.116C224.097 133.172 224.159 133.222 224.226 133.267C224.293 133.323 224.354 133.373 224.41 133.418C224.477 133.462 224.544 133.507 224.611 133.552C224.963 133.786 225.332 134.004 225.734 134.189C225.935 134.278 226.147 134.356 226.371 134.423C226.449 134.445 226.533 134.468 226.622 134.49C226.773 134.54 226.941 134.574 227.108 134.591C227.209 134.607 227.309 134.624 227.41 134.641C227.644 134.663 227.874 134.663 228.097 134.641C228.142 134.641 228.186 134.635 228.231 134.624C228.298 134.624 228.365 134.607 228.449 134.607C228.46 134.607 228.471 134.602 228.482 134.591C228.561 134.591 228.633 134.58 228.7 134.557C228.751 134.557 228.784 134.54 228.818 134.524C228.901 134.507 228.985 134.49 229.069 134.457C229.17 134.423 229.265 134.39 229.354 134.356C229.354 134.356 229.36 134.356 229.371 134.356C229.449 134.323 229.522 134.289 229.589 134.256C229.79 134.155 229.985 134.049 230.175 133.937C230.259 133.87 230.343 133.82 230.41 133.77C230.678 133.568 230.929 133.351 231.164 133.116C231.516 132.764 231.851 132.378 232.136 131.976C232.203 131.892 232.27 131.809 232.32 131.725C232.387 131.647 232.449 131.563 232.505 131.473C232.561 131.384 232.616 131.3 232.672 131.222C232.89 130.887 233.108 130.552 233.292 130.233C233.348 130.155 233.393 130.077 233.427 129.999C233.678 129.596 233.896 129.228 234.114 128.926C234.136 128.881 234.164 128.842 234.197 128.809C234.231 128.753 234.265 128.703 234.298 128.658C234.41 128.524 234.51 128.384 234.6 128.239C234.711 128.105 234.812 127.96 234.901 127.803C234.991 127.658 235.08 127.507 235.17 127.351C235.253 127.2 235.337 127.032 235.421 126.881C235.84 126.01 236.125 125.038 236.192 123.948C236.192 123.932 236.192 123.915 236.192 123.898C236.203 123.786 236.209 123.675 236.209 123.563C236.209 123.144 236.175 122.708 236.108 122.239C236.041 121.837 235.957 121.468 235.84 121.099C235.237 119.021 233.963 117.647 232.589 116.474C231.505 115.569 230.924 114.792 230.846 114.144C229.225 116.591 227.041 117.943 224.293 118.2C220.388 118.569 218.645 120.278 218.544 121.837C218.544 121.926 218.544 122.01 218.544 122.088C218.561 122.474 218.561 122.943 218.561 123.462C218.594 125.004 218.645 126.932 219.449 127.987Z" fill="#7B767A"/>
<path d="M236.845 128.339C236.845 129.211 236.695 130.367 236.192 131.658C235.572 133.216 235.019 134.205 234.265 134.976C234.147 135.094 234.013 135.211 233.896 135.311C233.41 135.73 232.857 136.082 232.17 136.451C230.125 137.54 229.387 137.792 226.522 137.44C224.661 137.205 223.404 136.451 222.214 135.378C221.991 135.177 221.767 134.965 221.544 134.742C221.142 134.339 220.74 133.904 220.321 133.451C219.069 132.122 218.678 130.524 219.147 128.658C219.628 131.44 220.281 133.043 221.108 133.468C222.348 134.122 222.298 135.194 223.874 136.049C225.432 136.92 228.399 137.725 230.393 136.702C232.387 135.68 233.611 134.876 234.583 133.2C235.555 131.524 236.091 131.205 236.209 130.233C236.309 129.261 236.209 128.407 236.209 127.837C236.209 127.585 236.494 127.552 236.829 127.602C236.845 127.82 236.862 128.055 236.845 128.339Z" fill="#4A4947"/>
<path d="M317.777 220.299H80.429L89.4623 212.187L94.4399 207.729H306.682L317.777 220.299Z" fill="#E26659"/>
<path d="M269.577 207.193C275.309 207.997 287.845 209.338 291.817 213.126C295.772 216.913 275.828 213.696 265.605 214.601C255.365 215.489 232.119 215.422 225.583 214.014C219.064 212.606 205.187 213.696 197.98 215.103C190.757 216.528 177.668 214.986 178.807 212.824C179.556 211.372 184.148 210.467 192.584 210.109C196.355 209.858 263.845 206.388 269.577 207.193Z" fill="#1B1B1B"/>
<path d="M203.025 192.428C202.298 192.607 201.528 192.791 200.712 192.981C201.528 192.78 202.298 192.595 203.025 192.428Z" fill="#1B1B1B"/>
<path d="M204.131 192.16C203.807 192.238 203.472 192.322 203.125 192.411C203.472 192.322 203.807 192.238 204.131 192.16Z" fill="#1B1B1B"/>
<path d="M205.656 191.791C205.209 191.903 204.729 192.02 204.215 192.143C204.729 192.02 205.209 191.903 205.656 191.791Z" fill="#1B1B1B"/>
<path d="M208.22 191.171C207.718 191.294 207.176 191.428 206.595 191.573C207.176 191.428 207.718 191.294 208.22 191.171Z" fill="#1B1B1B"/>
<path d="M209.561 190.852C209.259 190.919 208.941 190.998 208.606 191.087C208.941 190.998 209.259 190.919 209.561 190.852Z" fill="#1B1B1B"/>
<path d="M210.617 190.584C210.393 190.64 210.142 190.702 209.863 190.769C210.142 190.702 210.393 190.64 210.617 190.584Z" fill="#1B1B1B"/>
<path d="M211.036 190.484C210.913 190.517 210.773 190.551 210.617 190.584C210.762 190.551 210.902 190.517 211.036 190.484Z" fill="#1B1B1B"/>
<path d="M257.594 193.065C256.84 193.031 256.052 193.081 255.331 193.249C252.935 193.819 251.091 192.109 248.544 193.098C246.549 193.869 250.236 195.595 251.946 196.316C249.968 196.567 247.823 196.97 245.627 197.607C240.901 198.958 235.248 199.612 228.667 199.567C228.555 199.981 228.438 200.517 228.315 201.176C227.443 200.757 226.538 200.271 225.952 199.852C225.818 199.752 225.7 199.634 225.583 199.5C224.628 198.327 224.879 196.165 220.639 197.037C220.214 197.126 219.818 197.193 219.449 197.238C215.796 197.674 214.958 196.065 212.326 194.657C210.393 193.618 207.611 193.925 203.98 195.579C203.846 195.601 203.718 195.629 203.595 195.662C205.639 194.405 209.192 192.931 209.142 192.21C209.075 191.204 202.019 192.696 200.058 193.132C200.282 193.087 200.5 193.037 200.712 192.981C201.528 192.791 202.299 192.607 203.025 192.428C203.058 192.428 203.092 192.422 203.125 192.411C203.472 192.322 203.807 192.238 204.131 192.16C204.164 192.16 204.192 192.154 204.215 192.143C204.729 192.02 205.209 191.903 205.656 191.791C205.678 191.791 205.701 191.785 205.723 191.774C206.025 191.707 206.315 191.64 206.595 191.573C207.176 191.428 207.717 191.294 208.22 191.171C208.354 191.137 208.483 191.109 208.606 191.087C208.941 190.998 209.259 190.919 209.561 190.852C209.662 190.819 209.762 190.791 209.863 190.769C210.142 190.702 210.393 190.64 210.617 190.584C210.773 190.551 210.913 190.517 211.036 190.484C211.427 190.383 211.712 190.311 211.891 190.266C212.159 190.35 212.527 190.383 213.013 190.501C213.432 190.584 214.371 190.568 215.594 190.484C215.572 190.517 215.544 190.551 215.511 190.584C214.656 191.607 214.907 192.294 215.863 192.679C216.768 193.031 218.309 193.098 220.069 192.914C220.639 192.847 221.242 192.763 221.846 192.646C226.237 191.808 230.158 191.523 234.348 192.411C238.538 193.283 241.471 193.852 241.723 192.176C241.957 190.501 244.253 191.523 246.985 191.439C248.611 191.389 248.979 190.886 249.013 190.484C250.907 191.037 254.359 192.076 257.594 193.065Z" fill="#17466E"/>
<path d="M227.946 209.02C228.08 210.059 228.315 211.098 228.684 212.087C225.868 211.785 223.84 211.517 223.052 211.416C222.896 211.394 222.773 211.377 222.684 211.366C215.254 212.617 207.522 213.053 199.488 212.673C187.438 212.087 182.126 205.752 183.265 200.472C183.517 199.266 184.053 198.344 184.824 197.623C187.472 195.126 192.885 194.824 199.556 193.249C199.567 193.249 199.589 193.243 199.623 193.232C199.645 193.221 199.673 193.216 199.706 193.216C199.762 193.204 199.835 193.188 199.924 193.165C199.969 193.154 200.014 193.143 200.058 193.132C202.019 192.696 209.075 191.204 209.142 192.21C209.192 192.931 205.639 194.405 203.595 195.662C203.717 195.629 203.846 195.601 203.98 195.579C207.611 193.925 210.393 193.618 212.326 194.657C214.958 196.065 215.796 197.674 219.449 197.238C219.818 197.193 220.214 197.126 220.639 197.037C224.879 196.165 224.628 198.327 225.583 199.5C225.7 199.634 225.818 199.752 225.952 199.852C226.538 200.271 227.443 200.757 228.315 201.176C228.293 201.288 228.27 201.394 228.248 201.495C228.248 201.506 228.248 201.511 228.248 201.511C228.203 201.746 228.164 201.998 228.13 202.266C228.086 202.523 228.047 202.802 228.013 203.104C227.795 204.796 227.678 206.908 227.946 209.02Z" fill="#1C8DE7"/>
<path d="M265.605 195.729C263.979 196.567 262.337 197.154 261.482 196.752C260.024 196.098 256.387 195.78 251.946 196.316C250.236 195.595 246.549 193.869 248.544 193.098C251.091 192.109 252.935 193.819 255.331 193.249C256.052 193.081 256.84 193.031 257.594 193.065C261.13 194.154 264.415 195.176 265.119 195.461C265.219 195.511 265.387 195.595 265.605 195.729Z" fill="#1C8DE7"/>
<path d="M228.315 201.176C228.293 201.288 228.27 201.394 228.248 201.495C228.248 201.506 228.248 201.512 228.248 201.512C228.203 201.746 228.164 201.998 228.131 202.266C228.086 202.523 228.047 202.802 228.013 203.104C227.795 204.796 227.678 206.908 227.946 209.02C224.544 208.433 218.795 207.159 215.879 204.83C213.466 202.886 211.405 200.69 208.907 199.366C208.896 199.366 208.891 199.366 208.891 199.366C206.93 198.344 204.701 197.841 201.801 198.445C201.678 198.288 201.583 198.098 201.516 197.875C201.315 197.255 201.416 196.249 203.595 195.662C203.717 195.629 203.846 195.601 203.98 195.579C207.611 193.925 210.393 193.618 212.326 194.657C214.958 196.065 215.796 197.674 219.449 197.238C219.818 197.193 220.214 197.126 220.639 197.037C224.879 196.165 224.628 198.327 225.583 199.5C225.7 199.634 225.818 199.752 225.952 199.852C226.538 200.271 227.443 200.757 228.315 201.176Z" fill="#E49877"/>
<path d="M228.248 201.511C228.203 201.746 228.164 201.998 228.131 202.266C228.086 202.523 228.047 202.802 228.013 203.104C227.795 204.796 227.678 206.908 227.946 209.02C224.544 208.433 218.795 207.159 215.879 204.83C211.572 201.377 208.421 197.087 201.801 198.445C201.678 198.288 201.583 198.098 201.516 197.875C201.835 197.774 202.237 197.657 202.74 197.523C205.371 196.819 210.131 195.981 212.695 198.109C213.483 198.746 214.321 199.45 215.192 200.154C218.444 202.802 222.08 205.567 224.427 205.668C226.689 205.768 227.494 204.126 227.829 203.053C227.946 202.701 228.013 202.417 228.047 202.266C228.058 202.266 228.063 202.26 228.063 202.249C228.114 202.081 228.181 201.813 228.248 201.511Z" fill="#C5614C"/>
<path d="M225.583 199.5C224.695 199.601 223.304 199.567 221.862 198.763C220.388 197.942 219.985 197.573 219.449 197.238C219.818 197.193 220.214 197.126 220.639 197.037C224.879 196.165 224.628 198.327 225.583 199.5Z" fill="#C5614C"/>
<path d="M226.186 210.83L223.052 211.416C222.896 211.394 222.773 211.377 222.684 211.366C215.254 212.617 207.522 213.053 199.488 212.673C187.438 212.087 182.126 205.752 183.265 200.472C183.517 199.266 184.053 198.344 184.824 197.623C185.88 197.741 187.556 198.126 188.913 200.59C191.075 204.461 189.617 208.081 194.829 206.657C200.058 205.232 208.069 204.21 210.65 205.199C212.382 205.847 217.561 207.724 226.186 210.83Z" fill="#17466E"/>
<path d="M271.353 201.696C270.297 202.349 268.957 202.735 267.633 201.947C264.767 200.238 259.722 199.014 251.979 201.394C246.147 203.187 236.644 204.327 230.678 203.623C229.672 203.506 228.767 203.338 228.013 203.104C228.047 202.802 228.086 202.523 228.13 202.266C228.164 201.998 228.203 201.746 228.248 201.512C228.248 201.512 228.248 201.506 228.248 201.495C228.27 201.394 228.293 201.288 228.315 201.176C228.438 200.517 228.555 199.981 228.667 199.567C235.248 199.612 240.901 198.958 245.627 197.607C247.823 196.97 249.968 196.567 251.946 196.316C256.387 195.78 260.024 196.098 261.482 196.752C262.337 197.154 263.979 196.567 265.605 195.729C265.94 195.964 266.392 196.283 266.912 196.718C267.331 197.472 267.985 198.445 269.007 199.584C269.661 200.288 270.314 200.774 270.951 201.076C271.085 201.277 271.219 201.484 271.353 201.696Z" fill="#1C8DE7"/>
<path d="M266.041 211.366C255.784 214.349 237.952 213.059 228.684 212.087C228.315 211.098 228.08 210.059 227.946 209.02C227.678 206.908 227.795 204.796 228.013 203.104C228.767 203.338 229.672 203.506 230.678 203.623C236.644 204.327 246.147 203.187 251.979 201.394C259.722 199.014 264.767 200.238 267.633 201.947C268.957 202.735 270.298 202.349 271.353 201.696C273.398 205.165 273.499 209.187 266.041 211.366Z" fill="#17466E"/>
<path d="M194.662 200.422C199.958 199.193 204.701 198.841 208.891 199.366" stroke="#1C1C1C" stroke-width="0.33519" stroke-linecap="round"/>
<path d="M238.521 122.524C238.287 124.502 237.633 125.658 237.181 126.245L237.164 126.261L236.711 126.747L236.209 127.267C236.276 124.686 236.164 122.641 235.873 121.133C235.862 121.122 235.851 121.111 235.84 121.099C235.237 119.021 233.963 117.647 232.589 116.474C231.505 115.569 230.924 114.792 230.846 114.144C229.237 116.591 227.052 117.943 224.293 118.2C220.388 118.569 218.846 122.155 218.745 123.714C218.427 123.848 217.957 124.434 216.985 124.032C216.902 123.781 216.08 121.418 215.963 121.133C214.488 117.412 214.22 116.373 215.46 113.608C215.762 112.937 216.282 112.384 216.918 111.932C216.382 112.87 215.661 114.345 216.131 115.284C216.902 116.842 219.768 117.01 220.957 116.055C222.147 115.099 221.276 113.725 222.935 114.53C224.494 115.284 228.667 114.261 229.723 112.636C229.873 112.418 230.142 112.334 230.376 112.384C231.08 112.535 232.32 112.971 232.957 114.144C233.862 115.787 233.309 117.027 234.516 116.524C235.723 116.038 235.689 116.172 236.041 117.68C236.376 119.088 236.711 118.937 238.438 118.217C238.857 119.708 238.806 120.144 238.521 122.524Z" fill="#4A4947"/>
<path d="M239.091 126.362C238.656 127.736 237.499 128.591 236.51 128.289C235.94 128.105 235.555 127.568 235.421 126.881C235.103 127.535 234.717 128.121 234.298 128.658C233.075 130.233 231.248 134.993 227.41 134.641C223.572 134.272 221.041 129.513 219.701 128.256C219.611 128.177 219.527 128.088 219.449 127.987C219.298 128.121 219.131 128.222 218.93 128.289C217.941 128.591 216.801 127.736 216.349 126.362C215.913 124.987 216.349 123.613 217.337 123.295C217.74 123.161 218.175 123.244 218.578 123.462C218.561 122.943 218.561 122.474 218.544 122.088C218.544 122.01 218.544 121.926 218.544 121.837C218.645 120.278 220.388 118.569 224.293 118.2C227.052 117.943 229.237 116.591 230.846 114.144C230.924 114.792 231.505 115.569 232.589 116.474C233.963 117.647 235.237 119.021 235.84 121.099C235.952 121.457 236.041 121.837 236.108 122.239C236.209 122.876 236.225 123.479 236.192 124.032C236.728 123.395 237.449 123.094 238.102 123.295C239.091 123.613 239.527 124.987 239.091 126.362Z" fill="#E49877"/>
<path d="M225.483 121.619C224.164 120.256 222.477 120.194 220.421 121.434" stroke="#1C1C1C" stroke-width="0.33519" stroke-linecap="round"/>
<path d="M228.265 121.619C229.572 120.256 231.259 120.194 233.326 121.434" stroke="#1C1C1C" stroke-width="0.33519" stroke-linecap="round"/>
<path d="M225.047 123.446C224.862 123.261 224.628 123.395 224.46 123.546C224.242 123.747 223.957 123.848 223.656 123.881C222.639 123.971 221.924 123.641 221.51 122.893" stroke="#1C1C1C" stroke-width="0.33519" stroke-linecap="round"/>
<path d="M232.17 122.893C231.756 123.641 231.036 123.971 230.008 123.881C229.723 123.848 229.438 123.747 229.203 123.546C229.052 123.395 228.818 123.261 228.617 123.446" stroke="#1C1C1C" stroke-width="0.33519" stroke-linecap="round"/>
<path d="M227.343 126.814C227.298 126.937 226.98 126.96 226.388 126.881C225.483 126.764 225.834 125.96 226.237 124.904C226.505 124.189 226.6 123.468 226.522 122.742" stroke="#1C1C1C" stroke-width="0.33519" stroke-linecap="round"/>
<path d="M231.047 130.753C231.55 131.54 230.293 131.256 228.818 130.133C227.36 129.01 226.052 129.814 224.896 130.753C223.74 131.691 222.935 131.49 223.639 130.753C224.326 130.015 225.449 128.272 225.885 128.021C226.175 127.865 226.857 127.803 227.929 127.837C228.483 127.904 230.628 130.082 231.047 130.753Z" fill="#7B767A"/>
<path d="M225.332 130.669C226.929 129.999 228.136 130.027 228.952 130.753C228.706 131.267 228.136 131.524 227.242 131.524C225.885 131.524 225.365 130.853 225.332 130.753V130.669Z" fill="#C5614C"/>
<path d="M239.477 139.769C237.901 143.473 234.181 150.261 228.198 149.758C221.997 149.239 218.829 143.205 217.656 140.289C219.164 139.619 220.522 139.099 221.544 138.747V134.742C221.768 134.965 221.991 135.177 222.214 135.378C222.6 137.205 224.427 145.116 227.896 145.283C230.745 145.417 233.041 138.362 233.896 135.311C234.019 135.211 234.136 135.099 234.248 134.976V137.809C235.745 138.267 237.488 138.92 239.477 139.769Z" fill="#E49877"/>
<path d="M233.896 135.311C233.041 138.362 230.745 145.417 227.896 145.283C224.427 145.116 222.6 137.205 222.214 135.378C223.404 136.451 224.678 137.205 226.522 137.44C229.387 137.792 230.125 137.54 232.17 136.451C232.857 136.082 233.41 135.73 233.896 135.311Z" fill="#C5614C"/>
<path d="M211.237 162.361L211.153 163.25C209.93 170.221 206.578 177.428 205.421 179.841C204.181 182.406 200.528 187.048 197.913 189.143C196.181 190.54 191.963 193.428 185.26 197.808C185.304 197.975 185.338 198.176 185.36 198.411C185.176 198.31 185.025 198.176 184.924 197.992C184.019 196.467 186.852 195.746 191.293 191.791C195.734 187.836 198.248 185.59 200.88 181.702C203.511 177.797 201.684 178.249 200.058 176.858C198.433 175.467 200.159 173.121 201.382 165.411C202.019 161.49 202.824 157.484 203.477 154.501C204.164 152.406 204.986 150.512 205.991 148.987C206.729 147.881 207.65 146.859 208.656 145.92C211.494 149.965 212.354 155.445 211.237 162.361Z" fill="#C5614C"/>
<path d="M201.382 165.411C200.159 173.121 198.433 175.467 200.058 176.858C201.684 178.249 203.511 177.797 200.88 181.702C198.248 185.59 195.734 187.836 191.293 191.791C186.852 195.746 184.02 196.467 184.925 197.992C185.025 198.176 185.176 198.31 185.36 198.411C185.461 199.132 185.461 200.355 184.69 201.076C183.533 202.165 182.344 203.992 181.79 205.199C181.422 206.003 180.757 206.042 179.796 205.316L178.254 204.847L177.383 204.595C176.377 203.891 175.718 203.472 175.405 203.338C174.953 203.137 174.131 202.383 174.517 201.813C174.886 201.243 177.182 198.78 178.07 197.255C178.958 195.746 180.617 194.774 182.628 193.132C184.623 191.489 195.885 178.584 198.248 175.517C200.109 173.087 200.846 162.462 203.477 154.501C202.824 157.484 202.019 161.49 201.382 165.411Z" fill="#E49877"/>
<path d="M249.013 190.484C248.979 190.886 248.611 191.389 246.985 191.439C244.253 191.523 241.957 190.5 241.723 192.176C241.471 193.852 238.538 193.283 234.348 192.411C230.158 191.523 226.237 191.808 221.846 192.646C221.242 192.763 220.639 192.847 220.069 192.914C218.309 193.098 216.768 193.031 215.863 192.679C214.907 192.294 214.656 191.607 215.511 190.584C215.544 190.551 215.572 190.517 215.594 190.484C214.371 190.568 213.432 190.584 213.013 190.5C212.527 190.383 212.159 190.35 211.891 190.266C211.572 190.182 211.405 190.014 211.338 189.612C211.203 188.908 211.405 187.484 211.773 184.333C212.243 180.361 211.991 172.903 211.706 167.691C211.594 165.49 211.477 163.59 211.354 161.993L211.338 161.523C211.338 161.501 211.343 161.473 211.354 161.439C211.388 161.188 211.505 160.35 211.572 159.143C211.74 156.177 211.606 150.998 209.293 146.942C209.226 146.82 209.159 146.697 209.092 146.574C208.958 146.35 208.812 146.132 208.656 145.92C211.338 143.457 214.773 141.596 217.656 140.289C218.829 143.205 221.997 149.239 228.198 149.758C234.181 150.261 237.901 143.473 239.477 139.769C241.857 140.775 244.706 142.149 247.253 143.808C246.516 146.708 245.108 153.244 245.879 158.322C245.868 159.015 245.857 159.937 245.845 161.088C245.812 167.858 246.03 185.054 248.795 189.797C248.829 189.852 248.862 189.908 248.896 189.964C248.985 190.121 249.024 190.294 249.013 190.484Z" fill="#FFFCFF"/>
<path d="M176.897 201.88L177.064 199.903L178.774 197.808" stroke="#C5614C" stroke-width="0.33519" stroke-linecap="round"/>
<path d="M176.008 201.88L177.198 202.266C177.835 201.808 178.511 201.763 179.226 202.132L177.55 204.377" stroke="#C5614C" stroke-width="0.33519" stroke-linecap="round"/>
<path d="M178.69 202.835C179.215 202.4 179.936 202.366 180.852 202.735L179.008 204.696" stroke="#C5614C" stroke-width="0.33519" stroke-linecap="round"/>
<path d="M180.064 203.573C180.869 203.182 181.483 203.199 181.908 203.623L180.064 205.199" stroke="#C5614C" stroke-width="0.33519" stroke-linecap="round"/>
<path d="M181.539 203.322C181.74 203.076 182.014 202.981 182.36 203.037L181.807 204.964" stroke="#C5614C" stroke-width="0.33519" stroke-linecap="round"/>
<path d="M182.796 200.305C181.841 201.21 180.735 202.165 180.081 202.701C179.628 202.634 179.025 202.634 178.606 202.969H178.589L179.109 202.266C178.483 201.942 177.869 201.942 177.265 202.266V201.981C177.869 201.802 178.327 201.294 178.64 200.456C179.5 199.953 180.5 199.171 181.64 198.109C182.327 197.472 182.411 196.836 182.276 196.316C182.695 196.098 183.232 195.998 183.517 196.5C184.003 197.389 184.237 198.947 182.796 200.305Z" fill="#C5614C"/>
<path d="M278.979 197.64C278.264 198.623 277.342 198.662 276.214 197.757C276.314 197.858 277.571 199.165 276.264 200.238C275.677 200.724 274.756 201.26 273.7 201.444C273.113 201.545 272.459 201.545 271.806 201.377C271.527 201.31 271.242 201.21 270.951 201.076C270.314 200.774 269.661 200.288 269.007 199.584C267.985 198.444 267.331 197.472 266.912 196.718C266.594 196.148 266.426 195.696 266.325 195.344C266.247 195.053 266.208 194.83 266.208 194.674C265.856 194.288 254.46 181.886 253.153 178.869C252.7 177.83 251.795 175.819 250.722 173.355C250.599 173.065 250.471 172.774 250.337 172.484C250.052 171.78 249.734 171.059 249.415 170.322C248.175 167.339 246.868 164.054 245.845 161.088C245.857 159.937 245.868 159.015 245.879 158.322C245.108 153.244 246.499 146.741 247.253 143.825C247.253 143.814 247.253 143.808 247.253 143.808C250.058 144.591 252.27 146.602 253.89 149.842C254.309 150.68 254.678 151.635 254.963 152.708C256.89 160.015 257.611 168.998 259.823 172.316C261.298 174.506 264.879 180.534 270.566 190.4C272.286 192.188 273.605 193.366 274.521 193.936C275.437 194.506 276.247 195.059 276.951 195.595L278.979 197.64Z" fill="#E49877"/>
<path d="M277.119 200.221C277.107 200.221 277.096 200.227 277.085 200.238L276.029 199.903C274.554 199.679 273.688 199.975 273.432 200.791C273.61 200.947 273.839 201.109 274.119 201.277C274.007 201.277 273.895 201.271 273.783 201.26L273.666 201.193C273.247 201.059 272.895 201.009 272.61 201.026C270.817 200.405 269.979 198.796 269.309 197.355C268.437 195.528 269.376 194.875 270.566 195.797C271.756 196.735 272.728 196.567 274.052 196.635C275.292 196.718 276.113 197.64 276.197 197.741L277.102 198.512C276.487 198.556 276.091 198.796 275.912 199.232C276.225 199.623 276.627 199.953 277.119 200.221Z" fill="#C5614C"/>
<path d="M266.242 194.657C265.89 194.271 254.477 181.886 253.169 178.886C252.03 176.305 248.175 167.909 245.829 161.104C245.84 159.953 245.851 159.026 245.862 158.322C245.074 153.261 246.482 146.725 247.22 143.808C250.024 144.591 252.236 146.602 253.856 149.842C254.544 152.708 255.767 158.138 256.471 163.417C257.476 170.825 259.069 171.126 257.879 173.238C256.706 175.35 253.923 175.383 254.996 177.931C256.069 180.445 265.923 194.221 266.242 194.657Z" fill="#C5614C"/>
<path d="M275.711 199.199C276.035 198.428 276.828 198.249 278.091 198.662L279.13 199.199C279.398 199.35 279.482 199.701 279.297 199.953C279.08 200.255 278.694 200.539 278.007 200.506C277.113 200.472 276.348 200.037 275.711 199.199Z" fill="#E49877"/>
<path d="M270.113 202.366C270.359 201.785 270.962 201.651 271.923 201.964L272.711 202.366C272.929 202.483 272.996 202.752 272.862 202.936C272.694 203.171 272.392 203.388 271.856 203.372C271.186 203.338 270.605 203.003 270.113 202.366Z" fill="#C5614C"/>
<path d="M271.085 201.729C271.409 200.958 272.203 200.774 273.465 201.176L274.504 201.729C274.789 201.863 274.873 202.215 274.689 202.467C274.471 202.768 274.085 203.07 273.381 203.037C272.499 202.992 271.733 202.556 271.085 201.729Z" fill="#E49877"/>
<path d="M273.23 200.791C273.487 199.964 274.353 199.662 275.828 199.886L277.068 200.271C277.404 200.389 277.538 200.724 277.37 201.009C277.169 201.327 276.767 201.679 275.979 201.746C274.973 201.835 274.057 201.517 273.23 200.791Z" fill="#E49877"/>
<path d="M249.013 190.484C248.979 190.886 248.611 191.389 246.985 191.439C244.253 191.523 241.957 190.5 241.723 192.176C241.471 193.852 238.538 193.283 234.348 192.411C230.158 191.523 226.237 191.808 221.846 192.646C221.242 192.763 220.639 192.847 220.069 192.914L215.863 192.679C214.907 192.294 214.656 191.607 215.511 190.584C215.544 190.551 215.572 190.517 215.594 190.484C214.371 190.568 213.432 190.584 213.013 190.5C212.527 190.383 212.159 190.35 211.891 190.266C211.572 190.182 211.405 190.014 211.338 189.612C212.494 188.908 213.835 187.852 214.673 186.394C216.432 183.361 215.192 181.752 215.092 178.869C214.974 175.987 212.745 171.445 211.974 168.83C211.891 168.512 211.79 168.127 211.706 167.691C211.594 165.49 211.477 163.59 211.354 161.993L211.338 161.523C211.338 161.501 211.343 161.473 211.354 161.439C211.388 161.188 211.505 160.35 211.572 159.143C212.41 159.68 213.617 160.702 214.187 162.361C215.125 165.06 218.829 165.194 222.416 164.289C226.002 163.4 231.968 165.546 236.862 165.512C240.125 165.501 242.829 164.412 244.974 162.244C243.991 168.735 243.438 173.177 243.315 175.568C243.114 179.154 244.806 187.4 248.443 189.579C248.566 189.646 248.683 189.718 248.795 189.797C248.829 189.852 248.862 189.908 248.896 189.964C248.985 190.121 249.024 190.294 249.013 190.484Z" fill="#CBE8F9"/>
<path d="M193.606 234.293L171.282 273.276C169.975 273.242 168.215 273.197 166.003 273.142C162.835 273.058 158.411 272.94 153.299 272.806C136.339 272.371 111.752 271.717 99.518 271.365C84.4679 270.929 68.4458 268.265 57.7197 268.231C54.3511 268.214 51.502 268.466 49.3735 269.119C45.9881 270.175 42.0999 270.745 38.5971 271.047C34.8095 271.393 31.3459 271.499 28.2062 271.365L85.6746 233.656C86.4232 233.656 87.4679 233.645 88.8087 233.623C91.1382 233.589 94.641 233.539 98.9984 233.489C118.892 233.254 156.266 232.936 177.718 233.371C181.975 233.455 185.595 233.572 188.327 233.723C191.025 233.874 192.868 234.058 193.606 234.293Z" fill="#BBCD67"/>
<path opacity="0.2" d="M98.9985 233.489L57.7198 268.231C54.3511 268.214 51.502 268.466 49.3735 269.119C45.9881 270.175 42.0999 270.745 38.5972 271.047L88.8087 233.623C91.1383 233.589 94.641 233.539 98.9985 233.489Z" fill="#3F6A3A"/>
<path opacity="0.2" d="M188.327 233.723L166.003 273.142C162.835 273.058 158.411 272.941 153.299 272.806L177.718 233.371C181.975 233.455 185.595 233.572 188.327 233.723Z" fill="#3F6A3A"/>
<path d="M168.567 249.276C186.634 248.673 182.478 252.427 176.377 255.779C170.293 259.114 141.836 259.55 134.076 260.689C126.316 261.829 109.674 260.187 103.44 259.985C97.222 259.801 71.6302 257.807 72.4849 252.946C73.0436 249.717 80.2055 249.338 93.9706 251.807C131.657 250.511 156.523 249.667 168.567 249.276Z" fill="#1B1B1B"/>
<path d="M182.662 210.897L183.701 211.668C184.137 212.003 184.371 212.556 184.271 213.109L183.869 215.439C182.913 216.528 181.556 216.545 179.645 216.981C177.332 217.5 172.355 216.729 163.204 214.014C154.037 211.299 154.238 208.215 152.026 204.428C149.797 200.623 150.065 193.635 149.897 188.875C149.73 184.115 148.64 179.741 146.059 178.786C145.07 178.417 143.931 179.272 142.892 180.478C142.02 181.517 141.232 182.774 140.679 183.746C140.59 183.903 140.506 184.048 140.428 184.182C140.227 184.048 140.059 183.881 139.925 183.679C139.892 183.646 139.864 183.607 139.841 183.562C137.629 180.126 140.462 167.909 141.987 162.646C146.981 165.244 152.31 167.691 152.612 181.316C152.824 190.947 153.886 199.925 155.796 208.249C166.009 212.707 172.366 214.746 174.869 214.366C177.372 213.986 178.969 213.478 179.662 212.841L178.824 211.869C178.791 211.802 178.807 211.735 178.874 211.701L181.824 210.763C182.109 210.662 182.427 210.712 182.662 210.897ZM134.78 158.423C119.629 167.775 107.864 161.054 103.775 157.97C107.864 155.792 111.501 153.009 113.244 151.602V144.144C113.529 144.127 113.847 144.077 114.149 144.01C114.099 146.172 114.333 151.367 117.752 151.987C120.786 152.54 124.071 147.646 125.797 144.596C126.618 143.943 127.322 142.987 127.791 141.915V152.959C129.652 154.82 132.132 156.697 134.78 158.423ZM94.1047 182.925C92.0935 179.238 91.6913 175.417 89.1104 177.864C86.5294 180.294 86.7305 194.791 86.2948 199.852C85.8758 204.914 84.2166 207.176 81.8702 209.439C79.5239 211.685 80.0435 210.495 78.2837 213.88C76.7083 216.88 71.3955 221.824 70.2391 222.863C71.9374 221.165 76.6971 214.266 84.5182 202.165C84.9093 196.802 85.4903 189.003 86.2612 178.769C87.25 165.831 91.9762 162.981 97.5739 160.685C98.5795 180.35 97.4231 187.763 94.1047 182.925Z" fill="#B6524A"/>
<path d="M96.8868 191.054L96.6689 191.07L90.9874 210.327C85.0322 216.908 80.0658 222.277 76.0882 226.433C75.0491 227.522 74.1106 228.494 73.3229 229.282C72.4011 230.187 71.6972 230.857 71.2782 231.193C69.8537 232.332 69.1665 232.081 68.5967 231.394C68.0437 230.707 67.6079 229.584 66.6861 228.93C64.8258 227.64 64.4739 228.226 65.1443 227.003C65.8146 225.779 64.5409 223.182 65.8817 222.662C67.1889 222.159 69.8537 222.997 70.0213 223.047C70.0324 223.047 70.0492 223.036 70.0716 223.014C70.0716 223.014 70.0883 222.997 70.1051 222.98C70.1498 222.947 70.1945 222.908 70.2392 222.863C71.3956 221.824 76.7083 216.88 78.2837 213.88C80.0435 210.495 79.5239 211.685 81.8703 209.439C84.2166 207.176 85.8758 204.914 86.2948 199.852C86.7305 194.791 86.5294 180.294 89.1104 177.864C91.6913 175.417 92.0936 179.238 94.1047 182.925C94.1047 182.925 94.1103 182.931 94.1215 182.942C94.2053 183.177 95.4957 186.679 96.8868 191.054Z" fill="#64312C"/>
<path d="M70.2391 222.863C70.1944 222.908 70.1497 222.947 70.105 222.98C70.1386 222.947 70.1833 222.908 70.2391 222.863Z" stroke="#1C1C1C" stroke-width="0.33519" stroke-linecap="round"/>
<path d="M183.869 215.439L183.802 215.791C182.517 217.455 180.891 218.751 178.925 219.679C177.919 220.148 176.796 220.5 175.573 220.567C174.115 220.651 170.981 220.349 167.344 219.88C166.874 219.824 166.4 219.763 165.919 219.696C163.238 219.344 160.372 218.941 157.774 218.539C154.433 218.036 151.405 217.556 148.69 217.098C145.528 212.439 143.445 202.796 142.439 188.171H142.339C142.651 186.484 142.914 185.093 143.126 183.998C141.936 184.601 141.065 184.618 140.428 184.182C140.506 184.048 140.59 183.903 140.679 183.746C141.232 182.774 142.02 181.517 142.892 180.478C143.931 179.272 145.07 178.417 146.059 178.786C148.64 179.741 149.73 184.115 149.897 188.875C150.065 193.634 149.797 200.623 152.026 204.428C154.238 208.215 154.037 211.299 163.204 214.014C172.355 216.729 177.332 217.5 179.645 216.981C181.556 216.545 182.913 216.528 183.869 215.439Z" fill="#64312C"/>
<path d="M132.249 132.513C132.048 135.429 131.462 137.758 130.741 139.585C129.802 141.965 128.629 143.49 127.791 144.362V141.915C128.043 141.345 128.21 140.725 128.311 140.121C128.763 137.138 130.138 134.44 131.361 133.015C131.361 133.004 131.367 132.999 131.378 132.999C131.428 132.948 131.814 132.613 132.249 132.513Z" fill="#B6524A"/>
<path d="M131.83 124.233C130.356 126.731 126.166 122.675 124.356 122.541C122.562 122.39 124.925 126.094 123.836 126.898C122.73 127.719 120.736 125.339 120.786 126.496C120.819 127.652 119.127 129.161 117.4 128.323C115.691 127.501 116.127 128.742 114.199 131.155C112.272 133.585 112.641 128.608 112.523 127.217C112.406 125.809 110.093 127.485 108.199 128.004C107.311 128.239 107.077 127.887 107.06 127.418C108.853 125.574 109.708 123.731 109.741 120.278C109.775 115.787 115.507 112.435 119.847 114.111C124.205 115.787 125.898 116.708 129.568 117.295C131.981 117.68 133.875 119.625 134.679 122.088C132.752 120.144 129.115 119.256 128.009 119.541C126.601 119.909 133.322 121.753 131.83 124.233Z" fill="#4C3133"/>
<path d="M130.741 139.585C131.462 137.758 132.048 135.429 132.249 132.513C132.735 132.378 133.288 132.58 133.339 133.954C133.456 136.116 132.367 139.401 130.741 139.585Z" fill="#B6524A"/>
<path fill-rule="evenodd" clip-rule="evenodd" d="M134.981 126.228C134.344 130.015 133.423 131.071 132.266 132.127C132.143 132.228 132.026 132.334 131.914 132.445C131.735 132.602 131.557 132.786 131.378 132.999C131.367 132.999 131.361 133.004 131.361 133.015C130.154 134.44 128.763 137.138 128.311 140.121C128.21 140.725 128.043 141.345 127.791 141.915C127.322 142.987 126.618 143.942 125.797 144.596C124.574 145.568 123.082 145.853 121.724 144.78C118.976 143.507 116.758 143.16 115.071 143.741C114.786 143.842 114.468 143.942 114.149 144.01C113.847 144.077 113.529 144.127 113.244 144.144C111.199 144.328 109.507 143.356 111.652 139.132C105.395 134.172 103.267 130.825 105.267 129.094C105.937 128.507 106.54 127.971 107.06 127.418C107.077 127.887 107.311 128.239 108.199 128.004C108.585 127.904 109.004 127.736 109.406 127.568C109.384 127.412 109.367 127.25 109.356 127.082C109.322 126.63 109.339 126.094 109.607 125.708C109.909 125.256 110.378 125.306 110.864 125.272C111.434 125.222 111.669 124.77 111.82 124.267C111.836 124.217 111.87 124.183 111.903 124.166C111.825 123.999 111.769 123.809 111.736 123.596C112.658 125.088 114.551 124.401 115.959 123.848C117.769 123.11 116.831 123.077 118.356 123.999C119.395 124.602 120.702 125.524 121.272 124.803C120.534 125.339 119.73 125.406 118.942 125.691C117.853 126.094 116.747 126.881 115.54 126.177C114.333 125.49 114.518 125.574 112.875 125.122C112.54 125.021 112.272 124.82 112.088 124.518C111.97 124.87 111.803 125.205 111.484 125.423C111.065 125.691 110.579 125.507 110.144 125.675C109.691 125.859 109.674 126.479 109.674 126.898C109.685 127.077 109.702 127.256 109.725 127.434C111.166 126.814 112.44 126.177 112.523 127.216C112.641 128.608 112.272 133.585 114.199 131.155C116.127 128.742 115.691 127.501 117.4 128.323C119.127 129.161 120.819 127.652 120.786 126.496C120.736 125.339 122.73 127.719 123.836 126.898C124.925 126.094 122.562 122.39 124.356 122.541C126.166 122.675 130.356 126.73 131.83 124.233C133.255 121.853 127.154 120.077 127.875 119.608C127.451 119.317 127.009 119.06 126.551 118.837C126.216 118.68 125.875 118.541 125.529 118.418C125.21 118.3 124.892 118.2 124.557 118.183C124.205 118.183 123.937 118.284 123.736 118.585C123.585 118.82 123.451 119.038 123.166 119.155C122.831 119.289 122.462 119.256 122.11 119.155C122.255 119.278 122.423 119.407 122.613 119.541C124.121 120.513 122.981 122.474 122.076 123.898C121.825 124.3 121.557 123.412 121.272 123.63C121.557 123.261 121.657 122.775 121.456 122.222C120.819 120.546 119.898 120.664 120.065 118.954C120.199 117.546 119.227 117.077 118.875 116.96C119.177 116.909 119.495 116.909 119.847 117.027C120.769 117.295 121.004 117.932 121.574 118.602C121.585 118.602 121.596 118.608 121.607 118.619C122.127 118.853 122.965 119.155 123.35 118.585C123.534 118.317 123.652 118.083 123.97 117.948C124.238 117.831 124.54 117.831 124.825 117.881C125.529 117.982 126.233 118.3 126.853 118.619C127.367 118.876 127.858 119.172 128.328 119.507C129.685 119.407 132.903 120.295 134.68 122.088C135.099 123.362 135.233 124.786 134.981 126.228Z" fill="#322731"/>
<path d="M118.356 123.999C116.831 123.077 117.769 123.11 115.959 123.848C114.551 124.401 112.658 125.088 111.736 123.596C111.518 122.323 111.92 120.462 112.926 118.636C114.015 116.675 115.724 116.893 116.764 117.261C117.25 117.446 117.786 117.429 118.255 117.194C118.423 117.094 118.641 117.01 118.875 116.96C119.227 117.077 120.199 117.546 120.065 118.954C119.898 120.664 120.819 120.546 121.456 122.222C122.076 123.898 119.898 124.92 118.356 123.999Z" fill="#593C3F"/>
<path d="M125.797 144.596C124.071 147.646 120.786 152.54 117.752 151.987C114.333 151.367 114.099 146.172 114.149 144.01C114.468 143.942 114.786 143.842 115.071 143.741C116.758 143.16 118.976 143.507 121.724 144.78C123.082 145.853 124.573 145.568 125.797 144.596Z" fill="#64312C"/>
<path fill-rule="evenodd" clip-rule="evenodd" d="M146.244 233.003C145.741 233.539 145.149 234.07 144.467 234.595C144.378 234.662 144.288 234.729 144.199 234.796C143.847 235.064 143.461 235.315 143.076 235.567C142.975 235.623 142.88 235.684 142.791 235.751C142.579 235.885 142.361 236.014 142.137 236.137C141.936 236.26 141.73 236.377 141.517 236.489C141.327 236.589 141.132 236.69 140.931 236.79C140.462 237.036 139.975 237.271 139.473 237.494C139.305 237.572 139.138 237.651 138.97 237.729C138.869 237.773 138.763 237.818 138.651 237.863C138.439 237.963 138.221 238.058 137.998 238.148C137.987 238.148 137.976 238.148 137.964 238.148C137.713 238.248 137.462 238.366 137.21 238.449C137.009 238.528 136.808 238.606 136.607 238.684C136.495 238.729 136.378 238.768 136.255 238.801C136.031 238.891 135.797 238.975 135.551 239.053C135.249 239.164 134.936 239.271 134.612 239.371C134.389 239.449 134.16 239.522 133.925 239.589C133.836 239.623 133.747 239.651 133.657 239.673C133.4 239.751 133.143 239.824 132.886 239.891C132.585 239.98 132.277 240.07 131.964 240.159C131.964 240.159 131.959 240.159 131.948 240.159C131.635 240.248 131.316 240.332 130.992 240.41C130.668 240.5 130.339 240.583 130.004 240.662C129.713 240.729 129.417 240.796 129.115 240.863C129.015 240.885 128.92 240.907 128.83 240.93C128.21 241.064 127.557 241.198 126.903 241.315C126.881 241.326 126.858 241.332 126.836 241.332C126.501 241.399 126.166 241.461 125.83 241.516C125.104 241.65 124.361 241.773 123.601 241.885C123.132 241.952 122.657 242.019 122.177 242.086C121.451 242.187 120.713 242.276 119.965 242.354C119.216 242.433 118.451 242.505 117.669 242.572C117.255 242.606 116.842 242.639 116.428 242.673C115.657 242.729 114.875 242.773 114.082 242.807C113.535 242.84 112.981 242.863 112.423 242.874C112.032 242.896 111.635 242.907 111.233 242.907C110.786 242.919 110.339 242.93 109.892 242.941C109.49 242.941 109.099 242.941 108.719 242.941C108.551 242.941 108.384 242.935 108.216 242.924C107.937 242.924 107.658 242.919 107.378 242.907C106.686 242.885 106.026 242.852 105.401 242.807C105.166 242.796 104.937 242.779 104.713 242.757C104.49 242.745 104.267 242.729 104.043 242.706C103.607 242.662 103.183 242.611 102.769 242.555C102.591 242.533 102.417 242.511 102.25 242.488C101.434 242.377 100.68 242.243 99.9873 242.086C99.842 242.053 99.7024 242.019 99.5683 241.986C99.5348 241.974 99.4957 241.963 99.451 241.952C99.3504 241.93 99.2499 241.907 99.1493 241.885C99.0934 241.874 99.0376 241.857 98.9817 241.835C98.7806 241.79 98.5851 241.74 98.3951 241.684C98.2946 241.65 98.1996 241.617 98.1102 241.583C97.9426 241.539 97.7862 241.488 97.6409 241.433C97.5069 241.399 97.3896 241.366 97.2722 241.315C95.8477 240.812 94.7751 240.226 93.9539 239.639C93.9092 239.606 93.8645 239.572 93.8198 239.539C93.7304 239.472 93.6466 239.405 93.5684 239.338C93.317 239.137 93.0991 238.935 92.898 238.734C92.7639 238.6 92.641 238.466 92.5293 238.332C92.5125 238.315 92.4958 238.282 92.4623 238.248C92.3282 238.081 92.2109 237.924 92.1103 237.779C92.0656 237.712 92.0209 237.639 91.9762 237.561C91.9315 237.494 91.8924 237.421 91.8589 237.343C91.7081 237.075 91.6075 236.824 91.5405 236.623C91.5181 236.567 91.5014 236.516 91.4902 236.472C91.4735 236.422 91.4735 236.371 91.4567 236.321C91.4399 236.271 91.4399 236.22 91.4232 236.187C91.412 236.131 91.4064 236.086 91.4064 236.053C91.3952 236.008 91.3896 235.975 91.3896 235.952C91.4343 235.84 91.5014 235.684 91.5908 235.483C91.8086 235.014 92.1773 234.226 92.7639 233.12C92.9818 232.718 93.4511 231.461 94.0544 229.718C94.2108 229.271 94.3728 228.796 94.5404 228.293C95.3114 226.014 96.2164 223.198 97.0711 220.299C98.4957 215.522 99.8197 210.578 100.222 207.729C100.244 207.539 100.267 207.361 100.289 207.193C100.641 203.858 98.6968 196.718 96.8868 191.053C95.4957 186.679 94.2052 183.177 94.1214 182.942C94.1103 182.931 94.1047 182.925 94.1047 182.925C97.4231 187.763 98.5795 180.35 97.5739 160.685C98.613 160.25 99.6856 159.847 100.758 159.395C101.781 158.976 102.786 158.49 103.775 157.97C107.864 161.054 119.629 167.775 134.78 158.423C136.858 159.797 139.02 161.071 141.082 162.177C141.383 162.333 141.685 162.49 141.987 162.646C140.462 167.909 137.629 180.126 139.841 183.562C139.864 183.607 139.892 183.646 139.925 183.679C140.059 183.88 140.227 184.048 140.428 184.182C141.065 184.618 141.936 184.601 143.126 183.998C142.914 185.093 142.651 186.484 142.339 188.171C141.417 193.165 139.925 201.578 139.188 207.729C138.936 209.891 138.769 211.768 138.752 213.126C138.719 215.187 139.339 217.735 140.244 220.299C140.914 222.243 141.752 224.204 142.573 225.98C143.244 227.405 143.897 228.712 144.484 229.818C144.802 230.422 145.087 230.958 145.339 231.41C145.372 231.477 145.406 231.539 145.439 231.595C145.629 231.93 145.785 232.209 145.908 232.433C145.964 232.533 146.02 232.623 146.076 232.701C146.098 232.746 146.121 232.785 146.143 232.818C146.154 232.841 146.165 232.857 146.177 232.868C146.21 232.924 146.232 232.969 146.244 233.003ZM139.406 185.238C139.417 185.204 139.428 185.171 139.439 185.137C139.428 185.171 139.417 185.204 139.406 185.238ZM106.088 205.182C106.037 205.131 105.97 205.098 105.92 205.064C105.976 205.098 106.032 205.137 106.088 205.182ZM106.306 205.467C106.261 205.388 106.216 205.321 106.172 205.266C106.216 205.321 106.261 205.388 106.306 205.467ZM131.981 206.221C131.959 206.534 131.953 206.852 131.964 207.176C131.964 206.852 131.97 206.534 131.981 206.221ZM132.367 203.623C132.288 203.902 132.227 204.182 132.182 204.461C132.238 204.182 132.3 203.902 132.367 203.623Z" fill="#FB7762"/>
<path d="M94.0209 255.293C94.7248 256.868 85.4233 253.365 81.9205 250.03C81.2837 249.427 80.5462 248.907 79.7753 248.505C79.4736 248.338 79.1664 248.187 78.8535 248.053C78.563 247.93 78.2725 247.812 77.982 247.701C77.9373 247.634 77.8927 247.567 77.848 247.5C77.2781 246.712 76.6413 245.907 75.8703 245.153C72.9877 242.237 69.133 238.332 68.5129 234.142C68.3788 233.237 68.3956 232.316 68.5967 231.394C69.1665 232.081 69.8537 232.332 71.2782 231.193C71.6972 230.857 72.4011 230.187 73.3229 229.282C74.1106 228.494 75.0491 227.522 76.0882 226.433C82.1719 226.282 90.5684 228.645 94.0544 229.718C93.4511 231.461 92.9818 232.718 92.7639 233.12C92.1774 234.226 91.8086 235.014 91.5908 235.483C91.5014 235.684 91.4343 235.841 91.3897 235.952C91.3897 235.975 91.3952 236.008 91.4064 236.053C91.4064 236.086 91.412 236.131 91.4232 236.187C91.4399 236.22 91.4399 236.271 91.4567 236.321C91.4735 236.371 91.4735 236.422 91.4902 236.472C91.5014 236.517 91.5181 236.567 91.5405 236.623C91.6075 236.824 91.7081 237.075 91.8589 237.343C91.8924 237.422 91.9315 237.494 91.9762 237.561C92.0209 237.639 92.0656 237.712 92.1103 237.779C92.2109 237.924 92.3282 238.081 92.4623 238.248C92.7807 239.505 93.3505 241.483 94.0209 243.075C95.0935 245.589 93.317 253.734 94.0209 255.293Z" fill="#145769"/>
<path d="M165.634 232.098C159.098 236.086 159.836 238.433 162.534 241.986C163.673 243.477 163.774 245.304 163.539 246.947C163.07 247.667 162.433 248.421 161.562 249.142C161.506 249.187 161.456 249.231 161.411 249.276C161.277 249.377 161.176 249.46 161.109 249.527C161.053 249.561 161.014 249.589 160.992 249.611C160.238 250.198 159.316 250.768 158.21 251.287C153.07 253.768 147.953 255.125 142.858 255.36C143.394 252.176 143.769 248.891 143.981 245.505C144.249 241.399 141.853 238.315 142.137 236.137C142.361 236.014 142.579 235.885 142.791 235.751C142.88 235.684 142.975 235.623 143.076 235.567C143.461 235.315 143.847 235.064 144.199 234.796C144.288 234.729 144.378 234.662 144.467 234.595C145.149 234.07 145.741 233.539 146.244 233.003C146.232 232.969 146.21 232.924 146.177 232.869C146.165 232.857 146.154 232.841 146.143 232.818C146.121 232.785 146.098 232.746 146.076 232.701C146.02 232.623 145.964 232.533 145.908 232.433C148.439 231.746 152.026 230.975 154.657 231.226C159.132 231.662 162.45 231.327 163.74 227.154C164.478 224.74 165.936 223.031 167.159 221.573C169.07 225.109 169.472 229.751 165.634 232.098Z" fill="#145769"/>
<path d="M163.539 246.946C163.495 247.181 163.45 247.41 163.405 247.634C163.126 248.93 162.707 250.075 162.148 251.069C153.69 258.533 138.339 260.851 116.093 258.025C103.188 261.443 87.5015 254.287 84.0658 254.304C81.334 254.304 80.3451 251.103 77.9821 247.701C79.3899 248.203 80.7977 248.958 81.9205 250.03C85.4233 253.365 94.7248 256.868 94.0209 255.293C93.317 253.734 95.0935 245.589 94.0209 243.075C93.3505 241.483 92.7807 239.505 92.4623 238.248C92.4958 238.282 92.5126 238.315 92.5293 238.332C92.641 238.466 92.764 238.6 92.898 238.734C93.0991 238.935 93.317 239.137 93.5684 239.338C93.6466 239.405 93.7304 239.472 93.8198 239.539C93.8645 239.572 93.9092 239.606 93.9539 239.639C94.7751 240.226 95.8477 240.812 97.2723 241.315C97.3896 241.366 97.5069 241.399 97.641 241.433C97.7862 241.488 97.9426 241.539 98.1102 241.583C98.1996 241.617 98.2946 241.65 98.3951 241.684C98.5851 241.74 98.7806 241.79 98.9817 241.835C99.0376 241.857 99.0935 241.874 99.1493 241.885C99.2499 241.907 99.3504 241.93 99.451 241.952C99.4957 241.963 99.5348 241.974 99.5683 241.986C99.7024 242.019 99.8421 242.053 99.9873 242.086C100.68 242.243 101.434 242.377 102.25 242.488C102.417 242.511 102.591 242.533 102.769 242.555C103.183 242.611 103.607 242.662 104.043 242.706C104.267 242.729 104.49 242.745 104.713 242.757C104.937 242.779 105.166 242.796 105.401 242.807C106.026 242.852 106.686 242.885 107.378 242.907C107.658 242.919 107.937 242.924 108.216 242.924C108.384 242.935 108.551 242.941 108.719 242.941C109.099 242.941 109.49 242.941 109.892 242.941C110.339 242.93 110.786 242.919 111.233 242.907C111.635 242.907 112.032 242.896 112.423 242.874C112.982 242.863 113.535 242.84 114.082 242.807C114.875 242.773 115.657 242.729 116.428 242.673C116.842 242.639 117.255 242.606 117.669 242.572C118.451 242.505 119.216 242.433 119.965 242.354C120.713 242.276 121.451 242.187 122.177 242.086C122.657 242.019 123.132 241.952 123.601 241.885C124.361 241.773 125.104 241.65 125.83 241.516C126.166 241.461 126.501 241.399 126.836 241.332C126.858 241.332 126.881 241.326 126.903 241.315C127.557 241.198 128.21 241.064 128.83 240.93C128.92 240.907 129.015 240.885 129.115 240.863C129.417 240.796 129.713 240.729 130.004 240.662C130.339 240.583 130.668 240.5 130.992 240.41C131.316 240.332 131.635 240.248 131.948 240.159C131.959 240.159 131.964 240.159 131.964 240.159C132.277 240.069 132.585 239.98 132.886 239.891C133.143 239.824 133.4 239.751 133.657 239.673C133.747 239.651 133.836 239.623 133.925 239.589C134.16 239.522 134.389 239.449 134.612 239.371C134.936 239.271 135.249 239.164 135.551 239.053C135.797 238.975 136.031 238.891 136.255 238.801C136.378 238.768 136.495 238.729 136.607 238.684C136.808 238.606 137.009 238.528 137.21 238.449C137.462 238.366 137.713 238.248 137.964 238.148C137.976 238.148 137.987 238.148 137.998 238.148C138.221 238.058 138.439 237.963 138.652 237.863C138.763 237.818 138.869 237.773 138.97 237.729C139.138 237.651 139.305 237.572 139.473 237.494C139.976 237.271 140.462 237.036 140.931 236.79C141.132 236.69 141.327 236.589 141.517 236.489C141.73 236.377 141.936 236.259 142.137 236.137C141.853 238.315 144.249 241.399 143.981 245.505C143.769 248.891 143.394 252.175 142.858 255.36C147.953 255.125 153.07 253.768 158.21 251.287C159.316 250.768 160.238 250.198 160.992 249.611C161.014 249.589 161.053 249.561 161.109 249.527C161.21 249.449 161.31 249.365 161.411 249.276C161.456 249.231 161.506 249.187 161.562 249.142C162.433 248.421 163.07 247.667 163.539 246.946Z" fill="#15404D"/>
<path d="M94.0544 229.718C93.4511 231.461 92.9818 232.718 92.7639 233.12C92.1773 234.226 91.8086 235.014 91.5907 235.483C88.021 234.109 79.7753 230.975 76.5239 230.003C75.4011 229.667 74.2949 229.45 73.3229 229.282C74.1106 228.494 75.0491 227.522 76.0882 226.433C82.1719 226.282 90.5684 228.645 94.0544 229.718Z" fill="#15404D"/>
<path d="M167.159 221.573C165.936 223.031 164.478 224.74 163.74 227.154C162.45 231.327 159.132 231.662 154.657 231.226C152.026 230.975 148.439 231.746 145.908 232.433C145.785 232.209 145.629 231.93 145.439 231.595C145.406 231.539 145.372 231.478 145.339 231.41C145.087 230.958 144.802 230.422 144.484 229.818C146.797 227.522 151.255 223.282 155.227 220.299C156.115 219.645 156.97 219.042 157.774 218.539C160.372 218.941 163.238 219.344 165.919 219.696C166.042 219.852 166.165 220.014 166.288 220.182C166.31 220.226 166.338 220.265 166.372 220.299C166.651 220.701 166.914 221.126 167.159 221.573Z" fill="#15404D"/>
<path d="M77.848 247.5C75.9709 246.444 73.4067 244.684 70.6749 241.969C67.1722 238.5 67.6917 235.701 68.5129 234.142C69.133 238.332 72.9877 242.237 75.8703 245.153C76.6413 245.908 77.2781 246.712 77.848 247.5Z" fill="#B6524A"/>
<path d="M181.304 228.93C178.623 234.511 168.182 243.628 163.405 247.634C163.45 247.41 163.495 247.181 163.539 246.947C163.774 245.304 163.673 243.477 162.534 241.986C159.835 238.433 159.098 236.086 165.634 232.098C169.472 229.751 169.07 225.109 167.159 221.573C166.914 221.126 166.651 220.701 166.372 220.299C166.338 220.265 166.31 220.226 166.288 220.182C166.634 220.07 166.986 219.969 167.344 219.88C170.981 220.349 174.115 220.651 175.573 220.567C176.796 220.5 177.919 220.148 178.925 219.679C181.288 220.818 183.885 223.55 181.304 228.93Z" fill="#B6524A"/>
<path d="M179.662 212.841L180.818 212.271C181.02 211.556 181.383 211.154 181.908 211.064L182.26 212.657C182.327 212.958 182.21 213.26 181.975 213.461C181.489 213.863 180.617 214.517 180.064 214.701" stroke="#64312C" stroke-width="0.33519" stroke-linecap="round"/>
<path d="M229.17 112.301C227.913 112.954 226.572 113.641 225.131 113.641C223.974 113.641 222.784 113.189 222.131 112.2C222.013 112.016 222.298 111.848 222.416 112.032C223.019 112.954 224.175 113.34 225.248 113.306C226.589 113.273 227.829 112.619 229.002 112.016C229.186 111.915 229.354 112.2 229.17 112.301Z" fill="#4A4947"/>
<path d="M234.885 114.53C234.868 114.613 234.801 114.697 234.717 114.697C234.633 114.697 234.533 114.613 234.549 114.53C234.583 114.06 234.382 113.574 233.996 113.289C233.929 113.239 233.896 113.139 233.929 113.055C233.98 112.988 234.097 112.954 234.164 113.004C234.65 113.34 234.935 113.926 234.885 114.53Z" fill="#4A4947"/>
<path d="M104.563 163.367C107.613 165.981 118.976 174.378 130.942 165.83C131.596 165.361 132.434 165.277 133.138 165.629L135.149 166.601C135.987 167.02 136.473 167.925 136.322 168.864C135.618 173.221 134.11 185.456 138.601 188.137C139.557 188.707 139.925 189.914 139.523 190.97C137.746 195.612 135.031 205.718 134.78 208.266C134.328 213.076 135.065 214.768 136.171 218.539C137.076 221.656 143.512 231.98 142.808 233.489C142.339 234.477 130.104 236.321 125.73 237.595C121.356 238.868 113.73 242.354 108.786 240.829C103.842 239.287 95.3784 238.064 95.3784 234.779C95.3784 234.058 102.97 221.103 104.663 215.657C106.121 210.997 100.155 193.903 98.6633 188.64C98.4957 188.087 98.0264 185.456 98.546 185.188C99.8867 184.501 101.295 181.501 100.155 165.378C100.088 164.439 100.674 163.585 101.579 163.317L102.686 162.981C103.339 162.78 104.043 162.931 104.563 163.367Z" fill="#EA6557"/>
<defs>
<filter id="filter0_i_144_76" x="107" y="0" width="266" height="277.27" filterUnits="userSpaceOnUse" color-interpolation-filters="sRGB">
<feFlood flood-opacity="0" result="BackgroundImageFix"/>
<feBlend mode="normal" in="SourceGraphic" in2="BackgroundImageFix" result="shape"/>
<feColorMatrix in="SourceAlpha" type="matrix" values="0 0 0 0 0 0 0 0 0 0 0 0 0 0 0 0 0 0 127 0" result="hardAlpha"/>
<feOffset dx="10" dy="10"/>
<feGaussianBlur stdDeviation="10"/>
<feComposite in2="hardAlpha" operator="arithmetic" k2="-1" k3="1"/>
<feColorMatrix type="matrix" values="0 0 0 0 0 0 0 0 0 0 0 0 0 0 0 0 0 0 0.25 0"/>
<feBlend mode="normal" in2="shape" result="effect1_innerShadow_144_76"/>
</filter>
</defs>
</svg>
