<svg width="13" height="13" viewBox="0 0 13 13" fill="none" xmlns="http://www.w3.org/2000/svg">
<path d="M6.90624 0.541626C6.90624 0.31726 6.72436 0.135376 6.49999 0.135376C6.27562 0.135376 6.09374 0.31726 6.09374 0.541626H6.90624ZM6.09374 1.62496C6.09374 1.84933 6.27562 2.03121 6.49999 2.03121C6.72436 2.03121 6.90624 1.84933 6.90624 1.62496H6.09374ZM6.90624 11.375C6.90624 11.1506 6.72436 10.9687 6.49999 10.9687C6.27562 10.9687 6.09374 11.1506 6.09374 11.375H6.90624ZM6.09374 12.4583C6.09374 12.6827 6.27562 12.8645 6.49999 12.8645C6.72436 12.8645 6.90624 12.6827 6.90624 12.4583H6.09374ZM12.4583 6.90621C12.6827 6.90621 12.8646 6.72433 12.8646 6.49996C12.8646 6.27559 12.6827 6.09371 12.4583 6.09371V6.90621ZM11.375 6.09371C11.1506 6.09371 10.9687 6.27559 10.9687 6.49996C10.9687 6.72433 11.1506 6.90621 11.375 6.90621V6.09371ZM1.62499 6.90621C1.84936 6.90621 2.03124 6.72433 2.03124 6.49996C2.03124 6.27559 1.84936 6.09371 1.62499 6.09371V6.90621ZM0.541656 6.09371C0.317291 6.09371 0.135406 6.27559 0.135406 6.49996C0.135406 6.72433 0.317291 6.90621 0.541656 6.90621V6.09371ZM11.0004 2.57404C11.1591 2.41539 11.1591 2.15817 11.0004 1.99952C10.8418 1.84087 10.5846 1.84087 10.4259 1.99952L11.0004 2.57404ZM9.65987 2.76555C9.50122 2.9242 9.50122 3.18143 9.65987 3.34008C9.81852 3.49873 10.0757 3.49873 10.2344 3.34008L9.65987 2.76555ZM3.34011 10.2344C3.49876 10.0757 3.49876 9.81849 3.34011 9.65984C3.18146 9.50119 2.92423 9.50119 2.76558 9.65984L3.34011 10.2344ZM1.99955 10.4259C1.8409 10.5845 1.8409 10.8417 1.99955 11.0004C2.1582 11.159 2.41542 11.159 2.57407 11.0004L1.99955 10.4259ZM10.4259 11.0004C10.5846 11.159 10.8418 11.159 11.0004 11.0004C11.1591 10.8417 11.1591 10.5845 11.0004 10.4259L10.4259 11.0004ZM10.2344 9.65984C10.0757 9.50119 9.81852 9.50119 9.65987 9.65984C9.50122 9.81849 9.50122 10.0757 9.65987 10.2344L10.2344 9.65984ZM2.76558 3.34008C2.92423 3.49873 3.18146 3.49873 3.34011 3.34008C3.49876 3.18143 3.49876 2.9242 3.34011 2.76555L2.76558 3.34008ZM2.57407 1.99952C2.41542 1.84087 2.1582 1.84087 1.99955 1.99952C1.8409 2.15817 1.8409 2.41539 1.99955 2.57404L2.57407 1.99952ZM9.34374 6.49996C9.34374 8.07052 8.07055 9.34371 6.49999 9.34371V10.1562C8.51928 10.1562 10.1562 8.51925 10.1562 6.49996H9.34374ZM6.49999 9.34371C4.92943 9.34371 3.65624 8.07052 3.65624 6.49996H2.84374C2.84374 8.51925 4.4807 10.1562 6.49999 10.1562V9.34371ZM3.65624 6.49996C3.65624 4.9294 4.92943 3.65621 6.49999 3.65621V2.84371C4.4807 2.84371 2.84374 4.48067 2.84374 6.49996H3.65624ZM6.49999 3.65621C8.07055 3.65621 9.34374 4.9294 9.34374 6.49996H10.1562C10.1562 4.48067 8.51928 2.84371 6.49999 2.84371V3.65621ZM6.09374 0.541626V1.62496H6.90624V0.541626H6.09374ZM6.09374 11.375V12.4583H6.90624V11.375H6.09374ZM12.4583 6.09371H11.375V6.90621H12.4583V6.09371ZM1.62499 6.09371H0.541656V6.90621H1.62499V6.09371ZM10.4259 1.99952L9.65987 2.76555L10.2344 3.34008L11.0004 2.57404L10.4259 1.99952ZM2.76558 9.65984L1.99955 10.4259L2.57407 11.0004L3.34011 10.2344L2.76558 9.65984ZM11.0004 10.4259L10.2344 9.65984L9.65987 10.2344L10.4259 11.0004L11.0004 10.4259ZM3.34011 2.76555L2.57407 1.99952L1.99955 2.57404L2.76558 3.34008L3.34011 2.76555Z" fill="#2D264B"/>
</svg>
