<svg width="51" height="39" viewBox="0 0 51 39" fill="none" xmlns="http://www.w3.org/2000/svg">
<path d="M9.54891 29.974C8.6211 27.6873 8.13163 25.218 8.13163 22.6684C8.13163 17.496 10.148 12.6305 13.8008 8.97771C17.4609 5.31761 22.3191 3.30857 27.4915 3.30857C32.6638 3.30857 37.5293 5.32491 41.1821 8.97771C43.0451 10.8406 44.477 13.0104 45.4413 15.3774L47.5745 14.508C46.5006 11.8634 44.8934 9.43066 42.8113 7.34856C38.7202 3.25743 33.2775 1 27.4915 1C21.7054 1 16.2628 3.25012 12.1716 7.34856C8.08049 11.4397 5.82306 16.8824 5.82306 22.6684C5.82306 25.5176 6.37098 28.2791 7.40837 30.8361L9.54891 29.974Z" fill="#F5DA8D"/>
<path d="M9.54891 29.974C8.6211 27.6873 8.13163 25.218 8.13163 22.6684C8.13163 17.496 10.148 12.6305 13.8008 8.97771C17.4609 5.31761 22.3191 3.30857 27.4915 3.30857C32.6638 3.30857 37.5293 5.32491 41.1821 8.97771C43.0451 10.8406 44.477 13.0104 45.4413 15.3774L47.5745 14.508C46.5006 11.8634 44.8934 9.43066 42.8113 7.34856C38.7202 3.25743 33.2775 1 27.4915 1C21.7054 1 16.2628 3.25012 12.1716 7.34856C8.08049 11.4397 5.82306 16.8824 5.82306 22.6684C5.82306 25.5176 6.37098 28.2791 7.40837 30.8361L9.54891 29.974Z" stroke="#3D0938" stroke-width="0.292224" stroke-miterlimit="10" stroke-linecap="round" stroke-linejoin="round"/>
<path d="M11.6822 29.112C10.864 27.0956 10.4329 24.9185 10.4329 22.6757C10.4329 18.117 12.2082 13.836 15.43 10.6069C18.6517 7.38512 22.9401 5.60986 27.4988 5.60986C32.0575 5.60986 36.3386 7.38512 39.5676 10.6069C41.2114 12.2506 42.4753 14.1647 43.3154 16.2468L45.4487 15.3774C44.4843 13.0104 43.0524 10.8334 41.1895 8.97774C37.5294 5.31763 32.6712 3.30859 27.4988 3.30859C22.3264 3.30859 17.4609 5.32494 13.8081 8.97774C10.148 12.6378 8.13898 17.4961 8.13898 22.6684C8.13898 25.2108 8.62845 27.6801 9.55626 29.974L11.6822 29.112Z" fill="#E38980"/>
<path d="M11.6822 29.112C10.864 27.0956 10.4329 24.9185 10.4329 22.6757C10.4329 18.117 12.2082 13.836 15.43 10.6069C18.6517 7.38512 22.9401 5.60986 27.4988 5.60986C32.0575 5.60986 36.3386 7.38512 39.5676 10.6069C41.2114 12.2506 42.4753 14.1647 43.3154 16.2468L45.4487 15.3774C44.4843 13.0104 43.0524 10.8334 41.1895 8.97774C37.5294 5.31763 32.6712 3.30859 27.4988 3.30859C22.3264 3.30859 17.4609 5.32494 13.8081 8.97774C10.148 12.6378 8.13898 17.4961 8.13898 22.6684C8.13898 25.2108 8.62845 27.6801 9.55626 29.974L11.6822 29.112Z" stroke="#3D0938" stroke-width="0.292224" stroke-miterlimit="10" stroke-linecap="round" stroke-linejoin="round"/>
<path d="M13.8154 28.2426C13.1068 26.4966 12.7342 24.6117 12.7342 22.6757C12.7342 18.7307 14.2684 15.0268 17.0591 12.236C19.8498 9.4453 23.5538 7.91113 27.4988 7.91113C31.4438 7.91113 35.1478 9.4453 37.9385 12.236C39.3558 13.6533 40.4516 15.3117 41.1822 17.1162L43.3154 16.2468C42.468 14.1574 41.2041 12.2433 39.5676 10.6069C36.3459 7.38512 32.0575 5.60986 27.4988 5.60986C22.9401 5.60986 18.659 7.38512 15.43 10.6069C12.2082 13.8287 10.4329 18.117 10.4329 22.6757C10.4329 24.9186 10.864 27.0956 11.6822 29.112L13.8154 28.2426Z" fill="#CC5F7E"/>
<path d="M13.8154 28.2426C13.1068 26.4966 12.7342 24.6117 12.7342 22.6757C12.7342 18.7307 14.2684 15.0268 17.0591 12.236C19.8498 9.4453 23.5538 7.91113 27.4988 7.91113C31.4438 7.91113 35.1478 9.4453 37.9385 12.236C39.3558 13.6533 40.4516 15.3117 41.1822 17.1162L43.3154 16.2468C42.468 14.1574 41.2041 12.2433 39.5676 10.6069C36.3459 7.38512 32.0575 5.60986 27.4988 5.60986C22.9401 5.60986 18.659 7.38512 15.43 10.6069C12.2082 13.8287 10.4329 18.117 10.4329 22.6757C10.4329 24.9186 10.864 27.0956 11.6822 29.112L13.8154 28.2426Z" stroke="#3D0938" stroke-width="0.292224" stroke-miterlimit="10" stroke-linecap="round" stroke-linejoin="round"/>
<path d="M18.0819 26.5112C17.5997 25.3277 17.3367 24.0346 17.3367 22.6757C17.3367 17.0651 21.8881 12.5137 27.4988 12.5137C31.758 12.5137 35.4035 15.1364 36.9157 18.8549L39.049 17.9856C38.428 16.4587 37.5075 15.0633 36.3094 13.8652C33.957 11.5128 30.8229 10.2124 27.4988 10.2124C24.1675 10.2124 21.0407 11.5055 18.6883 13.8652C16.3359 16.2176 15.0355 19.3517 15.0355 22.6757C15.0355 24.3122 15.3496 25.9048 15.9487 27.3806L18.0819 26.5112Z" fill="#36C2E3"/>
<path d="M18.0819 26.5112C17.5997 25.3277 17.3367 24.0346 17.3367 22.6757C17.3367 17.0651 21.8881 12.5137 27.4988 12.5137C31.758 12.5137 35.4035 15.1364 36.9157 18.8549L39.049 17.9856C38.428 16.4587 37.5075 15.0633 36.3094 13.8652C33.957 11.5128 30.8229 10.2124 27.4988 10.2124C24.1675 10.2124 21.0407 11.5055 18.6883 13.8652C16.3359 16.2176 15.0355 19.3517 15.0355 22.6757C15.0355 24.3122 15.3496 25.9048 15.9487 27.3806L18.0819 26.5112Z" stroke="#3D0938" stroke-width="0.292224" stroke-miterlimit="10" stroke-linecap="round" stroke-linejoin="round"/>
<path d="M15.9487 27.3732C15.3496 25.8975 15.0355 24.3122 15.0355 22.6684C15.0355 19.3371 16.3285 16.2103 18.6883 13.8579C21.0407 11.5055 24.1748 10.2051 27.4988 10.2051C30.8301 10.2051 33.9569 11.4982 36.3093 13.8579C37.5075 15.056 38.428 16.4587 39.0489 17.9782L41.1822 17.1089C40.4516 15.3044 39.3558 13.646 37.9385 12.2287C35.1478 9.43798 31.4438 7.90381 27.4988 7.90381C23.5538 7.90381 19.8498 9.43798 17.0591 12.2287C14.2684 15.0195 12.7342 18.7234 12.7342 22.6684C12.7342 24.6117 13.1068 26.4892 13.8154 28.2353L15.9487 27.3732Z" fill="#6D4F8D"/>
<path d="M15.9487 27.3732C15.3496 25.8975 15.0355 24.3122 15.0355 22.6684C15.0355 19.3371 16.3285 16.2103 18.6883 13.8579C21.0407 11.5055 24.1748 10.2051 27.4988 10.2051C30.8301 10.2051 33.9569 11.4982 36.3093 13.8579C37.5075 15.056 38.428 16.4587 39.0489 17.9782L41.1822 17.1089C40.4516 15.3044 39.3558 13.646 37.9385 12.2287C35.1478 9.43798 31.4438 7.90381 27.4988 7.90381C23.5538 7.90381 19.8498 9.43798 17.0591 12.2287C14.2684 15.0195 12.7342 18.7234 12.7342 22.6684C12.7342 24.6117 13.1068 26.4892 13.8154 28.2353L15.9487 27.3732Z" stroke="#3D0938" stroke-width="0.292224" stroke-miterlimit="10" stroke-linecap="round" stroke-linejoin="round"/>
<path d="M15.8463 24.7944H17.9942" stroke="#3D0938" stroke-width="0.438336" stroke-miterlimit="10" stroke-linecap="round" stroke-linejoin="round"/>
<path d="M17.4901 24.7944H19.6307" stroke="#3D0938" stroke-width="0.438336" stroke-miterlimit="10" stroke-linecap="round" stroke-linejoin="round"/>
<path d="M48.1297 13.6317C47.5526 13.6317 47.0266 13.8727 46.654 14.2672C46.4275 12.039 44.5427 10.3076 42.256 10.3076C40.3712 10.3076 38.7566 11.4911 38.1283 13.1568C37.6754 12.9961 37.1859 12.9084 36.6672 12.9084C34.4975 12.9084 32.7368 14.4645 32.7368 16.3859C32.7368 18.183 34.2783 19.6661 36.2581 19.8487C36.7476 21.4852 38.2672 22.6833 40.0643 22.6833C41.7227 22.6833 43.14 21.6678 43.739 20.2286C44.2066 20.645 44.813 20.8934 45.4851 20.8934C46.9389 20.8934 48.1151 19.7172 48.1151 18.2634C48.1151 18.0735 48.0932 17.8981 48.0567 17.7228C48.0786 17.7228 48.0932 17.7228 48.1151 17.7228C49.2402 17.7228 50.1534 16.8096 50.1534 15.6845C50.168 14.5449 49.2548 13.6317 48.1297 13.6317Z" fill="white"/>
<path d="M48.1297 15.9619C48.1078 15.9619 48.0932 15.9619 48.0712 15.9619C48.1078 16.1372 48.1297 16.3199 48.1297 16.5025C48.1297 17.9563 46.9535 19.1325 45.4997 19.1325C44.8276 19.1325 44.2139 18.8841 43.7536 18.4677C43.1546 19.9069 41.7373 20.9224 40.0789 20.9224C38.2817 20.9224 36.7622 19.7243 36.2727 18.0878C34.6289 17.9344 33.2847 16.8897 32.8756 15.5016C32.7952 15.7792 32.7514 16.0788 32.7514 16.3783C32.7514 18.1755 34.2929 19.6585 36.2727 19.8412C36.7622 21.4776 38.2817 22.6757 40.0789 22.6757C41.7373 22.6757 43.1546 21.6602 43.7536 20.221C44.2212 20.6375 44.8276 20.8859 45.4997 20.8859C46.9535 20.8859 48.1297 19.7097 48.1297 18.2558C48.1297 18.0659 48.1078 17.8906 48.0712 17.7152C48.0932 17.7152 48.1078 17.7152 48.1297 17.7152C49.2547 17.7152 50.1679 16.802 50.1679 15.677C50.1679 15.3628 50.0949 15.0633 49.9707 14.8003C49.6419 15.487 48.9406 15.9619 48.1297 15.9619Z" fill="#CCFFFF"/>
<path opacity="0.43" d="M47.5818 14.5152L45.4486 15.3846L39.0489 17.9854L36.9156 18.8547C36.0974 16.8384 34.6509 15.1435 32.8172 14.0184C33.2994 13.3756 33.9715 12.8642 34.7605 12.5427C35.3449 12.3016 35.9951 12.1701 36.6746 12.1701C37.0325 12.1701 37.3832 12.2067 37.7266 12.2797C37.7558 12.2286 37.785 12.1701 37.8142 12.119C38.2087 11.4469 38.7566 10.877 39.3922 10.446C40.0936 9.97845 40.9118 9.67892 41.7666 9.59125C41.9273 9.57664 42.088 9.56934 42.2487 9.56934C43.5418 9.56934 44.7326 10.0442 45.6385 10.8405C46.4129 12.0021 47.0631 13.2367 47.5818 14.5152Z" fill="#3D0938"/>
<path d="M48.1297 13.6317C47.5526 13.6317 47.0266 13.8727 46.654 14.2672C46.4275 12.039 44.5427 10.3076 42.256 10.3076C40.3712 10.3076 38.7566 11.4911 38.1283 13.1568C37.6754 12.9961 37.1859 12.9084 36.6672 12.9084C34.4975 12.9084 32.7368 14.4645 32.7368 16.3859C32.7368 18.183 34.2783 19.6661 36.2581 19.8487C36.7476 21.4852 38.2672 22.6833 40.0643 22.6833C41.7227 22.6833 43.14 21.6678 43.739 20.2286C44.2066 20.645 44.813 20.8934 45.4851 20.8934C46.9389 20.8934 48.1151 19.7172 48.1151 18.2634C48.1151 18.0735 48.0932 17.8981 48.0567 17.7228C48.0786 17.7228 48.0932 17.7228 48.1151 17.7228C49.2402 17.7228 50.1534 16.8096 50.1534 15.6845C50.168 14.5449 49.2548 13.6317 48.1297 13.6317Z" stroke="#3D0938" stroke-width="0.292224" stroke-miterlimit="10" stroke-linecap="round" stroke-linejoin="round"/>
<path opacity="0.43" d="M18.0819 26.5114L15.9487 27.3807L11.6822 29.1122L9.54899 29.9815L7.41576 30.8509C6.37106 28.2939 5.83044 25.5251 5.83044 22.6832C5.83044 22.1938 5.84506 21.7116 5.88158 21.2294C5.94733 21.2294 6.01308 21.2294 6.07884 21.2294C6.45873 21.2294 6.83131 21.2659 7.19659 21.339C7.51804 20.908 7.88332 20.5281 8.29243 20.192C9.0376 19.5783 9.91427 19.14 10.8494 18.9062C11.2877 18.7967 11.7407 18.7309 12.2009 18.7163C12.274 18.7163 12.347 18.709 12.4274 18.709C12.705 18.709 12.9826 18.7236 13.2529 18.7601C14.0346 18.8624 14.7725 19.1035 15.4446 19.4542C16.2117 19.856 16.8984 20.4185 17.4536 21.0833C17.3733 21.602 17.3295 22.1353 17.3295 22.6759C17.3368 24.0348 17.5998 25.3279 18.0819 26.5114Z" fill="#3D0938"/>
<path d="M26.3225 29.0096C26.2714 27.5339 25.0368 26.3796 23.561 26.4307C23.4222 26.438 23.2834 26.4527 23.1446 26.4746C22.5455 24.882 20.9895 23.7788 19.1923 23.8373C18.8051 23.8519 18.4398 23.9176 18.0891 24.0272C17.5266 21.3241 15.0792 19.337 12.23 19.432C10.2283 19.4977 8.49689 20.5716 7.51063 22.157C6.99924 22.0035 6.45863 21.9305 5.9034 21.9524C3.10536 22.0474 0.913677 24.3925 1.00865 27.1905C1.10362 29.9886 3.44872 32.1802 6.24676 32.0853C6.41479 32.078 6.58282 32.0634 6.75085 32.0414C7.72249 34.0286 9.79728 35.3582 12.1497 35.2778C14.5751 35.1975 16.6061 33.6341 17.3951 31.4789C18.0088 31.815 18.7247 31.9976 19.4772 31.9684C20.3831 31.9392 21.2159 31.6104 21.8734 31.0844C22.3702 31.5227 23.0277 31.7857 23.7437 31.7638C25.2121 31.72 26.3664 30.4853 26.3225 29.0096Z" fill="white"/>
<path d="M26.1911 28.2867C25.855 29.3314 24.898 30.0985 23.7364 30.1423C23.0204 30.1642 22.3629 29.9085 21.8662 29.4629C21.2086 29.9889 20.3758 30.3177 19.4699 30.3469C18.7174 30.3688 18.0015 30.1935 17.3878 29.8574C16.5988 32.0052 14.5752 33.5686 12.1424 33.6563C9.79 33.7367 7.72252 32.3998 6.74357 30.4199C6.57554 30.4419 6.40751 30.4565 6.23948 30.4638C3.66061 30.5514 1.46893 28.6958 1.06712 26.2119C1.01598 26.5334 0.994064 26.8621 1.00137 27.2055C1.09634 30.0035 3.44144 32.1952 6.23948 32.1002C6.40751 32.0929 6.57554 32.0783 6.74357 32.0564C7.71521 34.0435 9.79 35.3731 12.1424 35.2928C14.5679 35.2124 16.5988 33.649 17.3878 31.4939C18.0015 31.8299 18.7174 32.0126 19.4699 31.9833C20.3758 31.9541 21.2086 31.6254 21.8662 31.0994C22.3629 31.5377 23.0204 31.8007 23.7364 31.7788C25.2121 31.7276 26.3664 30.493 26.3153 29.0173C26.3153 28.7616 26.2641 28.5132 26.1911 28.2867Z" fill="#CCFFFF"/>
<path d="M26.3225 29.0096C26.2714 27.5339 25.0368 26.3796 23.561 26.4307C23.4222 26.438 23.2834 26.4527 23.1446 26.4746C22.5455 24.882 20.9895 23.7788 19.1923 23.8373C18.8051 23.8519 18.4398 23.9176 18.0891 24.0272C17.5266 21.3241 15.0792 19.337 12.23 19.432C10.2283 19.4977 8.49689 20.5716 7.51063 22.157C6.99924 22.0035 6.45863 21.9305 5.9034 21.9524C3.10536 22.0474 0.913677 24.3925 1.00865 27.1905C1.10362 29.9886 3.44872 32.1802 6.24676 32.0853C6.41479 32.078 6.58282 32.0634 6.75085 32.0414C7.72249 34.0286 9.79728 35.3582 12.1497 35.2778C14.5751 35.1975 16.6061 33.6341 17.3951 31.4789C18.0088 31.815 18.7247 31.9976 19.4772 31.9684C20.3831 31.9392 21.2159 31.6104 21.8734 31.0844C22.3702 31.5227 23.0277 31.7857 23.7437 31.7638C25.2121 31.72 26.3664 30.4853 26.3225 29.0096Z" stroke="#3D0938" stroke-width="0.292224" stroke-miterlimit="10" stroke-linecap="round" stroke-linejoin="round"/>
<path d="M30.326 28.1113L31.3123 29.4263L31.8164 28.6154L30.326 28.1113Z" fill="#F0406F"/>
<path d="M30.326 28.1113L31.3123 29.4263L31.8164 28.6154L30.326 28.1113Z" stroke="#3D0938" stroke-width="0.292224" stroke-miterlimit="10" stroke-linecap="round" stroke-linejoin="round"/>
<path d="M31.0128 26.7598L31.8164 28.6154L32.6857 28.1332L31.0128 26.7598Z" fill="#F0406F"/>
<path d="M31.0128 26.7598L31.8164 28.6154L32.6857 28.1332L31.0128 26.7598Z" stroke="#3D0938" stroke-width="0.292224" stroke-miterlimit="10" stroke-linecap="round" stroke-linejoin="round"/>
<path d="M44.9007 29.6091C44.2067 29.6968 42.6506 29.7698 40.868 29.1269C38.4498 28.2576 37.2152 28.4037 36.6819 28.5644C36.4993 28.6155 36.3166 28.6813 36.134 28.7617C34.556 29.4995 33.8765 31.3844 34.6217 32.9551C35.0893 33.9559 36.0171 34.5915 37.0326 34.7376C37.0326 34.7376 37.0618 34.7449 37.1202 34.7449C37.1348 34.7449 37.1495 34.7449 37.1641 34.7522C37.544 34.7961 38.6836 34.8911 39.458 34.65C40.2616 34.2701 39.0927 33.8683 39.0927 33.8683C39.0927 33.8683 40.0059 34.124 40.6927 33.7733C41.7008 33.2546 40.5758 32.8893 40.5758 32.8893C40.5758 32.8893 41.5693 33.1889 42.2999 32.5167C42.7602 32.093 42.3583 31.9469 41.9931 31.8958C42.5045 31.9031 43.3519 31.83 43.6368 31.2967C43.8414 30.9168 43.3811 30.8291 43.0378 30.8145C43.4688 30.7999 44.2359 30.7123 44.6742 30.3762C44.8788 30.2155 45.0176 30.0767 45.1126 29.9598C45.2294 29.8137 45.0979 29.5872 44.9007 29.6091Z" fill="#D4907F"/>
<path d="M44.9007 29.6091C44.2067 29.6968 42.6506 29.7698 40.868 29.1269C38.4498 28.2576 37.2152 28.4037 36.6819 28.5644C36.4993 28.6155 36.3166 28.6813 36.134 28.7617C34.556 29.4995 33.8765 31.3844 34.6217 32.9551C35.0893 33.9559 36.0171 34.5915 37.0326 34.7376C37.0326 34.7376 37.0618 34.7449 37.1202 34.7449C37.1348 34.7449 37.1495 34.7449 37.1641 34.7522C37.544 34.7961 38.6836 34.8911 39.458 34.65C40.2616 34.2701 39.0927 33.8683 39.0927 33.8683C39.0927 33.8683 40.0059 34.124 40.6927 33.7733C41.7008 33.2546 40.5758 32.8893 40.5758 32.8893C40.5758 32.8893 41.5693 33.1889 42.2999 32.5167C42.7602 32.093 42.3583 31.9469 41.9931 31.8958C42.5045 31.9031 43.3519 31.83 43.6368 31.2967C43.8414 30.9168 43.1912 30.8218 42.8551 30.8072C43.2862 30.7926 44.2359 30.7123 44.6742 30.3762C44.8788 30.2155 45.0176 30.0767 45.1126 29.9598C45.2294 29.8137 45.0979 29.5872 44.9007 29.6091Z" stroke="#3D0938" stroke-width="0.292224" stroke-miterlimit="10" stroke-linecap="round" stroke-linejoin="round"/>
<path d="M40.1813 35.2852C40.1813 35.2852 41.7008 35.6358 43.8779 36.9728C46.0623 38.3024 46.9682 37.9882 46.9682 37.9882" stroke="#3D0938" stroke-width="0.36528" stroke-miterlimit="10" stroke-linecap="round" stroke-linejoin="round"/>
<path d="M44.3966 38.5947C44.3966 38.5947 43.3957 38.5582 42.4021 37.2651C41.4086 35.972 41.0141 35.351 40.5977 35.3218" stroke="#3D0938" stroke-width="0.36528" stroke-miterlimit="10" stroke-linecap="round" stroke-linejoin="round"/>
<path d="M48.1078 32.7359C48.1736 32.6628 48.232 32.5386 48.2101 32.4144C48.2028 32.3852 48.1809 32.3048 48.1078 32.2537C48.0348 32.1953 47.9325 32.1733 47.8229 32.1953C48.0421 32.1441 48.1809 31.9469 48.1517 31.7569C48.1151 31.567 47.9106 31.4282 47.6914 31.4574C47.801 31.4428 47.8887 31.3843 47.9398 31.304C47.9836 31.2309 47.9836 31.1506 47.9763 31.114C47.9617 30.9898 47.8594 30.8949 47.7718 30.851C47.5818 30.7561 47.3407 30.8583 47.1362 30.946C46.7344 31.114 46.486 31.3697 46.3107 31.5524C46.1792 31.6912 45.9965 31.8957 45.8285 32.1806C46.0842 32.3852 46.3253 32.5167 46.4933 32.5971C46.7198 32.7066 47.0412 32.8528 47.4796 32.8747C47.6987 32.882 47.9617 32.8893 48.1078 32.7359Z" fill="#F0406F"/>
<path d="M48.0712 32.4139C48.0639 32.3847 48.042 32.3043 47.969 32.2532C47.9544 32.2459 47.9397 32.2386 47.9251 32.224C47.9032 32.2751 47.874 32.3116 47.8448 32.3482C47.6987 32.5016 47.4357 32.4943 47.2165 32.487C46.7782 32.4651 46.4567 32.3189 46.2302 32.2094C46.1133 32.1582 45.9745 32.0779 45.8138 31.9756C45.77 32.0413 45.7261 32.1071 45.6823 32.1801C45.938 32.3847 46.1791 32.5162 46.3471 32.5966C46.5736 32.7061 46.895 32.8523 47.3334 32.8742C47.5525 32.8815 47.8155 32.8888 47.9617 32.7354C48.042 32.6623 48.1005 32.5381 48.0712 32.4139Z" fill="#DB2C62"/>
<path d="M47.6841 30.9238C47.633 31.0041 47.5453 31.0626 47.4357 31.0772C47.5965 31.0553 47.7499 31.1283 47.8302 31.2379C47.8448 31.1868 47.8375 31.1429 47.8375 31.121C47.8229 31.026 47.7645 30.9457 47.6987 30.8945C47.6914 30.9018 47.6914 30.9091 47.6841 30.9238Z" fill="#DB2C62"/>
<path d="M45.6897 32.1733C45.7116 32.188 45.7335 32.2026 45.7554 32.2245C45.8504 32.093 45.9454 31.9907 46.0258 31.9103C46.2011 31.7277 46.4495 31.4793 46.8513 31.304C47.0558 31.2163 47.2969 31.1213 47.4869 31.209C47.5599 31.2455 47.6403 31.3186 47.6768 31.4136C47.728 31.3843 47.7718 31.3478 47.801 31.304C47.8448 31.2309 47.8448 31.1506 47.8375 31.114C47.8229 30.9898 47.7207 30.8949 47.633 30.851C47.443 30.7561 47.202 30.8583 46.9974 30.946C46.5956 31.114 46.3472 31.3697 46.1719 31.5524C46.0404 31.6912 45.8577 31.8957 45.6897 32.1733Z" fill="#F96291"/>
<path d="M48.1078 32.7359C48.1736 32.6628 48.232 32.5386 48.2101 32.4144C48.2028 32.3852 48.1809 32.3048 48.1078 32.2537C48.0348 32.1953 47.9325 32.1733 47.8229 32.1953C48.0421 32.1441 48.1809 31.9469 48.1517 31.7569C48.1151 31.567 47.9106 31.4282 47.6914 31.4574C47.801 31.4428 47.8887 31.3843 47.9398 31.304C47.9836 31.2309 47.9836 31.1506 47.9763 31.114C47.9617 30.9898 47.8594 30.8949 47.7718 30.851C47.5818 30.7561 47.3407 30.8583 47.1362 30.946C46.7344 31.114 46.486 31.3697 46.3107 31.5524C46.1792 31.6912 45.9965 31.8957 45.8285 32.1806C46.0842 32.3852 46.3253 32.5167 46.4933 32.5971C46.7198 32.7066 47.0412 32.8528 47.4796 32.8747C47.6987 32.882 47.9617 32.8893 48.1078 32.7359Z" stroke="#3D0938" stroke-width="0.292224" stroke-miterlimit="10" stroke-linecap="round" stroke-linejoin="round"/>
<path d="M45.8212 32.1807C45.8212 32.1807 42.4972 32.4803 39.0927 30.0183C37.9312 29.1781 37.1714 28.6375 36.6746 28.3015C36.4335 28.0823 36.1559 27.8924 35.8491 27.7536C35.7395 27.6878 35.7468 27.7024 35.7468 27.7024C35.3377 27.5271 34.8774 27.4248 34.4026 27.4248C32.5323 27.4248 31.0128 28.9444 31.0128 30.8146C31.0128 32.0858 31.7141 33.1962 32.7515 33.7734C32.7515 33.7734 32.7588 33.7807 32.7734 33.7807C32.9049 33.8537 33.0437 33.9122 33.1825 33.9706C34.7167 34.6135 40.1374 36.4034 45.8212 32.1807Z" fill="#F1CB9C"/>
<path d="M34.4026 27.819C34.8774 27.819 35.3377 27.9213 35.7468 28.0966C35.7468 28.0966 35.7395 28.082 35.8491 28.1478C36.1486 28.2939 36.4262 28.4765 36.6746 28.6957C37.1714 29.039 37.9238 29.5723 39.0927 30.4125C41.7374 32.3193 44.4989 32.3996 45.529 32.4142C45.6824 32.3046 45.6678 32.3704 45.8212 32.2535C45.8212 32.2535 42.4972 32.553 39.0927 30.091C37.9312 29.2509 37.1714 28.7103 36.6746 28.3742C36.4335 28.1551 36.1559 27.9651 35.8491 27.8263C35.7395 27.7606 35.7468 27.7752 35.7468 27.7752C35.3377 27.5998 34.8774 27.4976 34.4026 27.4976C32.5323 27.4976 31.0128 29.0171 31.0128 30.8874C31.0128 30.9385 31.0128 30.9823 31.0201 31.0262C31.115 29.2363 32.5908 27.819 34.4026 27.819Z" fill="#F8E4C1"/>
<path d="M44.9956 32.1734C39.699 35.4828 34.8262 33.8756 33.387 33.2619C33.2482 33.2108 33.1094 33.145 32.9779 33.072C32.9633 33.0647 32.956 33.0647 32.956 33.0647C31.9186 32.4875 31.2172 31.3771 31.2172 30.1059C31.2172 29.9013 31.2392 29.7041 31.2684 29.5068C31.1003 29.9086 31.0054 30.347 31.0054 30.8072C31.0054 32.0784 31.7067 33.1889 32.7441 33.766C32.7441 33.766 32.7514 33.7733 32.766 33.7733C32.8975 33.8464 33.0363 33.9048 33.1751 33.9632C34.7093 34.6134 40.1301 36.396 45.8138 32.1734C45.8211 32.1807 45.5143 32.2026 44.9956 32.1734Z" fill="#D4907F"/>
<path d="M45.8212 32.1807C45.8212 32.1807 42.4972 32.4803 39.0927 30.0183C37.9312 29.1781 37.1714 28.6375 36.6746 28.3015C36.4335 28.0823 36.1559 27.8924 35.8491 27.7536C35.7395 27.6878 35.7468 27.7024 35.7468 27.7024C35.3377 27.5271 34.8774 27.4248 34.4026 27.4248C32.5323 27.4248 31.0128 28.9444 31.0128 30.8146C31.0128 32.0858 31.7141 33.1962 32.7515 33.7734C32.7515 33.7734 32.7588 33.7807 32.7734 33.7807C32.9049 33.8537 33.0437 33.9122 33.1825 33.9706C34.7167 34.6135 40.1374 36.4034 45.8212 32.1807Z" stroke="#3D0938" stroke-width="0.292224" stroke-miterlimit="10" stroke-linecap="round" stroke-linejoin="round"/>
<path d="M43.4177 35.3074C42.7529 35.0882 41.3137 34.4965 39.9768 33.1596C38.1577 31.3405 36.9742 30.946 36.4263 30.8729C36.2363 30.8364 36.0464 30.8218 35.8491 30.8218C34.1104 30.8218 32.6931 32.2318 32.6931 33.9778C32.6931 35.0809 33.263 36.0526 34.1177 36.6151C34.1177 36.6151 34.1469 36.6297 34.1908 36.659C34.2054 36.6663 34.2127 36.6736 34.2273 36.6809C34.5487 36.8781 35.5423 37.4553 36.3459 37.5648C37.2372 37.5648 36.3459 36.7028 36.3459 36.7028C36.3459 36.7028 37.0619 37.3238 37.8289 37.2945C38.9613 37.258 38.0993 36.4398 38.0993 36.4398C38.0993 36.4398 38.8663 37.1338 39.8161 36.8343C40.4151 36.6443 40.1083 36.3448 39.8015 36.1403C40.2617 36.3667 41.058 36.6663 41.5475 36.301C41.8909 36.0453 41.511 35.7677 41.2114 35.6069C41.6132 35.775 42.3365 36.0234 42.8771 35.9065C43.1328 35.848 43.3155 35.7823 43.4543 35.7165C43.6296 35.6362 43.6077 35.3732 43.4177 35.3074Z" fill="#EFAB89"/>
<path d="M36.4116 36.9C35.608 36.7904 34.6144 36.2133 34.293 36.016C34.2783 36.0087 34.271 36.0014 34.2564 35.9941C34.2126 35.9649 34.1834 35.9503 34.1834 35.9503C33.3286 35.3877 32.7588 34.4161 32.7588 33.3129C32.7588 33.3056 32.7588 33.2983 32.7588 33.291C32.7076 33.5102 32.6857 33.7367 32.6857 33.9704C32.6857 35.0736 33.2556 36.0452 34.1103 36.6078C34.1103 36.6078 34.1395 36.6224 34.1834 36.6516C34.198 36.6589 34.2053 36.6662 34.2199 36.6735C34.5414 36.8708 35.5349 37.4479 36.3385 37.5575C36.9522 37.5575 36.7184 37.1484 36.5212 36.8927C36.4846 36.9 36.4481 36.9 36.4116 36.9Z" fill="#D4907F"/>
<path d="M43.4176 35.3074C43.3372 35.2781 43.2422 35.2489 43.1327 35.2051C43.0742 35.2197 42.9865 35.1978 42.9427 35.2489C42.6724 35.6288 41.1675 35.4462 40.7729 35.2781C41.0725 35.4389 41.014 35.5192 41.6204 35.6361C41.6715 35.6434 41.54 35.6872 41.4962 35.7092C41.9053 35.8553 42.4459 35.9941 42.877 35.8991C43.1327 35.8407 43.3153 35.7749 43.4541 35.7092C43.6294 35.6361 43.6075 35.3731 43.4176 35.3074Z" fill="#D4907F"/>
<path d="M37.8946 36.6295C37.1202 36.6587 36.0316 36.0889 36.0316 36.0889C35.8636 36.2131 35.7759 36.0523 36.5869 36.8779C36.8645 37.0605 37.3247 37.3016 37.8142 37.287C38.6397 37.2578 38.406 36.8194 38.216 36.5857C38.143 36.6149 38.0334 36.6295 37.8946 36.6295Z" fill="#D4907F"/>
<path d="M39.8599 36.184C38.9174 36.4616 37.7997 35.9429 37.7997 35.9429C37.7997 35.9429 37.8654 36.2132 38.2672 36.5712C38.5449 36.7538 39.1293 37.046 39.8087 36.8342C40.3713 36.6588 40.1448 36.3812 39.8599 36.184Z" fill="#D4907F"/>
<path d="M41.4305 35.7458C41.0433 36.0892 39.7429 35.8335 39.3338 35.6362C39.6406 35.8335 39.6406 35.9942 39.8817 36.1768H39.8744C40.342 36.396 41.0798 36.6444 41.5401 36.301C41.8031 36.1111 41.657 35.9065 41.4305 35.7458Z" fill="#D4907F"/>
<path d="M43.4177 35.3074C42.7529 35.0882 41.3137 34.4965 39.9768 33.1596C38.1577 31.3405 36.9742 30.946 36.4263 30.8729C36.2363 30.8364 36.0464 30.8218 35.8491 30.8218C34.1104 30.8218 32.6931 32.2318 32.6931 33.9778C32.6931 35.0809 33.263 36.0526 34.1177 36.6151C34.1177 36.6151 34.1469 36.6297 34.1908 36.659C34.2054 36.6663 34.2127 36.6736 34.2273 36.6809C34.5487 36.8781 35.5423 37.4553 36.3459 37.5648C37.2372 37.5648 36.3459 36.7028 36.3459 36.7028C36.3459 36.7028 37.0619 37.3238 37.8289 37.2945C38.9613 37.258 38.0993 36.4398 38.0993 36.4398C38.0993 36.4398 38.8663 37.1338 39.8161 36.8343C40.4151 36.6443 40.1083 36.3448 39.8015 36.1403C40.2617 36.3667 41.058 36.6663 41.5475 36.301C41.8909 36.0453 41.511 35.7677 41.2114 35.6069C41.6132 35.775 42.3365 36.0234 42.8771 35.9065C43.1328 35.848 43.3155 35.7823 43.4543 35.7165C43.6296 35.6362 43.6077 35.3732 43.4177 35.3074Z" stroke="#3D0938" stroke-width="0.292224" stroke-miterlimit="10" stroke-linecap="round" stroke-linejoin="round"/>
<path d="M33.0364 29.353C33.0364 29.353 33.0803 30.1566 33.8254 30.1566C34.4756 30.1566 34.6583 29.8498 34.6583 29.8498" stroke="#3D0938" stroke-width="0.292224" stroke-miterlimit="10" stroke-linecap="round" stroke-linejoin="round"/>
<path d="M32.788 29.8425L33.1532 29.7549" stroke="#3D0938" stroke-width="0.292224" stroke-miterlimit="10" stroke-linecap="round" stroke-linejoin="round"/>
<path d="M33.1533 30.2518L33.3286 29.9888" stroke="#3D0938" stroke-width="0.292224" stroke-miterlimit="10" stroke-linecap="round" stroke-linejoin="round"/>
<path d="M33.7086 30.1567V30.4563" stroke="#3D0938" stroke-width="0.292224" stroke-miterlimit="10" stroke-linecap="round" stroke-linejoin="round"/>
<path d="M34.3148 30.084L34.4536 30.4566" stroke="#3D0938" stroke-width="0.292224" stroke-miterlimit="10" stroke-linecap="round" stroke-linejoin="round"/>
<path d="M34.8409 32.3047C34.8409 32.3047 35.0893 32.5896 35.3669 32.3047" stroke="#3D0938" stroke-width="0.219168" stroke-miterlimit="10" stroke-linecap="round" stroke-linejoin="round"/>
<path d="M34.0081 33.6053C34.0081 33.6053 34.5121 33.8098 34.7167 33.335" stroke="#3D0938" stroke-width="0.219168" stroke-miterlimit="10" stroke-linecap="round" stroke-linejoin="round"/>
<path d="M34.0592 34.8398C34.0592 34.8398 34.4172 34.9787 34.556 34.6499" stroke="#3D0938" stroke-width="0.219168" stroke-miterlimit="10" stroke-linecap="round" stroke-linejoin="round"/>
<path d="M37.0472 33.2689C37.0472 33.2689 37.354 33.5027 37.5805 33.2251" stroke="#3D0938" stroke-width="0.219168" stroke-miterlimit="10" stroke-linecap="round" stroke-linejoin="round"/>
<path d="M37.9604 35.059C37.9604 35.059 38.2672 35.2927 38.4937 35.0151" stroke="#3D0938" stroke-width="0.219168" stroke-miterlimit="10" stroke-linecap="round" stroke-linejoin="round"/>
<path d="M38.6252 34.0726C38.6252 34.0726 38.9321 34.3064 39.1586 34.0288" stroke="#3D0938" stroke-width="0.219168" stroke-miterlimit="10" stroke-linecap="round" stroke-linejoin="round"/>
<path d="M36.7039 34.2333C36.7039 34.2333 37.0107 34.4671 37.2372 34.1895" stroke="#3D0938" stroke-width="0.219168" stroke-miterlimit="10" stroke-linecap="round" stroke-linejoin="round"/>
<path d="M39.3484 29.4701C39.3484 29.4701 39.6553 29.7039 39.8818 29.4263" stroke="#3D0938" stroke-width="0.219168" stroke-miterlimit="10" stroke-linecap="round" stroke-linejoin="round"/>
<path d="M41.4305 31.1215C41.4305 31.1215 41.7373 31.3552 41.9638 31.0776" stroke="#3D0938" stroke-width="0.219168" stroke-miterlimit="10" stroke-linecap="round" stroke-linejoin="round"/>
<path d="M41.4379 30.3613C41.4379 30.3613 41.7958 30.5001 41.9347 30.1641" stroke="#3D0938" stroke-width="0.219168" stroke-miterlimit="10" stroke-linecap="round" stroke-linejoin="round"/>
<path d="M40.3566 30.2009C40.3566 30.2009 40.7365 30.2447 40.7877 29.8867" stroke="#3D0938" stroke-width="0.219168" stroke-miterlimit="10" stroke-linecap="round" stroke-linejoin="round"/>
<path d="M35.7029 35.1757C35.7029 35.1757 36.0682 35.2999 36.1924 34.9712" stroke="#3D0938" stroke-width="0.219168" stroke-miterlimit="10" stroke-linecap="round" stroke-linejoin="round"/>
<path d="M35.5787 33.1595C35.5787 33.1595 35.9732 33.4444 36.2508 33.0791" stroke="#3D0938" stroke-width="0.219168" stroke-miterlimit="10" stroke-linecap="round" stroke-linejoin="round"/>
<path d="M35.3668 34.0799C35.3668 34.0799 35.7613 34.3648 36.0389 33.9995" stroke="#3D0938" stroke-width="0.219168" stroke-miterlimit="10" stroke-linecap="round" stroke-linejoin="round"/>
<path d="M35.9221 36.1401C35.9221 36.1401 35.9805 36.3374 36.3385 36.6954" stroke="#3D0938" stroke-width="0.292224" stroke-miterlimit="10" stroke-linecap="round" stroke-linejoin="round"/>
<path d="M38.0918 36.4398C38.0918 36.4398 37.9384 36.3448 37.7047 36.0015" stroke="#3D0938" stroke-width="0.292224" stroke-miterlimit="10" stroke-linecap="round" stroke-linejoin="round"/>
<path d="M39.8013 36.1403C39.8013 36.1403 39.4872 35.9211 39.2315 35.6362" stroke="#3D0938" stroke-width="0.292224" stroke-miterlimit="10" stroke-linecap="round" stroke-linejoin="round"/>
<path d="M41.2114 35.6144C41.2114 35.6144 40.7219 35.4098 40.5904 35.2783" stroke="#3D0938" stroke-width="0.292224" stroke-miterlimit="10" stroke-linecap="round" stroke-linejoin="round"/>
<path d="M28.8283 22.1791V23.7498C28.7918 23.7425 28.748 23.7352 28.7041 23.7352C28.4192 23.7352 28.1854 23.9324 28.1854 24.1808C28.1854 24.4292 28.4192 24.6264 28.7041 24.6264C28.989 24.6264 29.2228 24.4292 29.2228 24.1808V22.4494L30.3625 21.9672V23.2165C30.326 23.2092 30.2821 23.2019 30.2383 23.2019C29.9534 23.2019 29.7196 23.3991 29.7196 23.6475C29.7196 23.8959 29.9534 24.0931 30.2383 24.0931C30.5232 24.0931 30.757 23.8959 30.757 23.6475V21.7992V21.6458V21.3608L28.8283 22.1791Z" fill="#F0406F"/>
<path d="M28.8283 22.1791V23.7498C28.7918 23.7425 28.748 23.7352 28.7041 23.7352C28.4192 23.7352 28.1854 23.9324 28.1854 24.1808C28.1854 24.4292 28.4192 24.6264 28.7041 24.6264C28.989 24.6264 29.2228 24.4292 29.2228 24.1808V22.4494L30.3625 21.9672V23.2165C30.326 23.2092 30.2821 23.2019 30.2383 23.2019C29.9534 23.2019 29.7196 23.3991 29.7196 23.6475C29.7196 23.8959 29.9534 24.0931 30.2383 24.0931C30.5232 24.0931 30.757 23.8959 30.757 23.6475V21.7992V21.6458V21.3608L28.8283 22.1791Z" stroke="#3D0938" stroke-width="0.146112" stroke-miterlimit="10" stroke-linecap="round" stroke-linejoin="round"/>
<path d="M28.7333 15.7719L28.2073 17.6495C28.1854 17.7372 28.0904 17.781 28.0028 17.7591C27.6302 17.6568 27.2503 17.8321 27.1626 18.1536C27.075 18.475 27.3014 18.8184 27.674 18.9207C28.0466 19.0229 28.4265 18.8476 28.5142 18.5262L29.1132 16.3637C29.1278 16.3053 29.1863 16.2541 29.2447 16.2468L30.5597 16.0788C30.6766 16.0642 30.7643 16.1664 30.7351 16.2833L30.3917 17.5107C30.3698 17.5983 30.2748 17.6422 30.1871 17.6203C29.8146 17.518 29.4347 17.6933 29.347 18.0148C29.2593 18.3362 29.4858 18.6796 29.8584 18.7819C30.231 18.8841 30.6109 18.7088 30.6985 18.3873L31.3707 15.9765L31.4218 15.7792L31.4583 15.6404C31.4875 15.5309 31.3999 15.4213 31.283 15.4359L28.7333 15.7719Z" fill="#21E8A6"/>
<path d="M28.7333 15.7719L28.2073 17.6495C28.1854 17.7372 28.0904 17.781 28.0028 17.7591C27.6302 17.6568 27.2503 17.8321 27.1626 18.1536C27.075 18.475 27.3014 18.8184 27.674 18.9207C28.0466 19.0229 28.4265 18.8476 28.5142 18.5262L29.1132 16.3637C29.1278 16.3053 29.1863 16.2541 29.2447 16.2468L30.5597 16.0788C30.6766 16.0642 30.7643 16.1664 30.7351 16.2833L30.3917 17.5107C30.3698 17.5983 30.2748 17.6422 30.1871 17.6203C29.8146 17.518 29.4347 17.6933 29.347 18.0148C29.2593 18.3362 29.4858 18.6796 29.8584 18.7819C30.231 18.8841 30.6109 18.7088 30.6985 18.3873L31.3707 15.9765L31.4218 15.7792L31.4583 15.6404C31.4875 15.5309 31.3999 15.4213 31.283 15.4359L28.7333 15.7719Z" stroke="#3D0938" stroke-width="0.146112" stroke-miterlimit="10" stroke-linecap="round" stroke-linejoin="round"/>
<path d="M29.7782 25.459L29.7197 25.5467C29.6613 25.6343 29.5809 25.7001 29.4932 25.7512L29.0184 26.0215L29.0841 26.248L29.3398 27.0881C29.3106 27.0881 29.2887 27.0954 29.2595 27.1027C29.106 27.1466 29.0111 27.2927 29.0476 27.4315C29.0841 27.563 29.2448 27.6361 29.4056 27.5922C29.5517 27.5484 29.5882 27.5046 29.5663 27.3804L29.5736 27.3073L29.3179 26.3941L29.6393 26.2042C29.7416 26.1457 29.8293 26.0654 29.895 25.9631L29.9243 25.9192L29.7782 25.459Z" fill="#E38980"/>
<path d="M29.851 25.459L29.7926 25.5467C29.7341 25.6343 29.6538 25.7001 29.5661 25.7512L29.0912 26.0215L29.157 26.248L29.4127 27.0881C29.3835 27.0881 29.3616 27.0954 29.3323 27.1027C29.1789 27.1466 29.0839 27.2927 29.1205 27.4315C29.157 27.563 29.3177 27.6361 29.4784 27.5922C29.6246 27.5484 29.5661 27.4899 29.5442 27.3584L29.2666 26.4379L29.7122 26.2042C29.8145 26.1457 29.9022 26.0654 29.9679 25.9631L29.9971 25.9192L29.851 25.459Z" stroke="#3D0938" stroke-width="0.146112" stroke-miterlimit="10" stroke-linecap="round" stroke-linejoin="round"/>
<path d="M9.78995 11.6589C9.64384 10.826 8.85484 10.2708 8.0293 10.4169C8.01469 10.4169 8.00008 10.4242 7.99278 10.4242C7.6275 9.4672 6.62663 8.86814 5.57462 9.05078C4.66873 9.2115 3.98931 9.90553 3.81398 10.753C3.55828 10.6142 3.25875 10.5557 2.95191 10.6142C2.22866 10.7384 1.74649 11.4251 1.87069 12.1484C1.99488 12.8716 2.68161 13.3538 3.40486 13.2296C3.64595 13.1857 3.85781 13.0835 4.03314 12.9374C4.20117 13.9017 5.12898 14.5519 6.09332 14.3839C6.75082 14.267 7.26952 13.8067 7.47408 13.215C7.78091 13.4122 8.1608 13.4999 8.55531 13.4341C9.38084 13.2734 9.93606 12.4844 9.78995 11.6589Z" fill="white"/>
<path d="M8.6722 12.7839C8.285 12.8497 7.8978 12.762 7.59097 12.5648C7.38641 13.1565 6.87502 13.6168 6.21021 13.7337C5.23857 13.9017 4.31806 13.2515 4.15003 12.2872C3.9747 12.4333 3.76284 12.5356 3.52175 12.5794C2.7985 12.7036 2.11177 12.2214 1.98758 11.4982C1.98027 11.447 1.97297 11.3959 1.97297 11.3521C1.86338 11.5858 1.81955 11.8634 1.87069 12.1411C1.99488 12.8643 2.68161 13.3465 3.40486 13.2223C3.64595 13.1785 3.85781 13.0762 4.03314 12.9301C4.20117 13.8944 5.12898 14.5446 6.09332 14.3766C6.75083 14.2597 7.26952 13.7994 7.47408 13.2077C7.78091 13.4049 8.16081 13.4926 8.55531 13.4268C9.30778 13.2953 9.83379 12.6305 9.81918 11.8854C9.61462 12.3383 9.1982 12.689 8.6722 12.7839Z" fill="#CCFFFF"/>
<path opacity="0.43" d="M7.79556 14.1209C7.95629 14.1574 8.11701 14.172 8.28504 14.172C8.41654 14.172 8.54074 14.1574 8.67224 14.1355C9.89958 13.9236 10.7251 12.7547 10.5059 11.5274C10.411 11.0014 10.1407 10.5412 9.76077 10.2124C8.80374 11.5639 8.01473 13.0104 7.40106 14.53C7.55448 14.4058 7.68598 14.2743 7.79556 14.1209Z" fill="#3D0938"/>
<path d="M9.78995 11.6589C9.64384 10.826 8.85484 10.2708 8.0293 10.4169C8.01469 10.4169 8.00008 10.4242 7.99278 10.4242C7.6275 9.4672 6.62663 8.86814 5.57462 9.05078C4.66873 9.2115 3.98931 9.90553 3.81398 10.753C3.55828 10.6142 3.25875 10.5557 2.95191 10.6142C2.22866 10.7384 1.74649 11.4251 1.87069 12.1484C1.99488 12.8716 2.68161 13.3538 3.40486 13.2296C3.64595 13.1857 3.85781 13.0835 4.03314 12.9374C4.20117 13.9017 5.12898 14.5519 6.09332 14.3839C6.75082 14.267 7.26952 13.8067 7.47408 13.215C7.78091 13.4122 8.1608 13.4999 8.55531 13.4341C9.38084 13.2734 9.93606 12.4844 9.78995 11.6589Z" stroke="#3D0938" stroke-width="0.292224" stroke-miterlimit="10" stroke-linecap="round" stroke-linejoin="round"/>
</svg>
