<svg width="41" height="38" viewBox="0 0 41 38" fill="none" xmlns="http://www.w3.org/2000/svg">
<path d="M20.6353 35.5972C31.2196 35.5972 39.7999 27.8523 39.7999 18.2986C39.7999 8.74484 31.2196 1 20.6353 1C10.051 1 1.4707 8.74484 1.4707 18.2986C1.4707 27.8523 10.051 35.5972 20.6353 35.5972Z" fill="#8FE3F9"/>
<path d="M20.6353 35.5972C31.2196 35.5972 39.7999 27.8523 39.7999 18.2986C39.7999 8.74484 31.2196 1 20.6353 1C10.051 1 1.4707 8.74484 1.4707 18.2986C1.4707 27.8523 10.051 35.5972 20.6353 35.5972Z" fill="#8FE3F9"/>
<path d="M21.1397 35.2607C25.5189 35.2607 29.5536 33.9747 32.7813 31.8145L31.8987 29.7383C30.0495 25.3758 25.6618 22.5264 20.795 22.5264C15.9282 22.5264 11.5405 25.3758 9.69132 29.7383L8.96844 31.453C12.2718 33.8318 16.5166 35.2607 21.1397 35.2607Z" fill="#B2EBF9"/>
<path d="M20.627 16.853L16.9622 22.2326L19.7276 25.9142C20.1815 26.5194 21.0977 26.5194 21.5516 25.9142L24.2918 22.2326L20.627 16.853Z" fill="#A4E0EA"/>
<path d="M20.6353 33.58C10.4226 33.58 2.08431 26.3764 1.50433 17.29C1.47911 17.6263 1.4707 17.9625 1.4707 18.2987C1.4707 27.8474 10.0527 35.5973 20.6353 35.5973C31.2179 35.5973 39.7999 27.8558 39.7999 18.2987C39.7999 17.9625 39.7915 17.6263 39.7663 17.29C39.1863 26.3764 30.8396 33.58 20.6353 33.58Z" fill="#7AD1E5"/>
<path d="M32.1341 30.1167C28.9316 32.2853 24.9474 33.5798 20.6353 33.5798C16.4326 33.5798 12.5492 32.361 9.39714 30.2932L8.97687 31.3271C12.2886 33.7815 16.525 35.2609 21.1481 35.2609C25.3256 35.2609 29.1922 34.0505 32.3442 31.9995C32.4955 31.8987 32.6384 31.7894 32.7897 31.6801L32.1341 30.1167Z" fill="#A4E0EA"/>
<path d="M1 18.3573C1.53795 19.4585 2.26083 20.4839 3.16863 21.4001C7.56472 25.7962 14.701 25.7962 19.0971 21.4001C22.7787 17.7185 23.3755 12.1288 20.9043 7.8252" fill="#7AD1E5"/>
<path d="M39.7327 19.6689C37.7153 22.7033 34.2691 24.6954 30.3521 24.6954C24.132 24.6954 19.0887 19.6521 19.0887 13.432C19.0887 10.6582 20.0889 8.11973 21.7532 6.15283" fill="#7AD1E5"/>
<path d="M20.6353 35.5972C31.2196 35.5972 39.7999 27.8523 39.7999 18.2986C39.7999 8.74484 31.2196 1 20.6353 1C10.051 1 1.4707 8.74484 1.4707 18.2986C1.4707 27.8523 10.051 35.5972 20.6353 35.5972Z" stroke="#413D51" stroke-width="1.34488" stroke-miterlimit="10" stroke-linecap="round" stroke-linejoin="round"/>
<path d="M20.627 14.4995L16.9622 19.8791L20.6438 24.7795L24.3002 19.8791L20.627 14.4995Z" fill="#413D51"/>
<path d="M20.627 14.4995L16.9622 19.8791L20.6438 24.7795L24.3002 19.8791L20.627 14.4995Z" stroke="#413D51" stroke-width="1.34488" stroke-miterlimit="10" stroke-linecap="round" stroke-linejoin="round"/>
<path d="M28.9484 2.8662C26.4267 1.68943 23.5604 1.02539 20.5429 1.02539C17.5253 1.02539 14.659 1.68943 12.1373 2.8662V14.6423H28.9484V2.8662Z" fill="#413D51"/>
<path d="M30.0243 4.04301L39.1611 3.76562C37.8414 7.069 37.6649 12.0367 38.8165 17.4666C37.3539 20.5599 34.2439 22.7537 30.5875 22.863C25.3928 23.0227 21.0472 18.9376 20.8959 13.7346C20.7362 8.53997 24.8213 4.20271 30.0243 4.04301Z" fill="#413D51"/>
<path d="M30.0243 4.04301L39.1611 3.76562C37.8414 7.069 37.6649 12.0367 38.8165 17.4666C37.3539 20.5599 34.2439 22.7537 30.5875 22.863C25.3928 23.0227 21.0472 18.9376 20.8959 13.7346C20.7362 8.53997 24.8213 4.20271 30.0243 4.04301Z" stroke="#413D51" stroke-width="1.34488" stroke-miterlimit="10" stroke-linecap="round" stroke-linejoin="round"/>
<path d="M30.3521 22.8543C35.5514 22.8543 39.7663 18.6394 39.7663 13.4401C39.7663 8.24076 35.5514 4.02588 30.3521 4.02588C25.1527 4.02588 20.9379 8.24076 20.9379 13.4401C20.9379 18.6394 25.1527 22.8543 30.3521 22.8543Z" fill="#F7E8AD"/>
<path d="M30.3521 22.8543C35.5514 22.8543 39.7663 18.6394 39.7663 13.4401C39.7663 8.24076 35.5514 4.02588 30.3521 4.02588C25.1527 4.02588 20.9379 8.24076 20.9379 13.4401C20.9379 18.6394 25.1527 22.8543 30.3521 22.8543Z" fill="#F7E8AD"/>
<path d="M37.0092 6.78289C35.202 4.9757 32.8317 4.0595 30.4613 4.02588C32.2433 4.37051 33.9496 5.22787 35.3281 6.61478C39.0013 10.288 39.0013 16.2475 35.3281 19.9291C33.4621 21.7952 31.0077 22.7114 28.5701 22.6862C31.5372 23.2577 34.7145 22.392 37.0092 20.0973C40.6824 16.4156 40.6824 10.4561 37.0092 6.78289Z" fill="#F7D6A1"/>
<path opacity="0.7" d="M33.136 18.4687C35.8933 15.7114 35.8773 11.2249 33.1003 8.44786C30.3233 5.67084 25.8368 5.65488 23.0795 8.4122C20.3222 11.1695 20.3381 15.656 23.1152 18.433C25.8922 21.2101 30.3787 21.226 33.136 18.4687Z" fill="white"/>
<path d="M38.2532 8.97674C37.9927 8.64052 37.4883 7.71591 37.1773 7.40491C33.4789 3.75691 27.5194 3.79053 23.8714 7.49737C23.1485 8.22865 22.5685 9.05239 22.1398 9.93497C27.326 8.11097 33.0082 8.54806 38.2532 8.97674Z" fill="#EFCA92"/>
<path d="M30.3521 22.8543C35.5514 22.8543 39.7663 18.6394 39.7663 13.4401C39.7663 8.24076 35.5514 4.02588 30.3521 4.02588C25.1527 4.02588 20.9379 8.24076 20.9379 13.4401C20.9379 18.6394 25.1527 22.8543 30.3521 22.8543Z" stroke="#413D51" stroke-width="1.34488" stroke-miterlimit="10" stroke-linecap="round" stroke-linejoin="round"/>
<path d="M30.3521 22.8543C35.5514 22.8543 39.7663 18.6394 39.7663 13.4401C39.7663 8.24076 35.5514 4.02588 30.3521 4.02588C25.1527 4.02588 20.9379 8.24076 20.9379 13.4401C20.9379 18.6394 25.1527 22.8543 30.3521 22.8543Z" stroke="#413D51" stroke-width="1.34488" stroke-miterlimit="10" stroke-linecap="round" stroke-linejoin="round"/>
<path d="M37.8582 7.75828C37.5976 7.42205 37.3202 7.09424 37.0092 6.78323C33.336 3.11002 27.3765 3.11002 23.6949 6.78323C22.9636 7.51451 22.3836 8.32985 21.9465 9.20402C27.158 7.42205 32.6132 7.28757 37.8582 7.75828Z" fill="#413D51"/>
<path d="M25.771 17.6764C27.7208 17.6764 29.3014 16.0958 29.3014 14.146C29.3014 12.1963 27.7208 10.6157 25.771 10.6157C23.8213 10.6157 22.2407 12.1963 22.2407 14.146C22.2407 16.0958 23.8213 17.6764 25.771 17.6764Z" fill="#413D51"/>
<path d="M23.7705 15.3482C24.4204 15.3482 24.9473 14.8213 24.9473 14.1714C24.9473 13.5215 24.4204 12.9946 23.7705 12.9946C23.1206 12.9946 22.5938 13.5215 22.5938 14.1714C22.5938 14.8213 23.1206 15.3482 23.7705 15.3482Z" fill="white"/>
<path d="M11.1372 4.04301L1.99194 3.76562C3.31161 7.069 3.48813 12.0367 2.33657 17.4666C3.79913 20.5599 6.90918 22.7537 10.5656 22.863C15.7602 23.0227 20.1059 18.9376 20.2572 13.7346C20.4169 8.53997 16.3318 4.20271 11.1372 4.04301Z" fill="#413D51"/>
<path d="M11.1372 4.04301L1.99194 3.76562C3.31161 7.069 3.48813 12.0367 2.33657 17.4666C3.79913 20.5599 6.90918 22.7537 10.5656 22.863C15.7602 23.0227 20.1059 18.9376 20.2572 13.7346C20.4169 8.53997 16.3318 4.20271 11.1372 4.04301Z" stroke="#413D51" stroke-width="1.34488" stroke-miterlimit="10" stroke-linecap="round" stroke-linejoin="round"/>
<path d="M10.8009 22.8548C16.0002 22.8548 20.2151 18.6399 20.2151 13.4406C20.2151 8.24125 16.0002 4.02637 10.8009 4.02637C5.6016 4.02637 1.38672 8.24125 1.38672 13.4406C1.38672 18.6399 5.6016 22.8548 10.8009 22.8548Z" fill="#F7E8AD"/>
<path d="M10.8009 22.8548C16.0002 22.8548 20.2151 18.6399 20.2151 13.4406C20.2151 8.24125 16.0002 4.02637 10.8009 4.02637C5.6016 4.02637 1.38672 8.24125 1.38672 13.4406C1.38672 18.6399 5.6016 22.8548 10.8009 22.8548Z" fill="#F7E8AD"/>
<path d="M4.14377 6.78338C5.95096 4.97619 8.32132 4.05999 10.6917 4.02637C8.9097 4.37099 7.20338 5.22836 5.82487 6.61527C2.15166 10.2885 2.15166 16.248 5.82487 19.9296C7.6909 21.7957 10.1453 22.7119 12.5829 22.6866C9.61577 23.2582 6.43848 22.3924 4.14377 20.0977C0.470551 16.4161 0.470551 10.4566 4.14377 6.78338Z" fill="#F7D6A1"/>
<path opacity="0.7" d="M18.0386 18.4349C20.8156 15.6579 20.8316 11.1714 18.0743 8.41412C15.317 5.65679 10.8305 5.67276 8.05345 8.44978C5.27643 11.2268 5.26046 15.7133 8.01779 18.4706C10.7751 21.2279 15.2616 21.212 18.0386 18.4349Z" fill="white"/>
<path opacity="0.89" d="M2.90814 8.97723C3.16871 8.64101 3.67305 7.7164 3.98405 7.4054C7.68248 3.7574 13.642 3.79102 17.29 7.49786C18.0129 8.22914 18.5929 9.05288 19.0215 9.93546C13.8269 8.11146 8.14479 8.54855 2.90814 8.97723Z" fill="#EFCA92"/>
<path d="M10.8009 22.8548C16.0002 22.8548 20.2151 18.6399 20.2151 13.4406C20.2151 8.24125 16.0002 4.02637 10.8009 4.02637C5.6016 4.02637 1.38672 8.24125 1.38672 13.4406C1.38672 18.6399 5.6016 22.8548 10.8009 22.8548Z" stroke="#413D51" stroke-width="1.34488" stroke-miterlimit="10" stroke-linecap="round" stroke-linejoin="round"/>
<path d="M10.8009 22.8548C16.0002 22.8548 20.2151 18.6399 20.2151 13.4406C20.2151 8.24125 16.0002 4.02637 10.8009 4.02637C5.6016 4.02637 1.38672 8.24125 1.38672 13.4406C1.38672 18.6399 5.6016 22.8548 10.8009 22.8548Z" stroke="#413D51" stroke-width="1.34488" stroke-miterlimit="10" stroke-linecap="round" stroke-linejoin="round"/>
<path d="M3.30316 7.75828C3.56373 7.42205 3.84112 7.09424 4.15212 6.78323C7.82534 3.11002 13.7849 3.11002 17.4665 6.78323C18.1978 7.51451 18.7777 8.32985 19.2148 9.20402C14.0034 7.42205 8.53981 7.28757 3.30316 7.75828Z" fill="#413D51"/>
<path d="M15.3903 17.6769C17.3401 17.6769 18.9206 16.0963 18.9206 14.1465C18.9206 12.1968 17.3401 10.6162 15.3903 10.6162C13.4406 10.6162 11.86 12.1968 11.86 14.1465C11.86 16.0963 13.4406 17.6769 15.3903 17.6769Z" fill="#413D51"/>
<path d="M17.3908 15.3487C18.0407 15.3487 18.5676 14.8218 18.5676 14.1719C18.5676 13.522 18.0407 12.9951 17.3908 12.9951C16.7409 12.9951 16.2141 13.522 16.2141 14.1719C16.2141 14.8218 16.7409 15.3487 17.3908 15.3487Z" fill="white"/>
<path d="M16.1048 37.6984C15.3651 37.6984 14.7599 37.0932 14.7599 36.3535V34.8405C14.7599 34.1008 15.3651 33.4956 16.1048 33.4956C16.8445 33.4956 17.4497 34.1008 17.4497 34.8405V36.3535C17.4497 37.0932 16.8529 37.6984 16.1048 37.6984Z" fill="#413D51"/>
<path d="M13.415 37.6984C12.6753 37.6984 12.0701 37.0932 12.0701 36.3535V34.8405C12.0701 34.1008 12.6753 33.4956 13.415 33.4956C14.1546 33.4956 14.7598 34.1008 14.7598 34.8405V36.3535C14.7598 37.0932 14.163 37.6984 13.415 37.6984Z" fill="#413D51"/>
<path d="M18.7777 37.6984C18.0381 37.6984 17.4329 37.0932 17.4329 36.3535V34.8405C17.4329 34.1008 18.0381 33.4956 18.7777 33.4956C19.5174 33.4956 20.1226 34.1008 20.1226 34.8405V36.3535C20.1226 37.0932 19.5174 37.6984 18.7777 37.6984Z" fill="#413D51"/>
<path d="M22.3248 37.6984C21.5851 37.6984 20.9799 37.0932 20.9799 36.3535V34.8405C20.9799 34.1008 21.5851 33.4956 22.3248 33.4956C23.0645 33.4956 23.6697 34.1008 23.6697 34.8405V36.3535C23.6697 37.0932 23.0645 37.6984 22.3248 37.6984Z" fill="#413D51"/>
<path d="M24.9978 37.6984C24.2581 37.6984 23.6529 37.0932 23.6529 36.3535V34.8405C23.6529 34.1008 24.2581 33.4956 24.9978 33.4956C25.7375 33.4956 26.3427 34.1008 26.3427 34.8405V36.3535C26.3427 37.0932 25.7375 37.6984 24.9978 37.6984Z" fill="#413D51"/>
<path d="M27.6875 37.6984C26.9478 37.6984 26.3427 37.0932 26.3427 36.3535V34.8405C26.3427 34.1008 26.9478 33.4956 27.6875 33.4956C28.4272 33.4956 29.0324 34.1008 29.0324 34.8405V36.3535C29.0324 37.0932 28.4272 37.6984 27.6875 37.6984Z" fill="#413D51"/>
<path d="M19.8032 26.7124C19.8032 27.4185 19.2316 27.99 18.5256 27.99C17.8195 27.99 17.2479 27.4185 17.2479 26.7124" stroke="#413D51" stroke-width="0.672442" stroke-miterlimit="10" stroke-linecap="round" stroke-linejoin="round"/>
<path d="M23.7117 26.7124C23.7117 27.4185 23.1401 27.99 22.4341 27.99C21.728 27.99 21.1564 27.4185 21.1564 26.7124" stroke="#413D51" stroke-width="0.672442" stroke-miterlimit="10" stroke-linecap="round" stroke-linejoin="round"/>
<path opacity="0.31" d="M5.60625 23.4511C5.42133 23.8462 4.95903 24.0227 4.55556 23.8378C4.1521 23.6529 3.98399 23.1906 4.16891 22.7871" stroke="#72C8D6" stroke-width="0.672442" stroke-miterlimit="10" stroke-linecap="round" stroke-linejoin="round"/>
<path opacity="0.31" d="M8.11106 24.7539C7.92613 25.1489 7.46383 25.3255 7.06036 25.1405C6.6653 24.9556 6.48879 24.4933 6.67371 24.0898" stroke="#72C8D6" stroke-width="0.672442" stroke-miterlimit="10" stroke-linecap="round" stroke-linejoin="round"/>
<path opacity="0.31" d="M6.65696 25.7544C6.47203 26.1494 6.00973 26.3259 5.60626 26.141C5.2112 25.9561 5.03469 25.4938 5.21961 25.0903" stroke="#72C8D6" stroke-width="0.672442" stroke-miterlimit="10" stroke-linecap="round" stroke-linejoin="round"/>
<path opacity="0.31" d="M8.85923 27.4272C8.6743 27.8223 8.212 27.9988 7.80854 27.8139C7.41348 27.629 7.23696 27.1666 7.42188 26.7632" stroke="#72C8D6" stroke-width="0.672442" stroke-miterlimit="10" stroke-linecap="round" stroke-linejoin="round"/>
<path opacity="0.31" d="M10.5403 25.914C10.3553 26.3091 9.89303 26.4856 9.48957 26.3007C9.09451 26.1158 8.91799 25.6535 9.10291 25.25" stroke="#72C8D6" stroke-width="0.672442" stroke-miterlimit="10" stroke-linecap="round" stroke-linejoin="round"/>
<path opacity="0.31" d="M35.925 23.6191C36.1099 24.0142 36.5722 24.1907 36.9757 24.0058C37.3791 23.8208 37.5473 23.3585 37.3623 22.9551" stroke="#72C8D6" stroke-width="0.672442" stroke-miterlimit="10" stroke-linecap="round" stroke-linejoin="round"/>
<path opacity="0.31" d="M33.4285 24.9223C33.6134 25.3174 34.0758 25.4939 34.4792 25.309C34.8743 25.1241 35.0508 24.6618 34.8659 24.2583" stroke="#72C8D6" stroke-width="0.672442" stroke-miterlimit="10" stroke-linecap="round" stroke-linejoin="round"/>
<path opacity="0.31" d="M34.8743 25.9223C35.0592 26.3174 35.5215 26.4939 35.925 26.309C36.32 26.1241 36.4965 25.6618 36.3116 25.2583" stroke="#72C8D6" stroke-width="0.672442" stroke-miterlimit="10" stroke-linecap="round" stroke-linejoin="round"/>
<path opacity="0.31" d="M32.6804 27.5952C32.8653 27.9902 33.3276 28.1668 33.7311 27.9818C34.1262 27.7969 34.3027 27.3346 34.1178 26.9312" stroke="#72C8D6" stroke-width="0.672442" stroke-miterlimit="10" stroke-linecap="round" stroke-linejoin="round"/>
<path opacity="0.31" d="M30.9993 26.082C31.1843 26.4771 31.6466 26.6536 32.05 26.4687C32.4451 26.2837 32.6216 25.8214 32.4367 25.418" stroke="#72C8D6" stroke-width="0.672442" stroke-miterlimit="10" stroke-linecap="round" stroke-linejoin="round"/>
<path d="M17.8531 29.7808C17.8531 30.4868 17.2815 31.0584 16.5754 31.0584C15.8694 31.0584 15.2978 30.4868 15.2978 29.7808" stroke="#413D51" stroke-width="0.672442" stroke-miterlimit="10" stroke-linecap="round" stroke-linejoin="round"/>
<path d="M21.7616 29.7808C21.7616 30.4868 21.1901 31.0584 20.484 31.0584C19.7779 31.0584 19.2064 30.4868 19.2064 29.7808" stroke="#413D51" stroke-width="0.672442" stroke-miterlimit="10" stroke-linecap="round" stroke-linejoin="round"/>
<path d="M25.6702 29.7808C25.6702 30.4868 25.0986 31.0584 24.3926 31.0584C23.6865 31.0584 23.1149 30.4868 23.1149 29.7808" stroke="#413D51" stroke-width="0.672442" stroke-miterlimit="10" stroke-linecap="round" stroke-linejoin="round"/>
</svg>
