<svg width="34" height="60" viewBox="0 0 34 60" fill="none" xmlns="http://www.w3.org/2000/svg">
<path opacity="0.86" d="M16.3259 59.5C25.3424 59.5 32.6517 58.4847 32.6517 57.2322C32.6517 55.9797 25.3424 54.9644 16.3259 54.9644C7.30934 54.9644 0 55.9797 0 57.2322C0 58.4847 7.30934 59.5 16.3259 59.5Z" fill="#2D2C3A"/>
<path d="M32.3346 19.5815H31.9445C31.725 19.5815 31.5177 19.6791 31.3958 19.8498C30.7862 20.7276 30.7008 21.764 30.7008 22.8735C30.7008 23.9831 30.7862 25.0194 31.3958 25.8973C31.5177 26.068 31.725 26.1655 31.9445 26.1655H32.3346C32.5663 26.1655 32.7857 25.9948 32.8345 25.7876C33.2003 23.8611 33.1027 21.8737 32.8345 19.9595C32.7979 19.7522 32.5663 19.5815 32.3346 19.5815Z" fill="#8E9091"/>
<path opacity="0.91" d="M32.3346 19.5815H31.9445C31.725 19.5815 31.5177 19.6791 31.3958 19.8498C30.7862 20.7276 30.7008 21.764 30.7008 22.8735C30.7008 23.9831 30.7862 25.0194 31.3958 25.8973C31.5177 26.068 31.725 26.1655 31.9445 26.1655H32.3346C32.5663 26.1655 32.7857 25.9948 32.8345 25.7876C33.2003 23.8611 33.1027 21.8737 32.8345 19.9595C32.7979 19.7522 32.5663 19.5815 32.3346 19.5815Z" fill="#95A0C6"/>
<path d="M32.3346 19.5815H31.9445C31.725 19.5815 31.5177 19.6791 31.3958 19.8498C30.7862 20.7276 30.7008 21.764 30.7008 22.8735C30.7008 23.9831 30.7862 25.0194 31.3958 25.8973C31.5177 26.068 31.725 26.1655 31.9445 26.1655H32.3346C32.5663 26.1655 32.7857 25.9948 32.8345 25.7876C33.2003 23.8611 33.1027 21.8737 32.8345 19.9595C32.7979 19.7522 32.5663 19.5815 32.3346 19.5815Z" stroke="#192244" stroke-width="0.731555" stroke-miterlimit="10" stroke-linecap="round" stroke-linejoin="round"/>
<path d="M26.3115 9.8762C25.897 8.49844 25.8482 7.21822 25.7995 6.36474C25.7629 5.63318 25.7873 3.43851 25.1776 2.8045C24.6412 2.24364 24.1413 1.85348 21.7028 1.4877C20.386 1.29262 18.3132 1.03658 16.3624 1C14.4116 1.03658 12.3388 1.28043 11.0221 1.4877C8.58353 1.85348 8.09583 2.24364 7.54716 2.8045C6.93754 3.42632 6.96192 5.62099 6.92534 6.36474C6.87657 7.21822 6.8278 8.49844 6.41326 9.8762C6.21818 10.5224 5.97432 11.1442 5.6817 11.7417H16.3746H27.0675C26.7505 11.1564 26.5066 10.5224 26.3115 9.8762Z" fill="#55C9FF"/>
<path d="M26.3115 9.8762C25.897 8.49844 25.8482 7.21822 25.7995 6.36474C25.7629 5.63318 25.7873 3.43851 25.1776 2.8045C24.6412 2.24364 24.1413 1.85348 21.7028 1.4877C20.386 1.29262 18.3132 1.03658 16.3624 1C14.4116 1.03658 12.3388 1.28043 11.0221 1.4877C8.58353 1.85348 8.09583 2.24364 7.54716 2.8045C6.93754 3.42632 6.96192 5.62099 6.92534 6.36474C6.87657 7.21822 6.8278 8.49844 6.41326 9.8762C6.21818 10.5224 5.97432 11.1442 5.6817 11.7417H16.3746H27.0675C26.7505 11.1564 26.5066 10.5224 26.3115 9.8762Z" stroke="#26A7BC" stroke-width="0.487703" stroke-miterlimit="10" stroke-linecap="round" stroke-linejoin="round"/>
<path d="M26.3115 48.9045C25.897 50.2823 25.8482 51.5625 25.7995 52.416C25.7629 53.1475 25.7873 55.3422 25.1776 55.9762C24.6412 56.5371 24.1413 56.9272 21.7028 57.293C20.386 57.4881 18.3132 57.7442 16.3624 57.7807C14.4116 57.7442 12.3388 57.5003 11.0221 57.293C8.58353 56.9272 8.09583 56.5371 7.54716 55.9762C6.93754 55.3544 6.96192 53.1597 6.92534 52.416C6.87657 51.5625 6.8278 50.2823 6.41326 48.9045C6.21818 48.2583 5.97432 47.6365 5.6817 47.0391H16.3746H27.0675C26.7505 47.6365 26.5066 48.2583 26.3115 48.9045Z" fill="#49C6F2"/>
<path d="M5.66943 47.0391C5.94986 47.5999 6.18152 48.1974 6.3766 48.807H26.348C26.5431 48.1974 26.7748 47.5999 27.0552 47.0391H16.3623H5.66943Z" fill="#26A7BC"/>
<path d="M26.3115 48.9045C25.897 50.2823 25.8482 51.5625 25.7995 52.416C25.7629 53.1475 25.7873 55.3422 25.1776 55.9762C24.6412 56.5371 24.1413 56.9272 21.7028 57.293C20.386 57.4881 18.3132 57.7442 16.3624 57.7807C14.4116 57.7442 12.3388 57.5003 11.0221 57.293C8.58353 56.9272 8.09583 56.5371 7.54716 55.9762C6.93754 55.3544 6.96192 53.1597 6.92534 52.416C6.87657 51.5625 6.8278 50.2823 6.41326 48.9045C6.21818 48.2583 5.97432 47.6365 5.6817 47.0391H16.3746H27.0675C26.7505 47.6365 26.5066 48.2583 26.3115 48.9045Z" stroke="#26A7BC" stroke-width="0.487703" stroke-miterlimit="10" stroke-linecap="round" stroke-linejoin="round"/>
<path d="M26.0433 47.0391H6.60833C3.64553 47.0391 1.24359 44.6372 1.24359 41.6744V17.0454C1.24359 14.0826 3.64553 11.6807 6.60833 11.6807H26.0433C29.0061 11.6807 31.408 14.0826 31.408 17.0454V41.6744C31.408 44.6372 29.0061 47.0391 26.0433 47.0391Z" fill="#404A6E"/>
<path d="M26.0433 44.8447H6.60833C3.64553 44.8447 1.24359 42.4428 1.24359 39.48V41.6746C1.24359 44.6374 3.64553 47.0394 6.60833 47.0394H26.0433C29.0061 47.0394 31.408 44.6374 31.408 41.6746V39.48C31.408 42.4428 29.0061 44.8447 26.0433 44.8447Z" fill="#273052"/>
<path d="M3.14563 41.6743V17.0453C3.14563 15.1554 4.6697 13.6313 6.55955 13.6313H26.0921C27.9819 13.6313 29.506 15.1554 29.506 17.0453V41.6743C29.506 43.5641 27.9819 45.0882 26.0921 45.0882H6.55955C4.6697 45.0882 3.14563 43.5641 3.14563 41.6743Z" fill="#404A6E"/>
<path d="M3.14563 41.6743V17.0453C3.14563 15.1554 4.6697 13.6313 6.55955 13.6313H26.0921C27.9819 13.6313 29.506 15.1554 29.506 17.0453V41.6743C29.506 43.5641 27.9819 45.0882 26.0921 45.0882H6.55955C4.6697 45.0882 3.14563 43.5641 3.14563 41.6743Z" stroke="#192244" stroke-width="0.487703" stroke-miterlimit="10" stroke-linecap="round" stroke-linejoin="round"/>
<path opacity="0.91" d="M29.0304 12.4976C28.177 11.9855 27.1528 11.6807 26.0433 11.6807H6.60829C5.4378 11.6807 4.35266 12.0221 3.47479 12.5951C4.20635 13.8022 5.63288 14.6069 7.26669 14.6069H25.1776C26.8602 14.6069 28.3111 13.7534 29.0304 12.4976Z" fill="#6D7493"/>
<path opacity="0.91" d="M32.4809 30.3233C32.4809 30.116 32.2858 29.9575 32.0664 29.9575C31.8469 29.9575 31.6396 29.9575 31.4202 29.9575V40.1139C31.6396 40.1139 31.8469 40.1139 32.0664 40.1139C32.298 40.1139 32.4809 39.9554 32.4809 39.7482C32.5419 36.6147 32.5419 33.469 32.4809 30.3233Z" fill="#6D7493"/>
<path d="M32.4809 30.3233C32.4809 30.116 32.2858 29.9575 32.0664 29.9575C31.8469 29.9575 31.6396 29.9575 31.4202 29.9575V40.1139C31.6396 40.1139 31.8469 40.1139 32.0664 40.1139C32.298 40.1139 32.4809 39.9554 32.4809 39.7482C32.5419 36.6147 32.5419 33.469 32.4809 30.3233Z" stroke="#192244" stroke-width="0.731555" stroke-miterlimit="10" stroke-linecap="round" stroke-linejoin="round"/>
<path d="M26.0433 47.0391H6.60833C3.64553 47.0391 1.24359 44.6372 1.24359 41.6744V17.0454C1.24359 14.0826 3.64553 11.6807 6.60833 11.6807H26.0433C29.0061 11.6807 31.408 14.0826 31.408 17.0454V41.6744C31.408 44.6372 29.0061 47.0391 26.0433 47.0391Z" stroke="#192244" stroke-width="0.853481" stroke-miterlimit="10" stroke-linecap="round" stroke-linejoin="round"/>
<path d="M9.13213 21.508V22.3859C9.13213 22.6541 8.91266 22.8736 8.64443 22.8736H6.77896C6.51073 22.8736 6.29126 22.6541 6.29126 22.3859V20.5204C6.29126 20.2522 6.51073 20.0327 6.77896 20.0327H8.09576" stroke="#F6537F" stroke-width="0.487703" stroke-miterlimit="10" stroke-linecap="round" stroke-linejoin="round"/>
<path d="M7.10822 21.0932L7.82758 21.8003L9.13218 20.1787" stroke="#F6537F" stroke-width="0.609629" stroke-miterlimit="10" stroke-linecap="round" stroke-linejoin="round"/>
<path d="M6.03522 25.2998H14.0336" stroke="#F6537F" stroke-width="0.243852" stroke-miterlimit="10" stroke-linejoin="round"/>
<path d="M9.6565 26.2144V30.3476C9.6565 30.5183 9.6443 30.6768 9.63211 30.8231C9.60773 30.9695 9.58334 31.0914 9.54676 31.2011C9.47361 31.3718 9.38826 31.5181 9.26633 31.6644C9.14441 31.8108 9.01029 31.9205 8.85179 32.018C8.69328 32.1156 8.52259 32.1887 8.3275 32.2497C8.13242 32.3106 7.93734 32.335 7.71788 32.335C7.08386 32.335 6.55958 32.0424 6.15723 31.4572L7.16921 30.4208C7.19359 30.6037 7.25456 30.7378 7.33991 30.8475C7.42526 30.9573 7.53499 31.006 7.66911 31.006C7.96173 31.006 8.10804 30.7744 8.10804 30.3233V26.2144H9.6565V26.2144Z" fill="#2EC2F1"/>
<path d="M12.0096 28.1162V30.3962C12.0096 30.8961 12.2534 31.14 12.7411 31.14C13.2288 31.14 13.4727 30.8961 13.4727 30.3962V28.1162H14.8992V30.6767C14.8992 31.2253 14.7163 31.6399 14.3627 31.9081C13.997 32.1763 13.4605 32.3226 12.7533 32.3226C12.034 32.3226 11.4975 32.1885 11.1439 31.9081C10.7781 31.6399 10.6074 31.2253 10.6074 30.6767V28.1162H12.0096Z" fill="#2EC2F1"/>
<path d="M18.3619 29.1651C18.0937 29.031 17.8377 28.9578 17.5938 28.9578C17.4597 28.9578 17.35 28.9822 17.2768 29.031C17.1914 29.0797 17.1549 29.1529 17.1549 29.2382C17.1549 29.287 17.1671 29.3236 17.1793 29.348C17.1914 29.3724 17.2158 29.4089 17.2646 29.4333C17.3134 29.4577 17.3743 29.4821 17.4597 29.5065C17.545 29.5309 17.667 29.5553 17.8011 29.5796C18.1912 29.6528 18.4961 29.7991 18.6789 30.0064C18.874 30.2137 18.9716 30.4697 18.9716 30.7867C18.9716 31.0184 18.9228 31.2378 18.8253 31.4207C18.7277 31.6036 18.5936 31.7743 18.4351 31.8962C18.2644 32.0303 18.0693 32.1279 17.8255 32.201C17.5938 32.2742 17.3256 32.3108 17.0451 32.3108C16.4965 32.3108 15.96 32.1523 15.4235 31.8475L15.9478 30.8355C16.3502 31.1037 16.7281 31.25 17.0817 31.25C17.2158 31.25 17.3256 31.2256 17.4109 31.1647C17.4963 31.1037 17.5328 31.0306 17.5328 30.9452C17.5328 30.8964 17.5206 30.8477 17.5085 30.8111C17.4963 30.7745 17.4719 30.7501 17.4231 30.7135C17.3865 30.6892 17.3134 30.6526 17.2402 30.6404C17.1549 30.616 17.0573 30.5916 16.9232 30.5672C16.4843 30.4819 16.1673 30.3478 15.9966 30.1649C15.8259 29.9942 15.7283 29.7503 15.7283 29.4333C15.7283 29.2017 15.7649 29.0066 15.8503 28.8237C15.9356 28.6408 16.0575 28.4823 16.216 28.3604C16.3745 28.2385 16.5696 28.1409 16.7891 28.0678C17.0086 27.9946 17.2646 27.9702 17.5328 27.9702C17.984 27.9702 18.4107 28.0556 18.8374 28.2263L18.3619 29.1651Z" fill="#2EC2F1"/>
<path d="M21.2028 29.3111V32.1642H19.7763V29.3111H19.3008V28.1162H19.7763V26.897H21.2028V28.1162H22.0197V29.3111H21.2028Z" fill="#2EC2F1"/>
<path d="M6.59607 34.1758H8.88827C9.29063 34.1758 9.6686 34.2611 10.0344 34.4196C10.388 34.5781 10.705 34.7976 10.961 35.0658C11.2292 35.3341 11.4365 35.6511 11.5828 36.0169C11.7413 36.3826 11.8145 36.7606 11.8145 37.1508C11.8145 37.5409 11.7413 37.9189 11.595 38.2725C11.4487 38.6261 11.2414 38.9553 10.9732 39.2235C10.705 39.4917 10.4002 39.7112 10.0466 39.8819C9.69298 40.0404 9.30282 40.1258 8.90047 40.1258H6.60826V34.1758H6.59607ZM8.14452 38.809H8.49811C8.76635 38.809 9.0102 38.7724 9.21747 38.687C9.42475 38.6017 9.60764 38.492 9.75395 38.3456C9.90026 38.1993 10.01 38.0286 10.0831 37.8214C10.1563 37.6141 10.1929 37.3946 10.1929 37.1508C10.1929 36.9191 10.1563 36.6875 10.071 36.4924C9.9978 36.2851 9.87587 36.1144 9.72956 35.9681C9.58325 35.8218 9.41255 35.6999 9.19309 35.6267C8.98581 35.5414 8.74196 35.5048 8.48592 35.5048H8.13234V38.809H8.14452Z" fill="white"/>
<path d="M12.3145 38.0653C12.3145 37.7605 12.3754 37.4801 12.4973 37.224C12.6193 36.968 12.79 36.7363 12.9972 36.5413C13.2167 36.3462 13.4727 36.1999 13.7654 36.0901C14.058 35.9804 14.3872 35.9194 14.7408 35.9194C15.0822 35.9194 15.4114 35.9682 15.704 36.0779C15.9966 36.1877 16.2648 36.334 16.4721 36.5291C16.6916 36.7241 16.8623 36.9558 16.9842 37.2119C17.1061 37.4801 17.1671 37.7727 17.1671 38.0897C17.1671 38.4067 17.1061 38.6993 16.9842 38.9676C16.8623 39.2358 16.6916 39.4675 16.4721 39.6504C16.2527 39.8454 15.9966 39.9918 15.6918 40.1015C15.387 40.2112 15.0578 40.26 14.7042 40.26C14.3628 40.26 14.0336 40.2112 13.741 40.1015C13.4484 39.9918 13.1923 39.8454 12.985 39.6504C12.7778 39.4553 12.6071 39.2236 12.4851 38.9554C12.3754 38.6993 12.3145 38.3945 12.3145 38.0653ZM13.8263 38.0775C13.8263 38.2116 13.8507 38.3336 13.8995 38.4555C13.9483 38.5652 14.0092 38.6628 14.0946 38.7481C14.1799 38.8335 14.2775 38.8944 14.3872 38.9432C14.4969 38.992 14.6189 39.0164 14.7408 39.0164C14.8627 39.0164 14.9846 38.992 15.0944 38.9432C15.2041 38.8944 15.3016 38.8335 15.387 38.7481C15.4723 38.6628 15.5333 38.5652 15.5821 38.4555C15.6308 38.3458 15.6552 38.2238 15.6552 38.0897C15.6552 37.9678 15.6308 37.8459 15.5821 37.7361C15.5333 37.6264 15.4723 37.5289 15.387 37.4435C15.3016 37.3582 15.2041 37.2972 15.0944 37.2484C14.9846 37.1997 14.8627 37.1753 14.7408 37.1753C14.6189 37.1753 14.4969 37.1997 14.3872 37.2484C14.2775 37.2972 14.1799 37.3582 14.0946 37.4435C14.0092 37.5289 13.9483 37.6264 13.8995 37.7361C13.8507 37.8337 13.8263 37.9556 13.8263 38.0775Z" fill="white"/>
<path d="M21.9831 34.1758V40.1258H20.4346V34.1758H21.9831Z" fill="white"/>
<path d="M24.507 37.2603V40.1134H23.0805V37.2603H22.605V36.0654H23.0805V34.8462H24.507V36.0654H25.3239V37.2603H24.507Z" fill="white"/>
<path d="M25.5921 39.3578C25.5921 39.2359 25.6165 39.114 25.6653 39.0042C25.714 38.8945 25.775 38.7969 25.8603 38.7116C25.9457 38.6262 26.0432 38.5653 26.153 38.5165C26.2627 38.4677 26.3846 38.4434 26.5065 38.4434C26.6285 38.4434 26.7504 38.4677 26.8601 38.5165C26.9699 38.5653 27.0674 38.6262 27.1528 38.7116C27.2381 38.7969 27.2991 38.8945 27.3478 39.0042C27.3966 39.114 27.421 39.2359 27.421 39.3578C27.421 39.4797 27.3966 39.6017 27.3478 39.7114C27.2991 39.8211 27.2381 39.9187 27.1528 40.004C27.0674 40.0894 26.9699 40.1503 26.8601 40.1991C26.7504 40.2479 26.6285 40.2722 26.5065 40.2722C26.3846 40.2722 26.2627 40.2479 26.153 40.1991C26.0432 40.1503 25.9457 40.0894 25.8603 40.004C25.775 39.9187 25.714 39.8211 25.6653 39.7114C25.6165 39.6139 25.5921 39.4919 25.5921 39.3578Z" fill="white"/>
<path d="M22.2514 16.4846C22.2514 16.9113 22.0929 17.1551 21.8125 17.1551C21.5686 17.1551 21.3979 16.9235 21.3979 16.5089C21.3979 16.0822 21.5808 15.8505 21.8369 15.8505C22.1051 15.8383 22.2514 16.0822 22.2514 16.4846ZM21.5686 16.5089C21.5686 16.8381 21.6662 17.021 21.8247 17.021C21.9954 17.021 22.0807 16.8137 22.0807 16.4967C22.0807 16.1797 21.9954 15.9847 21.8247 15.9847C21.6784 15.9725 21.5686 16.1553 21.5686 16.5089Z" fill="white"/>
<path d="M23.1658 16.0091H22.6781L22.6293 16.3383C22.6537 16.3383 22.6903 16.3261 22.7269 16.3261C22.8244 16.3261 22.922 16.3505 22.9951 16.3993C23.0927 16.4602 23.178 16.57 23.178 16.7285C23.178 16.9723 22.9829 17.1674 22.7025 17.1674C22.5684 17.1674 22.4465 17.1308 22.3855 17.0943L22.4343 16.9601C22.483 16.9967 22.5928 17.0333 22.7025 17.0333C22.861 17.0333 23.0073 16.9236 23.0073 16.7529C23.0073 16.5944 22.8976 16.4724 22.6415 16.4724C22.5684 16.4724 22.5074 16.4846 22.4708 16.4846L22.5562 15.875H23.1658V16.0091V16.0091Z" fill="white"/>
<path d="M23.434 16.3504C23.434 16.2773 23.4828 16.2285 23.5559 16.2285C23.6291 16.2285 23.6657 16.2773 23.6657 16.3504C23.6657 16.4236 23.6169 16.4724 23.5437 16.4724C23.4706 16.4724 23.434 16.4114 23.434 16.3504ZM23.434 17.0332C23.434 16.9601 23.4828 16.9113 23.5559 16.9113C23.6291 16.9113 23.6657 16.9601 23.6657 17.0332C23.6657 17.1064 23.6169 17.1552 23.5437 17.1552C23.4706 17.1552 23.434 17.1064 23.434 17.0332Z" fill="white"/>
<path d="M24.5802 16.0091H24.0925L24.0437 16.3383C24.0681 16.3383 24.1047 16.3261 24.1413 16.3261C24.2388 16.3261 24.3363 16.3505 24.4095 16.3993C24.507 16.4602 24.5924 16.57 24.5924 16.7285C24.5924 16.9723 24.3973 17.1674 24.1169 17.1674C23.9828 17.1674 23.8608 17.1308 23.7999 17.0943L23.8486 16.9601C23.8974 16.9967 24.0071 17.0333 24.1169 17.0333C24.2754 17.0333 24.4217 16.9236 24.4217 16.7529C24.4217 16.5944 24.312 16.4724 24.0559 16.4724C23.9828 16.4724 23.9218 16.4846 23.8852 16.4846L23.9706 15.875H24.5802V16.0091V16.0091Z" fill="white"/>
<path d="M24.824 17.1308V17.0211L24.9581 16.8869C25.2873 16.5821 25.4336 16.4114 25.4336 16.2285C25.4336 16.0944 25.3726 15.9847 25.1776 15.9847C25.0678 15.9847 24.9703 16.0457 24.9093 16.0944L24.8606 15.9725C24.9459 15.8993 25.0678 15.8384 25.2141 15.8384C25.4824 15.8384 25.6043 16.0213 25.6043 16.2042C25.6043 16.4358 25.4336 16.6309 25.1654 16.8869L25.0678 16.9845H25.6409V17.1308H24.824Z" fill="white"/>
<path d="M7.26674 15.9603H6.86438V15.814H7.83979V15.9603H7.43743V17.1308H7.26674V15.9603Z" fill="white"/>
<path d="M8.6933 16.6552C8.6933 17.0088 8.44944 17.1551 8.21779 17.1551C7.96174 17.1551 7.76666 16.9722 7.76666 16.6674C7.76666 16.3504 7.97393 16.1675 8.22998 16.1675C8.51041 16.1675 8.6933 16.3626 8.6933 16.6552ZM7.93736 16.6674C7.93736 16.8747 8.05928 17.0332 8.22998 17.0332C8.38848 17.0332 8.5226 16.8747 8.5226 16.6674C8.5226 16.5089 8.43725 16.3016 8.24217 16.3016C8.0349 16.3016 7.93736 16.4845 7.93736 16.6674Z" fill="white"/>
<path d="M9.71741 15.7529V16.899C9.71741 16.9844 9.7174 17.0819 9.7296 17.1429H9.57109L9.5589 16.9844C9.51013 17.0941 9.3882 17.1673 9.24189 17.1673C9.01023 17.1673 8.83954 16.9722 8.83954 16.6918C8.83954 16.3747 9.03462 16.1797 9.26628 16.1797C9.41259 16.1797 9.51013 16.2528 9.54671 16.326V15.7651H9.71741V15.7529ZM9.54671 16.5698C9.54671 16.5454 9.54671 16.5211 9.53452 16.4967C9.51013 16.3869 9.41259 16.3016 9.29067 16.3016C9.10778 16.3016 9.01023 16.4601 9.01023 16.6674C9.01023 16.8625 9.10778 17.021 9.29067 17.021C9.4004 17.021 9.51013 16.9478 9.54671 16.8137C9.54671 16.7893 9.5589 16.7649 9.5589 16.7405V16.5698H9.54671Z" fill="white"/>
<path d="M10.5343 17.1307L10.5221 17.0088C10.4734 17.0819 10.3636 17.1551 10.2295 17.1551C10.0344 17.1551 9.93689 17.021 9.93689 16.8868C9.93689 16.6552 10.1442 16.5333 10.5099 16.5333V16.5089C10.5099 16.4357 10.4856 16.2894 10.2905 16.2894C10.2051 16.2894 10.1076 16.3138 10.0466 16.3626L10.01 16.2528C10.0832 16.2041 10.2051 16.1675 10.3149 16.1675C10.6075 16.1675 10.6684 16.3626 10.6684 16.5576V16.9112C10.6684 16.9966 10.6684 17.0697 10.6806 17.1429H10.5343V17.1307ZM10.5099 16.6552C10.3271 16.6552 10.1076 16.6796 10.1076 16.8625C10.1076 16.9722 10.1807 17.021 10.2661 17.021C10.388 17.021 10.4612 16.9478 10.4977 16.8625C10.4977 16.8503 10.5099 16.8259 10.5099 16.8137V16.6552Z" fill="white"/>
<path d="M10.9976 16.1919L11.2049 16.7528C11.2293 16.8137 11.2537 16.8869 11.2659 16.9478C11.278 16.8869 11.3024 16.8137 11.3268 16.7528L11.5097 16.2041H11.6926L11.4365 16.8747C11.3146 17.2039 11.2293 17.3624 11.1074 17.4721C11.022 17.5453 10.9367 17.5697 10.9001 17.5819L10.8513 17.4355C10.9001 17.4233 10.9488 17.399 10.9976 17.3502C11.0464 17.3136 11.1074 17.2527 11.1439 17.1551C11.1561 17.1429 11.1561 17.1185 11.1561 17.1185C11.1561 17.1185 11.1561 17.0941 11.1439 17.0698L10.7903 16.2041H10.9976V16.1919Z" fill="white"/>
<path d="M6.14498 17.1065L5.54755 16.5091L6.14498 15.9116" stroke="#F6537F" stroke-width="0.243852" stroke-miterlimit="10" stroke-linecap="round" stroke-linejoin="round"/>
</svg>
