<svg width="47" height="58" viewBox="0 0 47 58" fill="none" xmlns="http://www.w3.org/2000/svg">
<path opacity="0.23" d="M41.6499 26.9901C41.6499 26.327 42.1918 25.7851 42.8549 25.7851H43.0189V22.8188H41.7925C40.7015 22.8188 39.8174 23.703 39.8174 24.7939V28.7513C39.8174 28.9153 39.9529 29.0507 40.1169 29.0507H41.3647C41.5287 29.0507 41.6641 28.9153 41.6641 28.7513V26.9901H41.6499Z" fill="black"/>
<path opacity="0.23" d="M43.9672 23.3818H43.0189V25.3427H43.9672V23.3818Z" fill="black"/>
<path opacity="0.23" d="M44.8229 26.334H44.3879C44.1526 26.334 43.9601 26.1415 43.9601 25.9062V22.8116C43.9601 22.5763 44.1526 22.3838 44.3879 22.3838H44.8229C45.7569 22.3838 46.5127 23.1396 46.5127 24.0737V24.637C46.5127 25.5782 45.7569 26.334 44.8229 26.334Z" fill="black"/>
<path opacity="0.21" d="M25.7493 53.1652C25.7493 53.8283 26.2912 54.3702 26.9543 54.3702H27.1183V57.3364H25.8919C24.801 57.3364 23.9168 56.4522 23.9168 55.3613V51.404C23.9168 51.24 24.0523 51.1045 24.2163 51.1045H25.4641C25.6281 51.1045 25.7636 51.24 25.7636 51.404V53.1652H25.7493Z" fill="black"/>
<path opacity="0.21" d="M28.0666 54.8125H27.1182V56.7733H28.0666V54.8125Z" fill="black"/>
<path opacity="0.21" d="M28.9222 53.8213H28.4873C28.252 53.8213 28.0594 54.0138 28.0594 54.2491V57.3437C28.0594 57.579 28.252 57.7715 28.4873 57.7715H28.9222C29.8563 57.7715 30.6121 57.0157 30.6121 56.0816V55.5183C30.6121 54.5771 29.8563 53.8213 28.9222 53.8213Z" fill="black"/>
<g opacity="0.23">
<path opacity="0.23" d="M25.0219 51.5826H24.5941V45.9711C24.5941 43.7179 26.4266 41.8854 28.6798 41.8854C29.6566 41.8854 30.5764 41.5004 31.2681 40.8087C31.9597 40.1171 32.3376 39.1973 32.3376 38.2133L32.3305 35.5894H32.7583L32.7654 38.2133C32.7654 39.3042 32.3448 40.3381 31.5676 41.1082C30.8046 41.8854 29.7778 42.3132 28.6798 42.3132C26.6619 42.3132 25.0219 43.9532 25.0219 45.9711V51.5826Z" fill="black"/>
</g>
<g opacity="0.23">
<path opacity="0.23" d="M36.68 41.272C34.2985 41.272 32.3662 39.3397 32.3662 36.9581V35.639C32.3662 35.5178 32.4589 35.4251 32.5801 35.4251C32.7013 35.4251 32.794 35.5178 32.794 35.639V36.9581C32.794 39.1044 34.5338 40.8442 36.68 40.8442C38.8263 40.8442 40.5661 39.1044 40.5661 36.9581V29.0079C40.5661 28.8866 40.6588 28.7939 40.78 28.7939C40.9012 28.7939 40.9939 28.8866 40.9939 29.0079V36.9581C40.9939 39.3325 39.0616 41.272 36.68 41.272Z" fill="black"/>
</g>
<path d="M25.0219 50.7983H24.5941V45.1867C24.5941 42.9336 26.4266 41.1011 28.6798 41.1011C29.6566 41.1011 30.5764 40.716 31.2681 40.0244C31.9597 39.3328 32.3376 38.4129 32.3376 37.429L32.3305 33.165H32.7583L32.7654 37.429C32.7654 38.5199 32.3448 39.5538 31.5676 40.3239C30.8046 41.1011 29.7778 41.5289 28.6798 41.5289C26.6619 41.5289 25.0219 43.1689 25.0219 45.1867V50.7983Z" fill="#EEF2F4"/>
<path d="M25.0219 50.7983H24.5941V45.1867C24.5941 42.9336 26.4266 41.1011 28.6798 41.1011C29.6566 41.1011 30.5764 40.716 31.2681 40.0244C31.9597 39.3328 32.3376 38.4129 32.3376 37.429L32.3305 33.165H32.7583L32.7654 37.429C32.7654 38.5199 32.3448 39.5538 31.5676 40.3239C30.8046 41.1011 29.7778 41.5289 28.6798 41.5289C26.6619 41.5289 25.0219 43.1689 25.0219 45.1867V50.7983Z" stroke="#4C005F" stroke-width="0.213909" stroke-miterlimit="10" stroke-linecap="round" stroke-linejoin="round"/>
<path d="M36.68 40.459C34.2985 40.459 32.3662 38.5267 32.3662 36.1452V33.1861C32.3662 33.0649 32.4589 32.9722 32.5801 32.9722C32.7013 32.9722 32.794 33.0649 32.794 33.1861V36.1452C32.794 38.2914 34.5338 40.0312 36.68 40.0312C38.8263 40.0312 40.5661 38.2914 40.5661 36.1452V28.1949C40.5661 28.0737 40.6588 27.981 40.78 27.981C40.9012 27.981 40.9939 28.0737 40.9939 28.1949V36.1452C40.9939 38.5267 39.0616 40.459 36.68 40.459Z" fill="#EEF2F4"/>
<path d="M36.68 40.459C34.2985 40.459 32.3662 38.5267 32.3662 36.1452V33.1861C32.3662 33.0649 32.4589 32.9722 32.5801 32.9722C32.7013 32.9722 32.794 33.0649 32.794 33.1861V36.1452C32.794 38.2914 34.5338 40.0312 36.68 40.0312C38.8263 40.0312 40.5661 38.2914 40.5661 36.1452V28.1949C40.5661 28.0737 40.6588 27.981 40.78 27.981C40.9012 27.981 40.9939 28.0737 40.9939 28.1949V36.1452C40.9939 38.5267 39.0616 40.459 36.68 40.459Z" stroke="#4C005F" stroke-width="0.213909" stroke-miterlimit="10" stroke-linecap="round" stroke-linejoin="round"/>
<g opacity="0.23">
<path opacity="0.23" d="M32.5588 30.7122C32.4375 30.7122 32.3448 30.6195 32.3448 30.4983V9.44252C32.3448 7.72412 30.9473 6.32658 29.2289 6.32658C27.5105 6.32658 26.113 7.72412 26.113 9.44252V16.8866C26.113 18.8117 24.5443 20.3804 22.6191 20.3804H22.5264C21.5923 20.3804 20.7153 20.0168 20.0593 19.3608C19.4033 18.7048 19.0326 17.8135 19.0326 16.8794V5.30695C19.0326 3.58854 17.635 2.191 15.9166 2.191C14.1982 2.191 12.8007 3.58854 12.8007 5.30695V20.1594C12.8007 20.2806 12.708 20.3733 12.5868 20.3733C12.4656 20.3733 12.3729 20.2806 12.3729 20.1594V5.30695C12.3729 3.35324 13.9629 1.76318 15.9166 1.76318C17.8703 1.76318 19.4604 3.35324 19.4604 5.30695V16.8866C19.4604 17.7065 19.7813 18.4766 20.3588 19.0542C20.9364 19.6317 21.7064 19.9526 22.5264 19.9526H22.6262C24.3161 19.9526 25.6923 18.5764 25.6923 16.8866V9.44252C25.6923 7.48882 27.2823 5.89876 29.236 5.89876C31.1897 5.89876 32.7798 7.48882 32.7798 9.44252V30.4983C32.7727 30.6124 32.68 30.7122 32.5588 30.7122Z" fill="black"/>
</g>
<path d="M32.5801 29.949C32.4589 29.949 32.3662 29.8563 32.3662 29.7351V8.67934C32.3662 6.96093 30.9687 5.5634 29.2503 5.5634C27.5319 5.5634 26.1343 6.96093 26.1343 8.67934V16.1234C26.1343 18.0486 24.5657 19.6172 22.6405 19.6172H22.5407C21.6066 19.6172 20.7296 19.2536 20.0736 18.5976C19.4176 17.9416 19.0539 17.0646 19.0539 16.1305V4.54376C19.0539 2.82536 17.6564 1.42782 15.938 1.42782C14.2196 1.42782 12.8292 2.82536 12.8292 4.54376V19.3962C12.8292 19.5174 12.7365 19.6101 12.6153 19.6101C12.4941 19.6101 12.4014 19.5174 12.4014 19.3962V4.54376C12.4014 2.59006 13.9914 1 15.9451 1C17.8988 1 19.4889 2.59006 19.4889 4.54376V16.1234C19.4889 16.9434 19.8098 17.7134 20.3873 18.291C20.9649 18.8685 21.7349 19.1894 22.5549 19.1894H22.6547C24.3446 19.1894 25.7208 17.8133 25.7208 16.1234V8.67934C25.7208 6.72563 27.3108 5.13558 29.2645 5.13558C31.2182 5.13558 32.8083 6.72563 32.8083 8.67934V29.7351C32.794 29.8563 32.7013 29.949 32.5801 29.949Z" fill="#EEF2F4"/>
<path d="M32.5801 29.949C32.4589 29.949 32.3662 29.8563 32.3662 29.7351V8.67934C32.3662 6.96093 30.9687 5.5634 29.2503 5.5634C27.5319 5.5634 26.1343 6.96093 26.1343 8.67934V16.1234C26.1343 18.0486 24.5657 19.6172 22.6405 19.6172H22.5407C21.6066 19.6172 20.7296 19.2536 20.0736 18.5976C19.4176 17.9416 19.0539 17.0646 19.0539 16.1305V4.54376C19.0539 2.82536 17.6564 1.42782 15.938 1.42782C14.2196 1.42782 12.8292 2.82536 12.8292 4.54376V19.3962C12.8292 19.5174 12.7365 19.6101 12.6153 19.6101C12.4941 19.6101 12.4014 19.5174 12.4014 19.3962V4.54376C12.4014 2.59006 13.9914 1 15.9451 1C17.8988 1 19.4889 2.59006 19.4889 4.54376V16.1234C19.4889 16.9434 19.8098 17.7134 20.3873 18.291C20.9649 18.8685 21.7349 19.1894 22.5549 19.1894H22.6547C24.3446 19.1894 25.7208 17.8133 25.7208 16.1234V8.67934C25.7208 6.72563 27.3108 5.13558 29.2645 5.13558C31.2182 5.13558 32.8083 6.72563 32.8083 8.67934V29.7351C32.794 29.8563 32.7013 29.949 32.5801 29.949Z" stroke="#4C005F" stroke-width="0.213909" stroke-miterlimit="10" stroke-linecap="round" stroke-linejoin="round"/>
<path opacity="0.23" d="M13.9557 19.1606H12.2159V21.4637H13.9557V19.1606Z" fill="black"/>
<path d="M13.4922 18.8755H11.7524V21.1786H13.4922V18.8755Z" fill="#FDE1FF"/>
<path d="M13.4922 18.8755H11.7524V19.8024H13.4922V18.8755Z" fill="white"/>
<path d="M13.4922 18.8755H11.7524V19.8024H13.4922V18.8755Z" stroke="#4C005F" stroke-width="0.213909" stroke-miterlimit="10" stroke-linecap="round" stroke-linejoin="round"/>
<path d="M13.4922 18.8755H11.7524V21.1786H13.4922V18.8755Z" stroke="#4C005F" stroke-width="0.427818" stroke-miterlimit="10" stroke-linecap="round" stroke-linejoin="round"/>
<path opacity="0.23" d="M15.446 45.8499H2.83962C2.04816 45.8499 1.40643 45.2081 1.40643 44.4167V24.0597C1.40643 23.2682 2.04816 22.6265 2.83962 22.6265H15.446C16.2375 22.6265 16.8792 23.2682 16.8792 24.0597V44.4095C16.8792 45.2081 16.2375 45.8499 15.446 45.8499Z" fill="black"/>
<path d="M15.0395 44.3735H2.44027C1.64881 44.3735 1.00708 43.7318 1.00708 42.9403V22.5904C1.00708 21.799 1.64881 21.1572 2.44027 21.1572H15.0395C15.831 21.1572 16.4727 21.799 16.4727 22.5904V42.9403C16.4727 43.7318 15.831 44.3735 15.0395 44.3735Z" fill="#EEF2F4"/>
<path d="M15.0395 44.3735H2.44027C1.64881 44.3735 1.00708 43.7318 1.00708 42.9403V22.5904C1.00708 21.799 1.64881 21.1572 2.44027 21.1572H15.0395C15.831 21.1572 16.4727 21.799 16.4727 22.5904V42.9403C16.4727 43.7318 15.831 44.3735 15.0395 44.3735Z" fill="#EEF2F4"/>
<g opacity="0.76">
<g opacity="0.76">
<path opacity="0.76" d="M1.69164 42.9403V22.5904C1.69164 21.799 2.33337 21.1572 3.12483 21.1572H2.43319C1.64173 21.1572 1 21.799 1 22.5904V42.9403C1 43.7318 1.64173 44.3735 2.43319 44.3735H3.12483C2.33337 44.3735 1.69164 43.7318 1.69164 42.9403Z" fill="white"/>
</g>
</g>
<g opacity="0.1">
<g opacity="0.1">
<path opacity="0.1" d="M15.7811 42.9403V22.5904C15.7811 21.799 15.1394 21.1572 14.3479 21.1572H15.0395C15.831 21.1572 16.4727 21.799 16.4727 22.5904V42.9403C16.4727 43.7318 15.831 44.3735 15.0395 44.3735H14.3479C15.1394 44.3735 15.7811 43.7318 15.7811 42.9403Z" fill="black"/>
</g>
</g>
<g opacity="0.04">
<path opacity="0.04" d="M15.0395 43.4469H2.44027C1.64881 43.4469 1.00708 42.8051 1.00708 42.0137V42.9406C1.00708 43.7321 1.64881 44.3738 2.44027 44.3738H15.0395C15.831 44.3738 16.4727 43.7321 16.4727 42.9406V42.0137C16.4727 42.8051 15.831 43.4469 15.0395 43.4469Z" fill="black"/>
</g>
<g opacity="0.38">
<path opacity="0.38" d="M15.0395 22.0842H2.44027C1.64881 22.0842 1.00708 22.7259 1.00708 23.5174V22.5904C1.00708 21.799 1.64881 21.1572 2.44027 21.1572H15.0395C15.831 21.1572 16.4727 21.799 16.4727 22.5904V23.5174C16.4727 22.7259 15.831 22.0842 15.0395 22.0842Z" fill="white"/>
</g>
<path d="M15.0395 44.3735H2.44027C1.64881 44.3735 1.00708 43.7318 1.00708 42.9403V22.5904C1.00708 21.799 1.64881 21.1572 2.44027 21.1572H15.0395C15.831 21.1572 16.4727 21.799 16.4727 22.5904V42.9403C16.4727 43.7318 15.831 44.3735 15.0395 44.3735Z" stroke="#4C005F" stroke-width="0.427818" stroke-miterlimit="10"/>
<path d="M13.1072 31.4463H4.37256C3.8877 31.4463 3.4884 31.0541 3.4884 30.5621V24.808C3.4884 24.3231 3.88057 23.9238 4.37256 23.9238H13.1072C13.592 23.9238 13.9913 24.316 13.9913 24.808V30.5621C13.9842 31.0541 13.592 31.4463 13.1072 31.4463Z" fill="#B296A3"/>
<path opacity="0.2" d="M3.4884 27.3538L6.91095 23.917H6.48313L3.4884 26.926V27.3538Z" fill="#EEF2F4"/>
<path opacity="0.2" d="M3.4884 28.5731L8.13736 23.917H7.40294L3.4884 27.8458V28.5731Z" fill="#EEF2F4"/>
<path d="M13.1072 31.4463H4.37256C3.8877 31.4463 3.4884 31.0541 3.4884 30.5621V24.808C3.4884 24.3231 3.88057 23.9238 4.37256 23.9238H13.1072C13.592 23.9238 13.9913 24.316 13.9913 24.808V30.5621C13.9842 31.0541 13.592 31.4463 13.1072 31.4463Z" stroke="#4C005F" stroke-width="0.213909" stroke-miterlimit="10"/>
<path d="M25.7493 52.2384C25.7493 52.9015 26.2912 53.4434 26.9543 53.4434H27.1183V56.4096H25.8919C24.801 56.4096 23.9168 55.5255 23.9168 54.4345V50.4772C23.9168 50.3132 24.0523 50.1777 24.2163 50.1777H25.4641C25.6281 50.1777 25.7636 50.3132 25.7636 50.4772V52.2384H25.7493Z" fill="#EEF2F4"/>
<path opacity="0.1" d="M26.9543 53.4294C26.2841 53.4294 25.735 52.8803 25.735 52.2101V50.4275C25.735 50.2706 25.6067 50.1494 25.4569 50.1494H25.2359V50.7198V52.6878C25.2359 53.1584 25.4926 53.572 25.8705 53.793C26.3126 54.0497 26.5907 54.5132 26.5907 55.0194V56.4169H27.0898V53.4222H26.9543V53.4294Z" fill="black"/>
<path d="M25.7493 52.2384C25.7493 52.9015 26.2912 53.4434 26.9543 53.4434H27.1183V56.4096H25.8919C24.801 56.4096 23.9168 55.5255 23.9168 54.4345V50.4772C23.9168 50.3132 24.0523 50.1777 24.2163 50.1777H25.4641C25.6281 50.1777 25.7636 50.3132 25.7636 50.4772V52.2384H25.7493Z" stroke="#4C005F" stroke-width="0.427818" stroke-miterlimit="10" stroke-linecap="round" stroke-linejoin="round"/>
<path d="M28.0666 53.8853H27.1182V55.8461H28.0666V53.8853Z" fill="#D6DADC"/>
<path d="M28.0666 53.8853H27.1182V55.8461H28.0666V53.8853Z" stroke="#4C005F" stroke-width="0.427818" stroke-miterlimit="10" stroke-linecap="round" stroke-linejoin="round"/>
<path d="M28.9222 52.8945H28.4873C28.252 52.8945 28.0594 53.087 28.0594 53.3223V56.4169C28.0594 56.6522 28.252 56.8447 28.4873 56.8447H28.9222C29.8563 56.8447 30.6121 56.0889 30.6121 55.1548V54.5915C30.6121 53.6503 29.8563 52.8945 28.9222 52.8945Z" stroke="#4C005F" stroke-width="0.427818" stroke-miterlimit="10" stroke-linecap="round" stroke-linejoin="round"/>
<path d="M28.9222 52.8945H28.4873C28.252 52.8945 28.0594 53.087 28.0594 53.3223V56.4169C28.0594 56.6522 28.252 56.8447 28.4873 56.8447H28.9222C29.8563 56.8447 30.6121 56.0889 30.6121 55.1548V54.5915C30.6121 53.6503 29.8563 52.8945 28.9222 52.8945Z" fill="#4C005F"/>
<path d="M25.7493 52.2384C25.7493 52.9015 26.2912 53.4434 26.9543 53.4434H27.1183V56.4096H25.8919C24.801 56.4096 23.9168 55.5255 23.9168 54.4345V50.4772C23.9168 50.3132 24.0523 50.1777 24.2163 50.1777H25.4641C25.6281 50.1777 25.7636 50.3132 25.7636 50.4772V52.2384H25.7493Z" fill="#EEF2F4"/>
<path opacity="0.1" d="M26.9543 53.4294C26.2841 53.4294 25.735 52.8803 25.735 52.2101V50.4275C25.735 50.2706 25.6067 50.1494 25.4569 50.1494H25.2359V50.7198V52.6878C25.2359 53.1584 25.4926 53.572 25.8705 53.793C26.3126 54.0497 26.5907 54.5132 26.5907 55.0194V56.4169H27.0898V53.4222H26.9543V53.4294Z" fill="black"/>
<path d="M25.7493 52.2384C25.7493 52.9015 26.2912 53.4434 26.9543 53.4434H27.1183V56.4096H25.8919C24.801 56.4096 23.9168 55.5255 23.9168 54.4345V50.4772C23.9168 50.3132 24.0523 50.1777 24.2163 50.1777H25.4641C25.6281 50.1777 25.7636 50.3132 25.7636 50.4772V52.2384H25.7493Z" stroke="#4C005F" stroke-width="0.427818" stroke-miterlimit="10" stroke-linecap="round" stroke-linejoin="round"/>
<path d="M28.0666 53.8853H27.1182V55.8461H28.0666V53.8853Z" fill="#D6DADC"/>
<path d="M28.0666 53.8853H27.1182V55.8461H28.0666V53.8853Z" stroke="#4C005F" stroke-width="0.427818" stroke-miterlimit="10" stroke-linecap="round" stroke-linejoin="round"/>
<path d="M28.9222 52.8945H28.4873C28.252 52.8945 28.0594 53.087 28.0594 53.3223V56.4169C28.0594 56.6522 28.252 56.8447 28.4873 56.8447H28.9222C29.8563 56.8447 30.6121 56.0889 30.6121 55.1548V54.5915C30.6121 53.6503 29.8563 52.8945 28.9222 52.8945Z" stroke="#4C005F" stroke-width="0.427818" stroke-miterlimit="10" stroke-linecap="round" stroke-linejoin="round"/>
<path d="M28.9222 52.8945H28.4873C28.252 52.8945 28.0594 53.087 28.0594 53.3223V56.4169C28.0594 56.6522 28.252 56.8447 28.4873 56.8447H28.9222C29.8563 56.8447 30.6121 56.0889 30.6121 55.1548V54.5915C30.6121 53.6503 29.8563 52.8945 28.9222 52.8945Z" fill="#4C005F"/>
<path d="M41.6499 26.1341C41.6499 25.471 42.1918 24.9291 42.8549 24.9291H43.0189V21.9629H41.7925C40.7015 21.9629 39.8174 22.847 39.8174 23.938V27.8953C39.8174 28.0593 39.9529 28.1948 40.1169 28.1948H41.3647C41.5287 28.1948 41.6641 28.0593 41.6641 27.8953V26.1341H41.6499Z" fill="#EEF2F4"/>
<g opacity="0.1">
<path opacity="0.1" d="M41.2078 26.3911V28.0525H41.3575C41.5215 28.0525 41.6356 27.917 41.6356 27.753V25.9918C41.6356 25.7565 41.6998 25.5355 41.821 25.3501C41.4573 25.5569 41.2078 25.9419 41.2078 26.3911Z" fill="black"/>
<path opacity="0.1" d="M41.7924 21.9917C41.1578 21.9917 40.5945 22.2698 40.2309 22.7333C40.5518 22.5051 40.9439 22.3482 41.3717 22.3482C42.0277 22.3482 42.5625 22.883 42.5625 23.539V24.9579C42.7051 24.9365 42.7693 24.9151 42.8548 24.9151H42.9903V21.9917H41.7924V21.9917Z" fill="black"/>
</g>
<path d="M41.6499 26.1341C41.6499 25.471 42.1918 24.9291 42.8549 24.9291H43.0189V21.9629H41.7925C40.7015 21.9629 39.8174 22.847 39.8174 23.938V27.8953C39.8174 28.0593 39.9529 28.1948 40.1169 28.1948H41.3647C41.5287 28.1948 41.6641 28.0593 41.6641 27.8953V26.1341H41.6499Z" stroke="#4C005F" stroke-width="0.427818" stroke-miterlimit="10" stroke-linecap="round" stroke-linejoin="round"/>
<path d="M43.9672 22.5264H43.0189V24.4872H43.9672V22.5264Z" fill="#D6DADC"/>
<path d="M43.9672 22.5264H43.0189V24.4872H43.9672V22.5264Z" stroke="#4C005F" stroke-width="0.427818" stroke-miterlimit="10" stroke-linecap="round" stroke-linejoin="round"/>
<path d="M44.8229 25.4785H44.3879C44.1526 25.4785 43.9601 25.286 43.9601 25.0507V21.9561C43.9601 21.7208 44.1526 21.5283 44.3879 21.5283H44.8229C45.7569 21.5283 46.5127 22.2841 46.5127 23.2182V23.7815C46.5127 24.7227 45.7569 25.4785 44.8229 25.4785Z" stroke="#4C005F" stroke-width="0.427818" stroke-miterlimit="10" stroke-linecap="round" stroke-linejoin="round"/>
<path d="M44.8229 25.4785H44.3879C44.1526 25.4785 43.9601 25.286 43.9601 25.0507V21.9561C43.9601 21.7208 44.1526 21.5283 44.3879 21.5283H44.8229C45.7569 21.5283 46.5127 22.2841 46.5127 23.2182V23.7815C46.5127 24.7227 45.7569 25.4785 44.8229 25.4785Z" fill="#4C005F"/>
<path d="M8.75065 41.3004C10.9165 41.3004 12.6723 39.5446 12.6723 37.3787C12.6723 35.2128 10.9165 33.457 8.75065 33.457C6.58477 33.457 4.82898 35.2128 4.82898 37.3787C4.82898 39.5446 6.58477 41.3004 8.75065 41.3004Z" fill="#D7F0F4"/>
<path opacity="0.63" d="M8.75065 34.1701C10.797 34.1701 12.4727 35.7387 12.6581 37.7352C12.6652 37.6211 12.6723 37.4999 12.6723 37.3787C12.6723 35.2111 10.9183 33.457 8.75065 33.457C6.58303 33.457 4.82898 35.2111 4.82898 37.3787C4.82898 37.4999 4.83611 37.6211 4.84324 37.7352C5.02863 35.7316 6.71138 34.1701 8.75065 34.1701Z" fill="#EEF2F4"/>
<path d="M8.75066 38.5908C9.42012 38.5908 9.96282 38.0481 9.96282 37.3787C9.96282 36.7092 9.42012 36.1665 8.75066 36.1665C8.08121 36.1665 7.53851 36.7092 7.53851 37.3787C7.53851 38.0481 8.08121 38.5908 8.75066 38.5908Z" fill="#EEF2F4"/>
<path d="M8.75065 41.3004C10.9165 41.3004 12.6723 39.5446 12.6723 37.3787C12.6723 35.2128 10.9165 33.457 8.75065 33.457C6.58477 33.457 4.82898 35.2128 4.82898 37.3787C4.82898 39.5446 6.58477 41.3004 8.75065 41.3004Z" stroke="#4C005F" stroke-width="0.213909" stroke-miterlimit="10"/>
<path d="M8.75066 36.1665C8.08042 36.1665 7.53851 36.7084 7.53851 37.3787C7.53851 37.728 7.68825 38.0418 7.92355 38.2628C7.92355 38.2557 7.92355 38.2486 7.92355 38.2343C7.92355 37.778 8.29433 37.4 8.7578 37.4C9.22127 37.4 9.59204 37.7708 9.59204 38.2343C9.59204 38.2414 9.59204 38.2486 9.59204 38.2628C9.82734 38.0418 9.97708 37.728 9.97708 37.3787C9.96282 36.7084 9.42091 36.1665 8.75066 36.1665Z" fill="#DBDCDD"/>
<path d="M8.75066 38.5908C9.42012 38.5908 9.96282 38.0481 9.96282 37.3787C9.96282 36.7092 9.42012 36.1665 8.75066 36.1665C8.08121 36.1665 7.53851 36.7092 7.53851 37.3787C7.53851 38.0481 8.08121 38.5908 8.75066 38.5908Z" stroke="#4C005F" stroke-width="0.213909" stroke-miterlimit="10"/>
<path d="M8.17307 35.14V34.8548L8.06612 35.14H8.01621L7.90925 34.8548V35.14H7.79517V34.7051H7.95203L8.04473 34.9475L8.13742 34.7051H8.29429V35.14H8.17307Z" fill="#4C005F"/>
<path d="M8.3584 35.14V34.7051H8.67926V34.8049H8.47248V34.8691H8.67213V34.9689H8.47248V35.0402H8.67926V35.14H8.3584V35.14Z" fill="#4C005F"/>
<path d="M9.03586 35.14L8.85047 34.8905V35.14H8.73639V34.7051H8.85047L9.02873 34.9404V34.7051H9.14282V35.14H9.03586Z" fill="#4C005F"/>
<path d="M9.22125 34.9618V34.7051H9.33534V34.9618C9.33534 35.0117 9.36386 35.0473 9.42803 35.0473C9.48507 35.0473 9.52073 35.0117 9.52073 34.9618V34.7051H9.63481V34.9618C9.63481 35.0687 9.57064 35.1472 9.42803 35.1472C9.29256 35.1472 9.22125 35.0687 9.22125 34.9618Z" fill="#4C005F"/>
<path d="M11.0466 37.0938L11.4816 37.3433L11.0466 37.5929V37.0938Z" fill="#4C005F"/>
<path d="M10.6188 37.0938L11.0538 37.3433L10.6188 37.5929V37.0938Z" fill="#4C005F"/>
<path d="M11.5786 37.6086L11.5786 37.1309L11.4859 37.1309L11.4859 37.6086L11.5786 37.6086Z" fill="#4C005F"/>
<path d="M8.40833 39.6606L8.84327 39.9102L8.40833 40.1598V39.6606Z" fill="#4C005F"/>
<path d="M8.92542 40.1657L8.92542 39.688L8.83272 39.688L8.83272 40.1657L8.92542 40.1657Z" fill="#4C005F"/>
<path d="M9.08521 40.1628L9.08521 39.6851L8.99251 39.6851L8.99251 40.1628L9.08521 40.1628Z" fill="#4C005F"/>
<path d="M6.41188 37.0938L5.97693 37.3433L6.41188 37.5929V37.0938Z" fill="#4C005F"/>
<path d="M6.83973 37.0938L6.40479 37.3433L6.83973 37.5929V37.0938Z" fill="#4C005F"/>
<path d="M5.99945 37.612L5.99945 37.1343L5.90675 37.1343L5.90675 37.612L5.99945 37.612Z" fill="#4C005F"/>
<path d="M33.0792 29.5498H32.0453V33.1506H33.0792V29.5498Z" fill="#EEF2F4"/>
<path d="M33.0792 29.5498H32.0453V33.1506H33.0792V29.5498Z" stroke="#4C005F" stroke-width="0.213909" stroke-miterlimit="10" stroke-linecap="round" stroke-linejoin="round"/>
</svg>
