<svg width="390" height="625" viewBox="0 0 390 625" fill="none" xmlns="http://www.w3.org/2000/svg">
<path fill-rule="evenodd" clip-rule="evenodd" d="M198.247 0.00989659C285.262 1.23131 311.915 115.693 360.328 188.07C400.599 248.275 451.899 302.302 448.872 374.691C444.994 467.449 428.18 581.708 342.393 617.019C258.013 651.751 180.079 564.709 102.003 517.465C38.1891 478.853 -40.8759 448.61 -56.5261 375.638C-72.0399 303.303 -11.1536 244.649 30.3635 183.438C79.3192 111.26 111.093 -1.21347 198.247 0.00989659Z" fill="url(#paint0_radial_120_75)"/>
<path d="M54.6801 407.673C46.3307 366.142 60.0398 354.857 62.3291 334.172C64.6454 313.487 36.1499 301.852 49.3473 267.269C62.5715 232.66 97.7465 241.737 108.735 223.691C119.697 205.646 108.87 195.573 136.18 179.951C153.956 169.825 159.208 159.671 160.717 153.799C162.144 148.197 164.918 142.999 169.066 139.04C187.892 120.914 206.692 138.528 215.768 157.247C226.084 178.551 243.644 170.74 265.191 188.005C286.738 205.269 277.715 235.326 297.161 243.326C316.607 251.325 319.893 277.908 312.54 294.176C305.16 310.444 316.822 319.358 331.501 339.531C341.305 352.98 340.847 375.883 330.127 408.238" stroke="#E5C2A5" stroke-width="0.808"/>
<path d="M48.0275 408.238C39.0318 366.276 45.3072 349.685 47.7851 328.758C50.2899 307.858 24.9456 294.176 41.2672 260.132C55.892 229.59 88.643 235.865 100.467 217.631C112.317 199.397 100.628 189.217 130.12 173.434C149.27 163.172 154.953 152.91 156.569 147.012C158.131 141.329 161.121 136.104 165.565 132.091C185.872 113.776 209.574 125.358 219.35 144.265C230.501 165.785 246.068 164.115 269.285 181.567C292.528 199.02 282.778 229.401 303.786 237.454C324.767 245.534 328.296 272.414 320.377 288.87C312.432 305.299 324.983 314.295 340.847 334.683C351.405 348.276 350.417 372.974 337.884 408.777" stroke="#E5C2A5" stroke-width="0.808"/>
<path d="M217.25 168.074C227.35 189.378 244.506 181.567 265.541 198.832C286.576 216.096 277.742 246.154 296.757 254.153C315.745 262.125 318.95 288.735 311.759 305.003C304.567 321.271 315.96 330.186 330.289 350.359C339.859 363.807 339.859 382.912 330.289 407.673H61.2517C53.1178 366.142 70.8669 364.93 73.1293 344.245C75.3917 323.56 45.6573 307.939 58.5583 273.329C71.4325 238.72 101.975 252.564 112.694 234.518C123.414 216.473 112.829 206.4 139.52 190.779C156.865 180.625 162.009 170.498 163.491 164.626C164.891 159.024 167.611 153.826 171.624 149.867C190.02 131.741 208.388 149.355 217.25 168.074Z" fill="#F7E4D2"/>
<path d="M216.334 177.016C225.976 197.377 242.378 189.917 262.498 206.427C282.644 222.937 274.187 251.702 292.367 259.351C310.547 266.973 313.617 292.425 306.722 307.993C299.854 323.533 310.735 332.071 324.444 351.355C333.602 364.229 333.602 382.508 324.444 406.192H67.1232C59.3395 366.465 76.3075 365.307 78.4622 345.511C80.6438 325.715 52.2022 310.767 64.5376 277.666C76.8731 244.565 106.069 257.816 116.33 240.551C126.592 223.314 116.465 213.672 141.998 198.724C158.589 189.028 163.491 179.305 164.891 173.703C166.238 168.343 168.824 163.387 172.702 159.59C190.289 142.245 207.85 159.105 216.334 177.016V177.016Z" stroke="white" stroke-width="0.808"/>
<path d="M272.894 262.367C272.274 263.202 268.773 262.206 266.699 260.563C266.699 263.256 265.083 266.865 264.006 266.785C262.821 266.704 260.693 264.845 261.043 263.041C261.366 261.236 263.252 260.078 263.063 259.486C262.902 258.893 260.37 259.405 258.673 258.812C256.976 258.22 254.175 254.826 257.488 254.126C259.679 253.641 261.681 254.126 263.494 255.58C263.656 255.67 263.862 255.805 264.114 255.984C262.956 253.857 260.02 252.429 259.966 252.429C259.831 252.348 259.777 252.16 259.831 252.025C259.912 251.863 260.074 251.81 260.235 251.89C260.343 251.944 262.417 252.941 263.844 254.557C263.252 252.429 263.629 250.032 263.656 249.897C263.683 249.736 263.844 249.628 264.006 249.655C264.167 249.709 264.275 249.843 264.248 250.005C264.248 250.032 263.764 253.022 264.652 255.176C264.688 254.961 264.715 254.79 264.733 254.665C264.823 252.348 265.766 250.508 267.561 249.143C270.254 247.096 271.009 251.433 270.335 253.102C269.689 254.772 267.642 256.361 267.965 256.9C268.315 257.412 270.389 256.738 271.978 257.654C273.567 258.597 273.594 261.425 272.894 262.367Z" fill="#DBA291"/>
<path d="M93.9757 288.735C93.1139 288.816 91.8211 286.123 91.7133 283.941C90.0704 285.422 86.9461 286.392 86.4075 285.692C85.8149 284.911 85.8149 282.594 87.1077 281.813C88.4005 281.032 90.1243 281.571 90.3936 281.14C90.6629 280.709 88.9662 279.416 88.4006 278.043C87.8619 276.696 88.4275 273.114 90.6629 274.757C92.1533 275.87 92.9433 277.378 93.0331 279.282C93.069 279.425 93.0959 279.614 93.1139 279.847C93.7872 277.989 93.06 275.403 93.06 275.376C93.0061 275.242 93.0869 275.107 93.2216 275.08C93.3563 275.053 93.491 275.107 93.5179 275.242C93.5448 275.349 94.0565 277.154 93.8411 278.931C94.8376 277.396 96.5075 276.346 96.6152 276.292C96.723 276.211 96.8576 276.238 96.9384 276.373C97.0192 276.481 96.9653 276.642 96.8576 276.696C96.8307 276.723 94.7299 278.043 93.9219 279.766C94.0655 279.659 94.1822 279.578 94.272 279.524C95.7444 278.321 97.3873 277.899 99.2008 278.258C101.921 278.824 99.6587 281.625 98.2851 282.137C96.8845 282.648 94.7837 282.244 94.6491 282.729C94.5413 283.241 96.0765 284.157 96.3728 285.638C96.6691 287.119 94.9453 288.654 93.9757 288.735Z" fill="#DBA291"/>
<path d="M184.822 184.907C183.96 184.988 182.667 182.268 182.559 180.113C180.89 181.594 177.792 182.537 177.254 181.837C176.661 181.083 176.661 178.739 177.954 177.958C179.247 177.204 180.97 177.716 181.24 177.285C181.509 176.881 179.812 175.588 179.247 174.215C178.708 172.841 179.247 169.259 181.509 170.929C182.999 172.024 183.789 173.523 183.879 175.427C183.915 175.588 183.942 175.786 183.96 176.019C184.633 174.161 183.906 171.575 183.906 171.548C183.852 171.414 183.933 171.279 184.068 171.225C184.202 171.198 184.337 171.279 184.364 171.414C184.391 171.494 184.903 173.326 184.687 175.077C185.684 173.541 187.354 172.491 187.461 172.437C187.569 172.383 187.704 172.41 187.784 172.518C187.865 172.626 187.811 172.787 187.704 172.868C187.677 172.868 185.576 174.188 184.768 175.911C184.912 175.822 185.028 175.75 185.118 175.696C186.59 174.475 188.233 174.053 190.047 174.43C192.767 174.969 190.505 177.797 189.131 178.309C187.731 178.793 185.63 178.416 185.495 178.901C185.36 179.386 186.923 180.302 187.219 181.783C187.515 183.264 185.791 184.826 184.822 184.907Z" fill="#DBA291"/>
<path d="M145.984 221.914C145.688 222.291 145.149 222.371 144.772 222.075C144.368 221.806 144.287 221.267 144.584 220.863C144.853 220.486 145.418 220.405 145.796 220.702C146.173 220.971 146.253 221.51 145.984 221.914Z" fill="white"/>
<path d="M148.219 218.197C147.923 218.601 147.384 218.682 147.007 218.385C146.603 218.089 146.523 217.55 146.819 217.173C147.115 216.769 147.654 216.689 148.031 216.985C148.435 217.281 148.516 217.82 148.219 218.197Z" fill="white"/>
<path d="M150.832 224.041C150.536 224.418 149.997 224.499 149.62 224.23C149.216 223.934 149.135 223.395 149.431 223.018C149.701 222.614 150.266 222.533 150.643 222.829C151.02 223.126 151.101 223.664 150.832 224.041Z" fill="white"/>
<path d="M262.902 232.094C262.632 232.472 262.094 232.552 261.69 232.283C261.312 231.987 261.232 231.448 261.528 231.044C261.797 230.667 262.336 230.586 262.74 230.882C263.117 231.152 263.198 231.717 262.902 232.094Z" fill="white"/>
<path d="M265.164 228.378C264.868 228.782 264.329 228.862 263.925 228.566C263.548 228.297 263.467 227.731 263.763 227.354C264.033 226.977 264.598 226.896 264.975 227.166C265.353 227.462 265.433 228.001 265.164 228.378Z" fill="white"/>
<path d="M267.75 234.222C267.48 234.626 266.942 234.707 266.538 234.411C266.161 234.114 266.08 233.576 266.376 233.199C266.645 232.822 267.184 232.741 267.588 233.01C267.965 233.306 268.046 233.845 267.75 234.222Z" fill="white"/>
<path d="M221.667 196.839C221.37 197.216 220.832 197.297 220.455 197C220.078 196.731 219.997 196.192 220.266 195.788C220.562 195.411 221.101 195.33 221.478 195.627C221.882 195.896 221.963 196.435 221.667 196.839Z" fill="white"/>
<path d="M223.902 193.122C223.633 193.526 223.067 193.607 222.69 193.31C222.313 193.014 222.232 192.475 222.502 192.098C222.798 191.721 223.337 191.641 223.741 191.91C224.118 192.206 224.198 192.745 223.902 193.122Z" fill="white"/>
<path d="M226.515 198.966C226.218 199.37 225.68 199.451 225.303 199.155C224.926 198.859 224.845 198.32 225.114 197.943C225.41 197.539 225.949 197.458 226.326 197.754C226.73 198.051 226.811 198.589 226.515 198.966Z" fill="white"/>
<path d="M232.898 247.446C232.521 247.123 232.494 246.585 232.79 246.207C233.086 245.83 233.652 245.777 234.002 246.1C234.379 246.396 234.433 246.962 234.137 247.312C233.814 247.689 233.275 247.743 232.898 247.446Z" fill="white"/>
<path d="M236.48 249.87C236.103 249.574 236.049 249.009 236.372 248.658C236.669 248.281 237.207 248.227 237.584 248.524C237.961 248.847 238.015 249.386 237.692 249.763C237.396 250.113 236.857 250.167 236.48 249.87Z" fill="white"/>
<path d="M230.528 252.16C230.151 251.863 230.097 251.325 230.393 250.948C230.716 250.571 231.255 250.517 231.632 250.84C231.982 251.136 232.036 251.675 231.74 252.052C231.444 252.429 230.878 252.483 230.528 252.16Z" fill="white"/>
<path d="M107.819 265.68C107.819 266.3 107.308 266.785 106.715 266.785C106.096 266.785 105.611 266.3 105.611 265.68C105.611 265.088 106.096 264.576 106.715 264.576C107.308 264.576 107.819 265.088 107.819 265.68Z" fill="white"/>
<path d="M255.845 208.716C255.845 209.47 255.226 210.09 254.471 210.09C253.717 210.09 253.098 209.47 253.098 208.716C253.098 207.962 253.717 207.343 254.471 207.343C255.226 207.343 255.845 207.962 255.845 208.716Z" fill="white"/>
<path d="M161.04 251.486C161.04 252.268 160.42 252.86 159.666 252.86C158.912 252.86 158.292 252.268 158.292 251.486C158.292 250.732 158.912 250.14 159.666 250.14C160.42 250.14 161.04 250.732 161.04 251.486Z" fill="white"/>
<path d="M187.246 161.852C187.246 162.31 186.896 162.687 186.411 162.687C185.953 162.687 185.576 162.31 185.576 161.852C185.576 161.394 185.953 161.017 186.411 161.017C186.896 161.017 187.246 161.394 187.246 161.852Z" fill="white"/>
<path d="M251.293 284.857C251.293 285.53 250.728 286.096 250.028 286.096C249.354 286.096 248.789 285.53 248.789 284.857C248.789 284.157 249.354 283.591 250.028 283.591C250.728 283.591 251.293 284.157 251.293 284.857Z" fill="white"/>
<path d="M169.685 190.159C169.685 190.833 169.12 191.398 168.446 191.398C167.746 191.398 167.181 190.833 167.181 190.159C167.181 189.459 167.746 188.92 168.446 188.92C169.12 188.92 169.685 189.459 169.685 190.159Z" fill="white"/>
<path d="M32.5408 398.65H364.683C367.134 398.65 367.807 402.017 365.544 402.933C343.324 412.063 284.394 432.748 201.844 435.118C125.057 437.299 60.9016 417.315 31.1672 406.03C27.208 404.522 28.2853 398.65 32.5408 398.65Z" fill="#F7E4D2"/>
<path d="M137.392 359.489L134.51 360.189C126.556 359.776 121.169 358.744 118.35 357.092C114.149 354.614 112.21 347.396 108.681 344.972C105.126 342.548 97.8541 346.642 91.6595 344.972C85.4917 343.275 85.8688 336.111 80.8861 332.152C75.8765 328.193 68.012 331.425 61.3864 328.139C54.7608 324.88 58.316 316.8 45.8728 313.81C37.0656 311.682 33.4835 307.346 37.2003 303.926C37.2003 303.926 44.7955 294.714 54.3299 295.792C63.8912 296.869 68.5776 298.512 75.1763 294.041C81.8019 289.543 86.7307 292.506 92.2789 296.061C97.8272 299.616 103.995 293.799 113.879 296.95C123.791 300.101 125.999 306.781 127.373 310.039C128.747 313.325 142.51 315.938 143.237 329.081C143.722 337.826 141.773 347.962 137.392 359.489Z" fill="#B9BC7E"/>
<path d="M135.453 355.368C133.37 337.503 126.188 324.503 113.906 316.369C95.484 304.195 65.2917 303.899 56.1344 303.387C50.0295 303.046 46.9771 302.875 46.9771 302.875C71.6121 301.313 90.0435 303.019 102.271 307.993C127.427 318.227 134.618 334.953 135.453 355.368Z" fill="#FFFBF4"/>
<path d="M121.933 327.169C111.662 317.994 105.755 309.591 104.21 301.959C101.894 290.513 108.681 286.23 104.103 280.44C99.524 274.649 101.571 264.226 106.5 261.586C111.455 258.947 113.475 253.183 113.96 245.211C114.418 237.266 120.505 234.303 122.39 236.511C127.562 242.598 124.976 248.82 132.921 252.671C140.84 256.55 143.641 264.576 141.648 271.121C139.655 277.693 148.408 279.793 154.199 289.813C159.962 299.832 155.788 308.208 153.337 314.483C150.886 320.786 157.673 328.354 155.195 335.599C153.561 340.429 147.061 346.821 135.695 354.776C130.201 352.729 125.613 343.527 121.933 327.169Z" fill="#CFC293"/>
<path d="M139.089 305.084C142.16 319.233 142.51 333.858 140.14 348.958C139.457 328.166 137.069 309.339 132.975 292.479C128.899 275.637 125.165 260.671 121.771 247.581C122.148 250.867 134.484 283.86 139.089 305.084Z" fill="#FFFBF4"/>
<path d="M124.006 337.404C121.906 326.63 132.49 321.675 132.921 318.739C133.379 315.83 133.81 309.959 141.163 305.38C148.543 300.774 154.71 304.249 158.481 300.209C162.225 296.196 165.618 292.775 171.894 295.065C178.169 297.327 181.644 295.038 189.131 292.183C196.646 289.355 204.672 295.253 204.672 295.253C208.416 297.273 206.369 301.502 199.689 305.03C190.236 310.039 194.787 315.83 190.074 319.843C185.388 323.856 178.358 322.86 175.126 327.088C171.894 331.317 173.672 337.054 169.012 339.693C164.353 342.306 157.619 340.501 155.249 343.194C152.879 345.888 152.798 352.109 149.889 354.964C147.95 356.886 143.802 358.834 137.446 360.809L134.968 360.836C129.061 352.397 125.407 344.586 124.006 337.404Z" fill="#B9BC7E"/>
<path d="M152.825 311.925C161.713 305.389 176.293 300.218 196.565 296.411C196.565 296.411 194.123 297.174 189.239 298.701C181.94 300.99 157.538 307.454 145.122 321.109C136.863 330.213 133.72 342.207 135.695 357.092C132.194 340.393 134.564 325.365 152.825 311.925Z" fill="#FFFBF4"/>
<path d="M134.968 360.836C133.227 364.463 130.659 366.77 127.265 367.758C122.175 369.212 120.182 366.842 114.122 364.418C108.089 361.967 106.769 367.111 98.0965 368.323C92.3149 369.131 87.8978 369.006 84.8453 367.946C86.1561 363.475 90.3667 359.615 97.4771 356.365C104.587 353.115 114.903 353.348 128.423 357.065L134.968 360.836Z" fill="#9A9B82"/>
<path d="M138.416 357.792C142.061 353.591 146.514 351.633 151.775 351.921C159.693 352.325 161.094 355.099 164.972 355.26C168.85 355.449 170.978 354.21 176.284 356.015C179.767 357.218 182.542 358.636 184.606 360.27C181.033 365.459 176.446 367.38 170.843 366.034C162.467 364.014 156.138 362.721 153.391 365.522C151.577 367.389 144.925 366.617 133.433 363.206L138.416 357.792Z" fill="#9A9B82"/>
<path d="M250.297 304.383C250.97 293.422 253.286 289.112 255.872 290.836C258.458 292.56 260.828 302.875 264.06 302.848C267.265 302.821 264.922 296.223 263.844 288.116C262.767 280.036 269.635 270.178 273.082 271.686C276.53 273.195 275.668 289.328 280.193 288.008C284.718 286.688 281.917 278.554 282.132 273.41C282.347 268.239 290.751 259.836 293.363 261.129C295.976 262.421 292.232 276.615 295.249 276.184C298.265 275.753 296.541 267.162 298.05 262.852C299.558 258.543 306.884 254.018 309.685 256.173C312.486 258.327 306.884 268.023 310.116 268.239C313.348 268.454 313.563 261.559 316.553 257.466C319.569 253.372 328.188 252.079 332.066 254.449C335.945 256.819 321.078 263.068 325.387 265.653C329.696 268.239 337.022 259.836 344.967 259.97C352.94 260.105 358.111 263.93 359.592 268.023C361.101 272.117 342.597 270.609 343.028 273.41C343.459 276.184 357.034 276.831 359.188 278.77C361.343 280.709 354.879 286.527 348.846 285.234C342.813 283.941 330.989 283.079 332.928 286.311C334.867 289.543 353.155 290.836 354.448 292.56C355.741 294.283 350.785 301.582 340.901 299.482C330.989 297.381 319.569 296.223 321.724 299.482C323.879 302.767 346.045 303.522 346.691 305.892C347.338 308.262 343.675 315.372 334.571 314.079C325.468 312.787 304.298 307.831 307.746 312.571C311.193 317.311 338.53 318.173 338.315 321.459C338.099 324.772 331.851 329.566 322.801 329.566C313.779 329.566 303.221 322.914 295.679 323.775C288.165 324.637 292.232 328.058 307.53 330.859C322.801 333.66 326.68 335.384 325.387 338.508C324.094 341.632 314.21 348.312 290.751 344.218C275.093 341.489 263.467 337.682 255.872 332.798C254.795 330.105 249.623 315.372 250.297 304.383Z" fill="#D1C795"/>
<path d="M252.182 350.493C260.244 329.809 268.962 313.738 278.334 302.283C292.394 285.099 319.542 274.73 332.632 274.003C312.001 277.827 295.06 287.945 281.809 304.357C268.54 320.75 259.409 340.16 254.418 362.586L248.977 361.509L252.182 350.493Z" fill="#FFFBF4"/>
<path d="M33.1334 396.038C34.2825 391.746 37.6851 388.604 43.3411 386.611C51.7982 383.648 53.064 391.647 58.3968 391.324C61.952 391.109 64.5556 394.458 66.2075 401.37H31.248L33.1334 396.038Z" fill="#9A9B82"/>
<path d="M51.475 401.424C50.7208 397.734 49.3203 393.237 47.5966 388.415C33.5374 381.054 20.2592 370.532 7.76217 356.85C19.3076 358.484 28.5727 362.344 35.5574 368.431C38.4662 370.936 40.8632 373.683 42.8024 376.349C41.0787 372.255 39.2742 368.215 37.5235 364.391C26.2295 358.717 15.4831 350.215 5.2843 338.885C14.2621 340.214 21.4623 343.266 26.8848 348.042C29.4974 350.359 31.5982 352.89 33.2142 355.287C31.0864 350.87 29.3088 347.315 28.2315 345.241C20.4208 335.976 14.0197 324.925 9.02804 312.086C16.9464 316.521 22.5935 321.935 25.9691 328.327C29.3088 334.63 30.2246 341.067 30.44 344.73C31.7867 347.342 33.9683 351.705 36.5 357.011C34.6147 345.861 34.3364 334.405 35.6651 322.644C40.6208 330.257 43.1077 337.673 43.1256 344.891C43.1526 352.729 40.5131 359.327 39.0587 362.398C42.4792 369.831 46.223 378.315 49.1048 386.153C46.3217 371.573 45.7741 356.356 47.4619 340.501C53.872 350.215 57.122 359.705 57.2118 368.97C57.3195 380.416 52.9832 389.897 51.448 392.859C52.3638 395.822 53.1179 398.569 53.6296 400.993L51.475 401.424Z" fill="#B9BC7E"/>
<path d="M325.064 372.525C323.798 363.287 324.875 356.015 328.996 358.546C339.258 364.903 330.397 380.497 335.46 378.127C340.523 375.757 339.527 357.173 346.368 349.578C353.209 341.982 367.645 337.404 365.868 343.76C364.09 350.089 358.515 359.974 351.431 364.014C344.321 368.081 342.301 380.497 345.587 380.712C348.9 380.901 350.92 370.101 358.515 365.549C366.137 360.97 371.201 359.22 370.689 362.64C370.177 366.061 368.911 373.414 357.249 379.474C349.474 383.532 343.989 388.523 340.793 394.448H330.127C332.686 386.072 326.33 381.763 325.064 372.525Z" fill="#9A9B82"/>
<path d="M320.728 388.658C327.192 386.799 334.598 389.223 338.665 392.536C342.732 395.876 343.675 390.328 352.913 392.536C359.09 394.027 363.228 396.747 365.329 400.697C361.63 401.559 354.969 401.99 345.345 401.99C335.72 401.99 324.678 401.308 312.217 399.943C313.563 393.658 316.4 389.897 320.728 388.658Z" fill="#D7CA8C"/>
<path d="M304.972 407.807C304.972 412.871 254.929 416.965 193.198 416.965C131.494 416.965 81.4518 412.871 81.4518 407.807C81.4518 402.744 131.494 398.65 193.198 398.65C254.929 398.65 304.972 402.744 304.972 407.807Z" fill="#E2C9B5"/>
<path d="M297.188 357.281L288.704 366.222C288.704 366.222 288.695 366.231 288.677 366.249L287.088 367.919C287.088 367.937 287.088 367.946 287.088 367.946L286.98 368.054C286.98 368.027 286.953 368.027 286.953 368.027C268.611 356.688 250.943 339.801 246.472 335.438C244.21 333.391 242.055 330.913 240.385 327.977C236.48 321.028 231.174 308.1 227.511 298.647L227.026 300.694L220.374 328.812C223.229 333.148 227.107 339.828 230.42 348.069C232.117 352.244 233.652 356.823 234.837 361.698L196.726 384.133V384.699L196.215 384.429L195.703 384.726V384.16L156.73 363.206C157.996 357.038 159.828 351.301 161.821 346.265C161.848 346.184 161.875 346.103 161.902 346.022C164.622 339.208 167.638 333.606 169.928 329.782L162.09 301.502L161.04 297.677L160.474 295.63C156.757 304.895 149.889 321.378 145.095 329.485C143.371 332.394 141.19 334.818 138.847 336.838C134.322 341.094 116.277 357.658 97.7464 368.673L96.0496 366.815L87.7542 357.712L130.013 317.958L144.287 277.154C149.764 265.375 154.558 259.405 158.67 259.243V259.27C159.801 258.301 161.094 257.493 162.548 256.927C163.033 256.738 163.518 256.55 164.002 256.361V256.334C166.777 255.203 169.901 253.722 173.025 251.89C176.715 249.736 180.405 247.016 183.556 243.676C184.014 240.525 184.202 236.054 184.256 233.172C184.274 232.005 184.283 231.035 184.283 230.263L193.279 231.179L202.221 229.913C202.275 231.457 202.373 233.208 202.517 235.165C202.706 237.804 203.002 240.929 203.46 243.299C204.914 244.726 206.476 246.046 208.092 247.204C213.748 251.352 220.024 254.018 224.953 255.742C226.218 256.173 227.377 256.792 228.454 257.546C229.72 257.87 235.295 260.105 242.19 275.673L255.683 316.746L297.188 357.281Z" fill="#5E4453"/>
<path d="M208.092 247.204C206.665 248.847 202.221 252.321 189.697 255.203C178.385 257.807 169.82 258.193 164.002 256.361V256.334C166.777 255.203 169.901 253.722 173.025 251.89C176.715 249.736 180.405 247.015 183.556 243.676C184.014 240.525 184.202 236.054 184.256 233.172L202.517 235.165C202.706 237.804 203.002 240.929 203.46 243.299C204.914 244.726 206.476 246.046 208.092 247.204Z" fill="#3F2935"/>
<path d="M217.654 307.858C211.701 310.497 201.305 305.38 192.471 308.235C183.637 311.09 179.247 319.251 177.55 329.728C176.401 336.694 177.29 345.241 180.216 355.368C174.955 356.823 168.85 353.707 161.902 346.022C164.622 339.208 167.638 333.606 169.928 329.782L161.04 297.677L160.474 295.63C159.056 288.322 160.124 281.876 163.679 276.292C162.566 282.253 163.051 287.963 165.134 293.422C168.231 301.582 175.557 301.582 183.206 301.394C190.855 301.205 190.747 298.593 199.393 300.451C213.802 303.549 219.431 302.148 222.798 297.408C225.006 294.31 223.606 305.218 217.654 307.858Z" fill="#3F2935"/>
<path d="M179.354 229.482C177.056 230.757 174.641 229.904 172.109 226.923C168.312 222.452 169.201 216.688 171.894 216.527C173.689 216.419 175.27 217.757 176.634 220.54L179.354 229.482Z" fill="#EA8D78"/>
<path d="M210.435 219.894C211.692 217.057 213.219 215.665 215.014 215.719C217.707 215.773 218.839 221.483 215.203 226.088C212.797 229.177 210.417 230.128 208.065 228.943L210.435 219.894Z" fill="#EA8D78"/>
<path d="M211.647 211.275C211.971 227.947 202.005 242.868 194.087 243.029C184.499 243.218 175.207 227.543 174.91 211.975C174.695 200.475 181.59 191.021 193.09 190.779C204.591 190.563 211.405 199.774 211.647 211.275Z" fill="#FFA488"/>
<path d="M185.872 209.955C187.937 209.919 189.203 210.584 189.67 211.948C188.772 211.697 187.093 211.661 184.633 211.841C182.694 211.984 180.827 212.307 179.031 212.81C181.545 210.943 183.825 209.991 185.872 209.955Z" fill="#2F2A00"/>
<path d="M183.987 218.52C181.347 218.412 179.776 218.08 179.274 217.523C180.925 215.405 182.676 214.354 184.526 214.372C186.375 214.408 188.027 215.396 189.481 217.335C188.53 218.251 186.698 218.646 183.987 218.52Z" fill="#EA8D78"/>
<path d="M189.481 217.335C188.44 218.538 186.77 219.157 184.472 219.193C182.075 219.22 180.728 218.547 179.974 218.035C179.624 218.089 178.87 218.197 177.873 217.901C178.519 217.847 178.995 217.721 179.301 217.523C179.283 217.523 179.274 217.523 179.274 217.523C179.292 217.523 179.301 217.523 179.301 217.523L179.327 217.55C179.705 217.658 181.832 218.305 184.445 218.278C186.366 218.26 188.045 217.945 189.481 217.335Z" fill="#2F2A00"/>
<path d="M207.365 212.271C205.552 211.823 203.666 211.571 201.709 211.517C199.267 211.428 197.597 211.526 196.699 211.814C197.13 210.431 198.369 209.713 200.416 209.659C202.481 209.623 204.797 210.494 207.365 212.271Z" fill="#2F2A00"/>
<path d="M197.104 217.173C198.468 215.18 200.075 214.139 201.925 214.049C203.774 213.959 205.561 214.938 207.284 216.985C206.8 217.559 205.246 217.954 202.625 218.17C199.932 218.385 198.091 218.053 197.104 217.173Z" fill="#EA8D78"/>
<path d="M206.611 217.523C205.884 218.062 204.564 218.789 202.167 218.843C199.869 218.915 198.181 218.358 197.104 217.173C198.558 217.748 200.246 218.008 202.167 217.954C204.78 217.874 206.88 217.146 207.23 217.012L207.284 216.985C207.608 217.164 208.083 217.272 208.712 217.308C207.742 217.658 206.961 217.577 206.611 217.523Z" fill="#2F2A00"/>
<path d="M193.764 227.085C194.662 227.103 195.487 227.148 196.242 227.219C195.272 227.974 194.392 228.333 193.602 228.297C192.794 228.243 191.896 227.92 190.909 227.327C191.914 227.13 192.866 227.049 193.764 227.085Z" fill="#EA8D78"/>
<path d="M194.248 232.498C194.177 232.498 194.114 232.498 194.06 232.498C193.988 232.498 193.925 232.507 193.871 232.525C193.871 232.507 193.871 232.498 193.871 232.498C191.878 232.463 190.235 232.157 188.943 231.583C191.061 231.26 192.399 231.143 192.956 231.233C193.467 231.313 193.845 231.798 194.033 232.121C194.249 231.771 194.599 231.286 195.11 231.179C195.649 231.089 196.987 231.152 199.123 231.367C197.849 231.996 196.215 232.373 194.222 232.498C194.24 232.498 194.248 232.498 194.248 232.498Z" fill="#743F3D"/>
<path d="M189.858 232.849C190.289 233.441 191.277 233.926 192.821 234.303C195.137 234.869 196.834 233.899 198.235 233.01C197.391 234.626 196.098 235.542 194.356 235.757C191.717 236.081 189.966 233.199 189.858 232.849Z" fill="#EA8D78"/>
<path d="M200.47 200.663C197.813 199.263 194.688 198.652 191.097 198.832C185.711 199.101 181.509 203.303 179.947 206.292C178.906 208.285 177.855 209.56 176.796 210.117C177.137 214.947 176.841 218.385 175.907 220.432C174.668 218.349 173.33 217.048 171.894 216.527C170.673 212.128 170.439 207.594 171.194 202.926C172.325 195.896 179.758 188.355 189.778 187.304C196.439 186.622 201.458 187.906 204.833 191.156C209.268 193.652 212.15 197.018 213.479 201.256C214.79 205.511 214.879 210.395 213.748 215.907C212.617 216.482 211.683 217.766 210.947 219.759C208.811 216.545 208.011 213.133 208.55 209.524C207.688 203.779 204.995 200.825 200.47 200.663Z" fill="#743F3D"/>
<path d="M206.422 194.738C205.094 195.169 200.111 193.05 191.474 188.382C191.421 187.61 191.519 186.739 191.771 185.769C192.282 183.749 193.602 181.083 197.05 179.844C197.642 179.628 198.217 179.476 198.773 179.386C203.972 178.497 208.281 182.052 209.52 185.661C210.893 189.701 208.442 194.118 206.422 194.738Z" fill="#743F3D"/>
<path d="M189.67 211.948C190.496 213.51 191.151 215.485 191.636 217.874C192.103 220.244 192.139 222.282 191.744 223.987C191.277 217.254 189.329 213.178 185.899 211.76C187.785 211.724 189.041 211.787 189.67 211.948Z" fill="#EA8D78"/>
<path d="M182.371 204.488C180.845 205.691 179.74 206.229 179.058 206.104L179.543 207.019C183.341 206.723 183.206 203.276 188.646 200.906C192.273 199.326 196.215 199.245 200.47 200.663C189.535 196.138 184.687 202.683 182.371 204.488Z" fill="#743F3D"/>
<path d="M172.648 407.188C168.357 406.865 164.828 407.412 162.063 408.831C157.889 410.932 150.186 418.931 149.081 419.389C147.95 419.847 146.981 420.062 145.122 420.197C143.291 420.305 143.991 420.493 143.183 420.87C142.626 421.104 141.702 421.184 140.409 421.113C140.068 421.956 139.646 422.45 139.143 422.594C138.389 422.809 137.5 423.402 136.692 421.597C135.884 419.82 137.419 417.638 137.365 416.857C137.311 416.103 137.365 412.494 139.762 410.016C142.133 407.538 148.839 403.337 150.563 399.35C152.313 395.391 153.983 391.755 157.054 391.621C159.101 391.531 162.557 391.836 167.423 392.536C168.644 392.303 170.996 391.962 174.479 391.513L172.648 407.188Z" fill="#FFA488"/>
<path d="M292.528 396.926C280.112 403.875 259.562 406.622 235.753 408.05C232.844 408.229 229.899 408.391 226.919 408.535L227.323 418.85C226.12 418.85 224.45 418.832 222.313 418.796C212.482 418.689 189.589 418.392 165.726 417.907C127.131 417.153 96.3997 407.565 87.5386 399.027C83.2562 394.906 80.7245 388.335 81.6402 382.194C82.3405 377.319 85.2224 372.74 91.1208 369.831C92.5213 369.158 94.9722 368.269 98.285 367.327C108.654 364.364 127.427 360.782 148.139 360.566C148.462 360.539 148.785 360.539 149.081 360.513C150.895 357.783 155.168 352.953 161.902 346.022C166.642 349.991 172.244 353.16 178.708 355.53C183.825 357.388 189.697 358.6 195.622 357.9C207.042 356.517 218.497 352.639 229.989 346.265C232.305 348.581 234.577 352.45 236.803 357.873C253.96 358.035 282.374 363.233 288.488 366.303C288.524 366.339 288.56 366.366 288.596 366.384C292.744 367.488 296.191 369.912 298.561 372.983C304.056 380.093 303.706 390.705 292.528 396.926Z" fill="#E9835B"/>
<path d="M96.0496 366.815C88.7596 372.381 84.1899 375.452 82.3405 376.026C79.5933 376.861 77.1693 376.915 74.2605 376.619C71.3248 376.322 70.3552 377.238 70.1666 375.891C70.0589 375.012 71.7826 374.356 75.3378 373.925C74.8261 373.925 71.7557 373.441 69.4933 373.494C67.204 373.521 64.8338 372.875 65.992 371.932C66.7641 371.286 69.1521 370.99 73.1562 371.043C71.8096 371.205 69.7357 370.559 67.5002 370.37C65.2648 370.155 62.4368 370.101 63.8642 368.808C64.7979 367.928 66.8359 367.668 69.9781 368.027C68.3441 367.201 67.5182 366.312 67.5002 365.361C67.4733 363.933 68.8738 361.832 69.6549 359.624C70.4629 357.442 71.1093 357.334 71.5402 358.708C71.9442 360.082 70.3282 363.771 70.5976 364.31C70.8669 364.849 72.3482 365.414 76.1458 364.741C78.6776 364.31 80.3385 363.044 81.1285 360.943C80.949 360.495 80.4731 360.27 79.701 360.27C78.5429 360.297 76.6576 360.89 74.476 360.566C72.2944 360.27 71.648 359.543 71.5941 359.247C71.5402 358.95 72.5098 358.897 74.5029 358.546C76.469 358.223 79.9704 357.119 81.6941 357.065C82.8433 357.047 84.8543 357.263 87.7272 357.711L96.0496 366.815Z" fill="#FFA488"/>
<path d="M272.221 370.774C257.012 372.929 228.113 379.456 185.522 390.355C163.096 380.084 144.368 373.746 129.339 371.34C107.9 367.919 95.4032 369.616 98.2851 367.327C108.654 364.364 127.427 360.782 148.139 360.566C148.462 360.539 148.785 360.539 149.081 360.513C150.895 357.783 155.168 352.953 161.902 346.022C166.642 349.991 172.244 353.16 178.708 355.53C179.489 359.301 192.956 377.804 202.652 374.76C212.348 371.717 225.06 367.542 231.147 369.643C237.234 371.717 249.597 370.586 258.108 368.673C263.781 367.398 268.486 368.099 272.221 370.774Z" fill="#CC6A4C"/>
<path d="M288.704 366.222C288.704 366.222 288.695 366.231 288.677 366.249C288.623 366.411 288.192 367.246 287.088 367.919C287.088 367.937 287.088 367.946 287.088 367.946C287.034 367.964 286.989 367.991 286.953 368.027C268.611 356.688 250.943 339.801 246.472 335.438C244.21 333.391 242.055 330.913 240.385 327.977C236.48 321.028 231.174 308.1 227.511 298.647L229.612 280.978C234.909 303.746 240.34 318.793 245.907 326.119C251.491 333.462 265.757 346.83 288.704 366.222Z" fill="#3F2935"/>
<path d="M162.09 301.502L161.04 297.677L160.474 295.63C156.757 304.895 149.889 321.378 145.095 329.485C143.371 332.394 141.19 334.818 138.847 336.838C134.322 341.094 116.276 357.658 97.7464 368.673L96.0496 366.815C120.397 346.022 136.144 331.532 143.291 323.345C150.437 315.175 156.21 302.175 160.609 284.345L162.09 301.502Z" fill="#3F2935"/>
<path d="M292.528 396.926C280.112 403.875 259.562 406.622 235.753 408.05C229.109 406.973 223.417 405.141 218.677 402.555V401.37L185.549 390.355C185.747 390.409 187.659 389.924 191.286 388.9C206.369 392.267 243.537 402.394 262.902 397.95C287.788 392.24 288.731 381.763 293.309 376.565C295.087 374.518 296.945 373.494 298.561 372.983C304.056 380.093 303.706 390.705 292.528 396.926Z" fill="#CC6A4C"/>
<path d="M218.677 402.555C222.161 403.058 224.504 403.444 225.707 403.714C230.591 403.103 234.056 402.861 236.103 402.986C239.173 403.175 240.789 406.865 242.432 410.851C244.075 414.864 250.728 419.2 253.044 421.732C255.36 424.237 255.36 427.873 255.306 428.627C255.226 429.381 256.734 431.59 255.872 433.367C255.037 435.145 254.175 434.525 253.421 434.31C252.918 434.166 252.496 433.672 252.155 432.829C250.862 432.864 249.947 432.757 249.408 432.505C248.6 432.128 249.3 431.967 247.469 431.805C245.637 431.643 244.641 431.401 243.537 430.916C242.432 430.431 234.891 422.298 230.77 420.089C228.023 418.617 224.504 418.006 220.212 418.258L218.677 402.555Z" fill="#FFA488"/>
<path d="M297.188 357.281C300.079 356.886 302.099 356.715 303.248 356.769C304.971 356.823 308.446 358.008 310.412 358.385C312.378 358.762 313.375 358.843 313.321 359.139C313.24 359.435 312.567 360.136 310.385 360.405C308.203 360.674 306.345 360.055 305.187 360.001C304.415 359.983 303.93 360.198 303.733 360.647C304.487 362.748 306.121 364.05 308.634 364.553C312.432 365.28 313.94 364.741 314.21 364.229C314.479 363.691 312.917 359.947 313.375 358.6C313.833 357.227 314.479 357.334 315.233 359.543C315.987 361.751 317.334 363.879 317.28 365.334C317.244 366.285 316.4 367.156 314.748 367.946C317.89 367.641 319.928 367.937 320.862 368.835C322.236 370.182 319.435 370.155 317.199 370.316C314.964 370.478 312.863 371.097 311.516 370.909C315.52 370.927 317.899 371.259 318.654 371.905C319.812 372.902 317.415 373.494 315.125 373.414C312.863 373.333 309.766 373.764 309.281 373.737C312.836 374.24 314.542 374.931 314.398 375.811C314.21 377.13 313.24 376.215 310.331 376.457C307.395 376.673 304.971 376.592 302.224 375.703C300.393 375.092 295.886 371.932 288.704 366.222L297.188 357.281Z" fill="#FFA488"/>
<path d="M222.313 418.796C212.482 418.689 189.589 418.392 165.726 417.907C127.131 417.153 96.3997 407.565 87.5386 399.027C83.2562 394.906 80.7245 388.335 81.6402 382.194C84.8992 384.726 91.2016 389.143 103.241 395.149C122.983 405.06 159.478 410.366 188.377 413.167C207.643 415.017 218.138 415.537 219.862 414.729L222.313 418.796Z" fill="#CC6A4C"/>
<path d="M202.032 190.24C199.447 188.983 196.098 187.96 191.986 187.17C191.878 186.685 191.807 186.218 191.771 185.769C192.282 183.749 193.602 181.083 197.05 179.844C197.642 179.628 198.217 179.476 198.773 179.386C198.127 180.032 197.454 181.298 198.046 183.372C199.07 186.873 205.938 192.152 202.032 190.24Z" fill="#603030"/>
<path d="M198.423 197.512C193.629 195.699 188.934 195.699 184.337 197.512C177.469 200.232 176.499 207.558 174.91 208.285C175.826 201.732 178.753 197.736 183.691 196.3C188.61 194.864 193.521 195.268 198.423 197.512Z" fill="#603030"/>
<path d="M203.864 192.96L201.143 199.101C203.621 197.97 204.528 195.923 203.864 192.96Z" fill="#603030"/>
<defs>
<radialGradient id="paint0_radial_120_75" cx="0" cy="0" r="1" gradientUnits="userSpaceOnUse" gradientTransform="translate(195 312.5) rotate(86.3308) scale(245.736 199.735)">
<stop offset="0.276246" stop-color="#5CDB94"/>
<stop offset="1" stop-color="#C4C4C4" stop-opacity="0"/>
</radialGradient>
</defs>
</svg>
