<svg width="390" height="352" viewBox="0 0 390 352" fill="none" xmlns="http://www.w3.org/2000/svg">
<path d="M54.68 297.915C46.3307 261.868 60.0397 252.074 62.3291 234.12C64.6453 216.167 36.1499 206.068 49.3472 176.052C62.5715 146.013 97.7464 153.891 108.735 138.229C119.697 122.566 108.87 113.823 136.18 100.265C153.956 91.475 159.208 82.6619 160.717 77.5658C162.144 72.7034 164.918 68.1917 169.066 64.7553C187.892 49.0227 206.692 64.3111 215.768 80.558C226.084 99.049 243.644 92.2698 265.191 107.254C286.738 122.239 277.715 148.327 297.161 155.27C316.607 162.213 319.893 185.286 312.54 199.406C305.16 213.525 316.822 221.263 331.501 238.772C341.305 250.445 340.847 270.323 330.127 298.406" stroke="#E5C2A5" stroke-width="0.808"/>
<path d="M48.0275 298.406C39.0318 261.985 45.3072 247.585 47.7851 229.421C50.2899 211.281 24.9456 199.406 41.2672 169.857C55.892 143.348 88.643 148.795 100.467 132.969C112.317 117.143 100.628 108.306 130.12 94.6074C149.27 85.7009 154.953 76.7943 156.569 71.6748C158.131 66.7423 161.121 62.2072 165.565 58.7241C185.872 42.8278 209.574 52.8799 219.35 69.2904C230.501 87.9684 246.068 86.5191 269.285 101.667C292.528 116.815 282.778 143.184 303.786 150.174C324.767 157.187 328.296 180.517 320.377 194.8C312.432 209.06 324.983 216.868 340.847 234.564C351.405 246.362 350.417 267.798 337.884 298.874" stroke="#E5C2A5" stroke-width="0.808"/>
<path d="M217.25 89.9555C227.35 108.447 244.506 101.667 265.541 116.652C286.576 131.636 277.742 157.725 296.757 164.668C315.745 171.587 318.95 194.684 311.759 208.803C304.567 222.923 315.96 230.66 330.289 248.17C339.859 259.842 339.859 276.424 330.289 297.915H61.2517C53.1179 261.868 70.8669 260.816 73.1293 242.863C75.3917 224.91 45.6573 211.351 58.5584 181.312C71.4325 151.273 101.975 163.288 112.694 147.626C123.414 131.964 112.829 123.221 139.52 109.662C156.865 100.849 162.009 92.0594 163.491 86.9632C164.891 82.1009 167.611 77.5891 171.625 74.1527C190.02 58.4202 208.389 73.7086 217.25 89.9555Z" fill="#F7E4D2"/>
<path d="M216.334 97.7166C225.976 115.389 242.378 108.914 262.498 123.244C282.644 137.574 274.187 162.54 292.367 169.179C310.547 175.795 313.617 197.886 306.722 211.398C299.854 224.886 310.735 232.297 324.444 249.035C333.602 260.209 333.602 276.074 324.444 296.63H67.1232C59.3395 262.149 76.3075 261.144 78.4622 243.962C80.6438 226.78 52.2022 213.806 64.5376 185.076C76.8731 156.346 106.069 167.847 116.33 152.862C126.592 137.901 116.465 129.532 141.998 116.558C158.589 108.143 163.491 99.7036 164.891 94.8412C166.238 90.1892 168.824 85.8879 172.702 82.5918C190.289 67.5371 207.85 82.171 216.334 97.7166V97.7166Z" stroke="white" stroke-width="0.808"/>
<path d="M272.894 171.798C272.274 172.522 268.773 171.657 266.699 170.231C266.699 172.569 265.083 175.702 264.006 175.631C262.821 175.561 260.693 173.948 261.043 172.382C261.366 170.816 263.252 169.811 263.063 169.296C262.902 168.782 260.37 169.226 258.673 168.712C256.976 168.198 254.175 165.252 257.488 164.644C259.679 164.224 261.681 164.644 263.494 165.907C263.656 165.985 263.862 166.101 264.114 166.257C262.955 164.411 260.02 163.172 259.966 163.172C259.831 163.101 259.777 162.938 259.831 162.821C259.912 162.681 260.074 162.634 260.235 162.704C260.343 162.751 262.417 163.616 263.844 165.018C263.252 163.172 263.629 161.091 263.656 160.974C263.683 160.834 263.844 160.74 264.006 160.764C264.167 160.811 264.275 160.927 264.248 161.068C264.248 161.091 263.763 163.686 264.652 165.556C264.688 165.369 264.715 165.221 264.733 165.112C264.823 163.101 265.766 161.504 267.561 160.32C270.254 158.543 271.009 162.307 270.335 163.756C269.689 165.205 267.642 166.585 267.965 167.052C268.315 167.496 270.389 166.912 271.978 167.707C273.567 168.525 273.594 170.979 272.894 171.798Z" fill="#DBA291"/>
<path d="M93.9757 194.684C93.1139 194.754 91.8211 192.416 91.7133 190.522C90.0704 191.808 86.9461 192.65 86.4075 192.042C85.8149 191.364 85.8149 189.354 87.1077 188.676C88.4005 187.998 90.1243 188.465 90.3936 188.091C90.6629 187.717 88.9662 186.595 88.4006 185.403C87.8619 184.234 88.4275 181.125 90.6629 182.551C92.1533 183.517 92.9433 184.826 93.0331 186.478C93.069 186.603 93.0959 186.767 93.1139 186.969C93.7872 185.356 93.06 183.112 93.06 183.089C93.0061 182.972 93.0869 182.855 93.2216 182.832C93.3563 182.808 93.4909 182.855 93.5179 182.972C93.5448 183.065 94.0565 184.632 93.8411 186.174C94.8376 184.842 96.5075 183.93 96.6152 183.883C96.7229 183.813 96.8576 183.837 96.9384 183.954C97.0192 184.047 96.9653 184.187 96.8576 184.234C96.8307 184.257 94.7299 185.403 93.9219 186.899C94.0655 186.806 94.1822 186.735 94.272 186.689C95.7444 185.645 97.3873 185.278 99.2008 185.59C101.921 186.081 99.6587 188.512 98.2851 188.956C96.8845 189.4 94.7837 189.05 94.6491 189.471C94.5413 189.915 96.0765 190.709 96.3728 191.995C96.6691 193.281 94.9453 194.613 93.9757 194.684Z" fill="#DBA291"/>
<path d="M184.822 104.566C183.96 104.636 182.667 102.275 182.559 100.405C180.89 101.691 177.792 102.509 177.254 101.901C176.661 101.246 176.661 99.2127 177.954 98.5348C179.247 97.8802 180.97 98.3244 181.24 97.9503C181.509 97.5997 179.812 96.4776 179.247 95.2854C178.708 94.0932 179.247 90.984 181.509 92.4334C182.999 93.3841 183.789 94.6854 183.879 96.3373C183.915 96.4776 183.942 96.649 183.96 96.8516C184.633 95.2386 183.906 92.9945 183.906 92.9711C183.852 92.8542 183.933 92.7373 184.068 92.6906C184.202 92.6672 184.337 92.7373 184.364 92.8542C184.391 92.9243 184.903 94.5139 184.687 96.0334C185.684 94.701 187.354 93.7893 187.461 93.7425C187.569 93.6958 187.704 93.7191 187.785 93.8126C187.865 93.9062 187.811 94.0464 187.704 94.1165C187.677 94.1165 185.576 95.262 184.768 96.7581C184.912 96.6802 185.028 96.6179 185.118 96.5711C186.59 95.5114 188.233 95.1451 190.047 95.4724C192.767 95.9399 190.505 98.3945 189.131 98.8387C187.731 99.2594 185.63 98.9322 185.495 99.3529C185.361 99.7737 186.923 100.569 187.219 101.854C187.515 103.14 185.791 104.496 184.822 104.566Z" fill="#DBA291"/>
<path d="M145.984 136.686C145.688 137.013 145.149 137.083 144.772 136.826C144.368 136.592 144.287 136.125 144.583 135.774C144.853 135.447 145.418 135.377 145.795 135.634C146.173 135.868 146.253 136.335 145.984 136.686Z" fill="white"/>
<path d="M148.219 133.46C147.923 133.81 147.385 133.88 147.007 133.623C146.603 133.366 146.523 132.899 146.819 132.571C147.115 132.221 147.654 132.151 148.031 132.408C148.435 132.665 148.516 133.132 148.219 133.46Z" fill="white"/>
<path d="M150.832 138.532C150.536 138.86 149.997 138.93 149.62 138.696C149.216 138.439 149.135 137.971 149.431 137.644C149.701 137.293 150.266 137.223 150.643 137.481C151.021 137.738 151.101 138.205 150.832 138.532Z" fill="white"/>
<path d="M262.902 145.522C262.632 145.849 262.094 145.92 261.69 145.686C261.313 145.429 261.232 144.961 261.528 144.61C261.797 144.283 262.336 144.213 262.74 144.47C263.117 144.704 263.198 145.195 262.902 145.522Z" fill="white"/>
<path d="M265.164 142.296C264.868 142.647 264.329 142.717 263.925 142.46C263.548 142.226 263.467 141.735 263.763 141.408C264.033 141.081 264.598 141.01 264.975 141.244C265.353 141.501 265.433 141.969 265.164 142.296Z" fill="white"/>
<path d="M267.75 147.369C267.48 147.72 266.942 147.79 266.538 147.533C266.161 147.275 266.08 146.808 266.376 146.481C266.645 146.153 267.184 146.083 267.588 146.317C267.965 146.574 268.046 147.042 267.75 147.369Z" fill="white"/>
<path d="M221.667 114.922C221.37 115.249 220.832 115.319 220.455 115.062C220.078 114.828 219.997 114.361 220.266 114.01C220.562 113.683 221.101 113.613 221.478 113.87C221.882 114.104 221.963 114.571 221.667 114.922Z" fill="white"/>
<path d="M223.902 111.696C223.633 112.047 223.067 112.117 222.69 111.86C222.313 111.602 222.232 111.135 222.502 110.808C222.798 110.48 223.337 110.41 223.741 110.644C224.118 110.901 224.198 111.369 223.902 111.696Z" fill="white"/>
<path d="M226.515 116.769C226.218 117.119 225.68 117.189 225.303 116.932C224.926 116.675 224.845 116.208 225.114 115.88C225.41 115.53 225.949 115.46 226.326 115.717C226.73 115.974 226.811 116.441 226.515 116.769Z" fill="white"/>
<path d="M232.898 158.847C232.521 158.566 232.494 158.099 232.79 157.772C233.086 157.444 233.652 157.398 234.002 157.678C234.379 157.935 234.433 158.426 234.137 158.73C233.814 159.057 233.275 159.104 232.898 158.847Z" fill="white"/>
<path d="M236.48 160.951C236.103 160.694 236.049 160.203 236.372 159.899C236.669 159.572 237.207 159.525 237.584 159.782C237.961 160.063 238.015 160.53 237.692 160.857C237.396 161.161 236.857 161.208 236.48 160.951Z" fill="white"/>
<path d="M230.528 162.938C230.151 162.681 230.097 162.213 230.393 161.886C230.716 161.559 231.255 161.512 231.632 161.792C231.982 162.05 232.036 162.517 231.74 162.844C231.443 163.172 230.878 163.218 230.528 162.938Z" fill="white"/>
<path d="M107.819 174.673C107.819 175.211 107.308 175.631 106.715 175.631C106.096 175.631 105.611 175.211 105.611 174.673C105.611 174.159 106.096 173.715 106.715 173.715C107.308 173.715 107.819 174.159 107.819 174.673Z" fill="white"/>
<path d="M255.845 125.231C255.845 125.886 255.226 126.423 254.471 126.423C253.717 126.423 253.098 125.886 253.098 125.231C253.098 124.577 253.717 124.039 254.471 124.039C255.226 124.039 255.845 124.577 255.845 125.231Z" fill="white"/>
<path d="M161.04 162.353C161.04 163.031 160.42 163.546 159.666 163.546C158.912 163.546 158.293 163.031 158.293 162.353C158.293 161.699 158.912 161.185 159.666 161.185C160.42 161.185 161.04 161.699 161.04 162.353Z" fill="white"/>
<path d="M187.246 84.5554C187.246 84.9528 186.896 85.2801 186.411 85.2801C185.953 85.2801 185.576 84.9528 185.576 84.5554C185.576 84.158 185.953 83.8307 186.411 83.8307C186.896 83.8307 187.246 84.158 187.246 84.5554Z" fill="white"/>
<path d="M251.293 191.317C251.293 191.902 250.728 192.393 250.027 192.393C249.354 192.393 248.789 191.902 248.789 191.317C248.789 190.709 249.354 190.219 250.027 190.219C250.728 190.219 251.293 190.709 251.293 191.317Z" fill="white"/>
<path d="M169.685 109.124C169.685 109.709 169.12 110.2 168.446 110.2C167.746 110.2 167.181 109.709 167.181 109.124C167.181 108.517 167.746 108.049 168.446 108.049C169.12 108.049 169.685 108.517 169.685 109.124Z" fill="white"/>
<path d="M32.5408 290.084H364.683C367.134 290.084 367.807 293.006 365.544 293.801C343.324 301.726 284.394 319.679 201.844 321.736C125.057 323.63 60.9016 306.284 31.1672 296.489C27.208 295.18 28.2853 290.084 32.5408 290.084Z" fill="#F7E4D2"/>
<path d="M137.392 256.094L134.51 256.702C126.556 256.344 121.169 255.448 118.35 254.014C114.149 251.863 112.21 245.598 108.681 243.494C105.126 241.39 97.8541 244.944 91.6595 243.494C85.4917 242.022 85.8688 235.803 80.8861 232.367C75.8765 228.931 68.012 231.736 61.3864 228.884C54.7608 226.055 58.316 219.042 45.8728 216.447C37.0656 214.601 33.4835 210.837 37.2003 207.868C37.2003 207.868 44.7955 199.873 54.3299 200.808C63.8912 201.743 68.5776 203.169 75.1763 199.289C81.8019 195.385 86.7307 197.956 92.2789 201.042C97.8272 204.128 103.995 199.078 113.879 201.813C123.791 204.549 125.999 210.346 127.373 213.175C128.747 216.027 142.51 218.294 143.237 229.702C143.722 237.292 141.773 246.089 137.392 256.094Z" fill="#B9BC7E"/>
<path d="M135.453 252.518C133.37 237.011 126.188 225.728 113.906 218.668C95.484 208.102 65.2917 207.845 56.1344 207.401C50.0295 207.104 46.9771 206.956 46.9771 206.956C71.6121 205.601 90.0434 207.081 102.271 211.398C127.427 220.281 134.618 234.798 135.453 252.518Z" fill="#FFFBF4"/>
<path d="M121.933 228.042C111.662 220.079 105.755 212.785 104.21 206.162C101.894 196.226 108.681 192.509 104.103 187.483C99.524 182.457 101.571 173.411 106.5 171.12C111.455 168.829 113.475 163.826 113.96 156.907C114.418 150.01 120.505 147.439 122.39 149.356C127.562 154.639 124.976 160.039 132.921 163.382C140.84 166.748 143.641 173.715 141.648 179.395C139.655 185.099 148.408 186.922 154.199 195.619C159.962 204.315 155.788 211.585 153.337 217.032C150.886 222.502 157.673 229.071 155.195 235.359C153.561 239.551 147.061 245.1 135.695 252.003C130.201 250.227 125.613 242.24 121.933 228.042Z" fill="#CFC293"/>
<path d="M139.089 208.873C142.159 221.154 142.51 233.847 140.139 246.954C139.457 228.907 137.069 212.567 132.975 197.933C128.899 183.315 125.165 170.325 121.771 158.964C122.148 161.816 134.483 190.452 139.089 208.873Z" fill="#FFFBF4"/>
<path d="M124.006 236.925C121.906 227.575 132.49 223.273 132.921 220.725C133.379 218.201 133.81 213.104 141.163 209.13C148.543 205.133 154.71 208.149 158.481 204.642C162.225 201.159 165.618 198.19 171.894 200.177C178.169 202.141 181.644 200.154 189.131 197.676C196.646 195.221 204.672 200.341 204.672 200.341C208.416 202.094 206.369 205.764 199.689 208.826C190.236 213.175 194.787 218.201 190.074 221.684C185.388 225.167 178.358 224.302 175.126 227.972C171.894 231.642 173.672 236.622 169.012 238.912C164.353 241.18 157.619 239.614 155.249 241.951C152.879 244.289 152.798 249.689 149.889 252.167C147.95 253.835 143.802 255.526 137.446 257.24L134.968 257.263C129.061 249.938 125.407 243.159 124.006 236.925Z" fill="#B9BC7E"/>
<path d="M152.825 214.811C161.713 209.138 176.293 204.65 196.565 201.346C196.565 201.346 194.123 202.008 189.239 203.333C181.94 205.32 157.538 210.93 145.122 222.782C136.863 230.684 133.72 241.094 135.695 254.014C132.194 239.52 134.564 226.476 152.825 214.811Z" fill="#FFFBF4"/>
<path d="M134.968 257.263C133.227 260.411 130.659 262.414 127.265 263.271C122.175 264.533 120.182 262.476 114.122 260.372C108.089 258.245 106.769 262.71 98.0965 263.762C92.3149 264.463 87.8978 264.354 84.8453 263.435C86.1561 259.554 90.3667 256.203 97.4771 253.383C104.587 250.562 114.903 250.764 128.423 253.99L134.968 257.263Z" fill="#9A9B82"/>
<path d="M138.416 254.622C142.061 250.975 146.514 249.276 151.775 249.525C159.693 249.876 161.094 252.284 164.972 252.424C168.85 252.588 170.978 251.512 176.284 253.079C179.767 254.123 182.542 255.354 184.606 256.772C181.033 261.276 176.446 262.944 170.843 261.775C162.467 260.022 156.138 258.9 153.391 261.331C151.577 262.952 144.925 262.281 133.433 259.32L138.416 254.622Z" fill="#9A9B82"/>
<path d="M250.297 208.265C250.97 198.751 253.286 195.011 255.872 196.507C258.458 198.003 260.828 206.956 264.06 206.933C267.265 206.91 264.922 201.182 263.844 194.146C262.767 187.133 269.635 178.577 273.082 179.886C276.53 181.195 275.668 195.198 280.193 194.052C284.718 192.907 281.917 185.847 282.132 181.382C282.347 176.894 290.751 169.6 293.363 170.722C295.976 171.844 292.232 184.164 295.249 183.79C298.265 183.416 296.541 175.959 298.05 172.218C299.558 168.478 306.884 164.551 309.685 166.421C312.486 168.291 306.884 176.707 310.116 176.894C313.348 177.081 313.563 171.096 316.553 167.543C319.569 163.99 328.188 162.868 332.066 164.925C335.945 166.982 321.078 172.405 325.387 174.65C329.696 176.894 337.022 169.6 344.967 169.717C352.94 169.834 358.111 173.153 359.592 176.707C361.101 180.26 342.597 178.951 343.028 181.382C343.459 183.79 357.034 184.351 359.188 186.034C361.343 187.717 354.879 192.767 348.846 191.645C342.813 190.522 330.989 189.774 332.928 192.58C334.867 195.385 353.155 196.507 354.448 198.003C355.741 199.499 350.785 205.834 340.901 204.011C330.989 202.187 319.569 201.182 321.724 204.011C323.879 206.863 346.045 207.517 346.691 209.575C347.338 211.632 343.675 217.803 334.571 216.681C325.468 215.559 304.298 211.258 307.746 215.372C311.193 219.486 338.53 220.234 338.315 223.086C338.099 225.962 331.851 230.123 322.801 230.123C313.779 230.123 303.221 224.349 295.679 225.097C288.165 225.845 292.232 228.814 307.53 231.245C322.801 233.676 326.68 235.172 325.387 237.884C324.094 240.596 314.21 246.393 290.751 242.84C275.093 240.471 263.467 237.167 255.872 232.928C254.795 230.59 249.623 217.803 250.297 208.265Z" fill="#D1C795"/>
<path d="M252.182 248.287C260.244 230.333 268.962 216.385 278.334 206.442C292.394 191.528 319.542 182.528 332.632 181.896C312.001 185.216 295.06 193.998 281.809 208.242C268.54 222.471 259.409 239.318 254.418 258.783L248.977 257.848L252.182 248.287Z" fill="#FFFBF4"/>
<path d="M33.1333 287.817C34.2825 284.092 37.6851 281.365 43.3411 279.635C51.7981 277.063 53.064 284.006 58.3968 283.726C61.952 283.539 64.5555 286.445 66.2075 292.445H31.248L33.1333 287.817Z" fill="#9A9B82"/>
<path d="M51.4749 292.492C50.7208 289.289 49.3202 285.386 47.5965 281.201C33.5373 274.811 20.2592 265.679 7.76211 253.803C19.3075 255.222 28.5726 258.572 35.5573 263.855C38.4661 266.03 40.8632 268.414 42.8024 270.728C41.0786 267.175 39.2741 263.668 37.5234 260.349C26.2294 255.424 15.483 248.045 5.28424 238.211C14.262 239.364 21.4622 242.014 26.8848 246.159C29.4973 248.17 31.5981 250.367 33.2141 252.448C31.0864 248.614 29.3088 245.528 28.2314 243.728C20.4208 235.686 14.0196 226.094 9.02797 214.951C16.9464 218.801 22.5934 223.499 25.969 229.047C29.3088 234.518 30.2245 240.105 30.44 243.284C31.7866 245.551 33.9682 249.338 36.5 253.944C34.6146 244.266 34.3363 234.323 35.665 224.115C40.6208 230.723 43.1076 237.159 43.1256 243.424C43.1525 250.227 40.513 255.954 39.0586 258.619C42.4792 265.071 46.2229 272.435 49.1048 279.237C46.3217 266.583 45.774 253.375 47.4618 239.614C53.872 248.045 57.1219 256.281 57.2117 264.323C57.3194 274.258 52.9832 282.487 51.448 285.058C52.3637 287.63 53.1178 290.014 53.6296 292.118L51.4749 292.492Z" fill="#B9BC7E"/>
<path d="M325.064 267.409C323.798 259.391 324.875 253.079 328.996 255.276C339.258 260.793 330.397 274.328 335.46 272.271C340.523 270.214 339.527 254.084 346.368 247.492C353.209 240.899 367.645 236.925 365.868 242.442C364.09 247.936 358.515 256.515 351.431 260.022C344.321 263.552 342.301 274.328 345.587 274.515C348.9 274.679 350.92 265.305 358.515 261.354C366.137 257.38 371.201 255.861 370.689 258.829C370.177 261.798 368.911 268.18 357.249 273.44C349.474 276.962 343.989 281.295 340.793 286.437H330.127C332.686 279.167 326.33 275.427 325.064 267.409Z" fill="#9A9B82"/>
<path d="M320.727 281.411C327.191 279.798 334.598 281.902 338.665 284.778C342.732 287.676 343.675 282.861 352.913 284.778C359.09 286.071 363.228 288.432 365.329 291.861C361.63 292.609 354.969 292.983 345.345 292.983C335.72 292.983 324.678 292.391 312.217 291.206C313.563 285.752 316.4 282.487 320.727 281.411Z" fill="#D7CA8C"/>
<path d="M304.971 298.032C304.971 302.427 254.929 305.98 193.198 305.98C131.494 305.98 81.4517 302.427 81.4517 298.032C81.4517 293.638 131.494 290.084 193.198 290.084C254.929 290.084 304.971 293.638 304.971 298.032Z" fill="#E2C9B5"/>
<path d="M297.188 254.177L288.704 261.939C288.704 261.939 288.695 261.946 288.677 261.962L287.088 263.411C287.088 263.427 287.088 263.435 287.088 263.435L286.98 263.528C286.98 263.505 286.953 263.505 286.953 263.505C268.612 253.663 250.943 239.006 246.472 235.219C244.21 233.442 242.055 231.292 240.385 228.744C236.48 222.712 231.174 211.491 227.511 203.286L227.026 205.063L220.374 229.468C223.229 233.232 227.107 239.029 230.42 246.183C232.117 249.806 233.652 253.78 234.837 258.011L196.726 277.484V277.975L196.215 277.741L195.703 277.998V277.508L156.73 259.32C157.996 253.967 159.828 248.988 161.821 244.616C161.848 244.546 161.875 244.476 161.902 244.406C164.622 238.492 167.638 233.629 169.928 230.31L162.09 205.764L161.04 202.445L160.474 200.668C156.757 208.71 149.889 223.016 145.095 230.053C143.371 232.577 141.19 234.681 138.847 236.434C134.322 240.128 116.277 254.505 97.7464 264.066L96.0496 262.453L87.7542 254.552L130.013 220.047L144.287 184.631C149.764 174.408 154.558 169.226 158.67 169.086V169.109C159.801 168.268 161.094 167.566 162.548 167.076C163.033 166.912 163.518 166.748 164.002 166.585V166.561C166.777 165.579 169.901 164.294 173.025 162.704C176.715 160.834 180.405 158.473 183.556 155.574C184.014 152.839 184.202 148.959 184.256 146.457C184.274 145.444 184.283 144.603 184.283 143.932L193.279 144.727L202.221 143.629C202.275 144.969 202.373 146.488 202.517 148.187C202.706 150.478 203.002 153.19 203.46 155.247C204.914 156.486 206.476 157.631 208.092 158.636C213.748 162.237 220.024 164.551 224.953 166.047C226.218 166.421 227.377 166.959 228.454 167.613C229.72 167.894 235.295 169.834 242.19 183.346L255.684 218.995L297.188 254.177Z" fill="#5E4453"/>
<path d="M208.092 158.636C206.665 160.062 202.221 163.078 189.697 165.579C178.385 167.839 169.82 168.174 164.002 166.585V166.561C166.777 165.579 169.901 164.294 173.025 162.704C176.715 160.834 180.405 158.473 183.556 155.574C184.014 152.839 184.202 148.958 184.256 146.457L202.517 148.187C202.706 150.478 203.002 153.19 203.46 155.247C204.914 156.486 206.476 157.631 208.092 158.636Z" fill="#3F2935"/>
<path d="M217.654 211.281C211.701 213.572 201.305 209.13 192.471 211.608C183.637 214.086 179.247 221.169 177.55 230.263C176.401 236.31 177.29 243.728 180.216 252.518C174.955 253.78 168.85 251.076 161.902 244.406C164.622 238.492 167.638 233.629 169.928 230.31L161.04 202.445L160.474 200.668C159.056 194.325 160.124 188.73 163.679 183.883C162.566 189.058 163.051 194.013 165.134 198.751C168.231 205.834 175.557 205.834 183.206 205.671C190.855 205.507 190.747 203.239 199.393 204.852C213.802 207.541 219.431 206.325 222.798 202.211C225.006 199.523 223.606 208.99 217.654 211.281Z" fill="#3F2935"/>
<path d="M179.354 143.255C177.056 144.361 174.641 143.621 172.109 141.034C168.312 137.153 169.201 132.151 171.894 132.01C173.689 131.917 175.27 133.078 176.634 135.493L179.354 143.255Z" fill="#EA8D78"/>
<path d="M210.435 134.932C211.692 132.47 213.219 131.262 215.014 131.309C217.707 131.356 218.839 136.312 215.203 140.309C212.797 142.99 210.418 143.816 208.065 142.787L210.435 134.932Z" fill="#EA8D78"/>
<path d="M211.647 127.452C211.971 141.922 202.005 154.873 194.087 155.013C184.499 155.177 175.207 141.571 174.91 128.06C174.695 118.078 181.59 109.872 193.09 109.662C204.591 109.475 211.405 117.47 211.647 127.452Z" fill="#FFA488"/>
<path d="M185.872 126.306C187.937 126.275 189.203 126.852 189.67 128.036C188.772 127.818 187.093 127.787 184.633 127.943C182.694 128.067 180.827 128.348 179.031 128.784C181.545 127.164 183.825 126.338 185.872 126.306Z" fill="#2F2A00"/>
<path d="M183.987 133.74C181.347 133.647 179.776 133.358 179.274 132.875C180.926 131.036 182.676 130.125 184.526 130.14C186.375 130.171 188.027 131.028 189.481 132.712C188.53 133.506 186.698 133.849 183.987 133.74Z" fill="#EA8D78"/>
<path d="M189.481 132.712C188.44 133.756 186.77 134.293 184.472 134.325C182.075 134.348 180.728 133.764 179.974 133.319C179.624 133.366 178.87 133.46 177.873 133.203C178.519 133.156 178.995 133.047 179.301 132.875C179.283 132.875 179.274 132.875 179.274 132.875C179.292 132.875 179.301 132.875 179.301 132.875L179.327 132.899C179.705 132.992 181.832 133.553 184.445 133.53C186.366 133.514 188.045 133.242 189.481 132.712Z" fill="#2F2A00"/>
<path d="M207.365 128.317C205.552 127.927 203.666 127.709 201.709 127.662C199.267 127.584 197.597 127.67 196.699 127.919C197.13 126.719 198.369 126.096 200.416 126.049C202.481 126.018 204.797 126.774 207.365 128.317Z" fill="#2F2A00"/>
<path d="M197.103 132.571C198.468 130.841 200.075 129.938 201.925 129.86C203.774 129.782 205.561 130.631 207.284 132.408C206.799 132.906 205.246 133.249 202.625 133.436C199.931 133.623 198.091 133.335 197.103 132.571Z" fill="#EA8D78"/>
<path d="M206.611 132.875C205.884 133.343 204.564 133.974 202.167 134.021C199.869 134.083 198.181 133.6 197.103 132.571C198.558 133.07 200.246 133.296 202.167 133.249C204.779 133.179 206.88 132.548 207.23 132.431L207.284 132.408C207.607 132.564 208.083 132.657 208.712 132.688C207.742 132.992 206.961 132.922 206.611 132.875Z" fill="#2F2A00"/>
<path d="M193.764 141.174C194.662 141.19 195.487 141.229 196.242 141.291C195.272 141.945 194.392 142.257 193.602 142.226C192.794 142.179 191.896 141.899 190.909 141.384C191.914 141.213 192.866 141.143 193.764 141.174Z" fill="#EA8D78"/>
<path d="M194.249 145.873C194.177 145.873 194.114 145.873 194.06 145.873C193.988 145.873 193.925 145.881 193.871 145.896C193.871 145.881 193.871 145.873 193.871 145.873C191.878 145.842 190.235 145.577 188.943 145.078C191.061 144.797 192.399 144.696 192.956 144.774C193.467 144.844 193.845 145.265 194.033 145.546C194.249 145.242 194.599 144.821 195.11 144.727C195.649 144.649 196.987 144.704 199.123 144.891C197.849 145.436 196.215 145.764 194.222 145.873C194.24 145.873 194.249 145.873 194.249 145.873Z" fill="#743F3D"/>
<path d="M189.858 146.177C190.289 146.691 191.277 147.112 192.821 147.439C195.137 147.93 196.834 147.088 198.235 146.317C197.391 147.72 196.098 148.514 194.356 148.701C191.717 148.982 189.966 146.481 189.858 146.177Z" fill="#EA8D78"/>
<path d="M200.47 118.241C197.813 117.026 194.688 116.496 191.097 116.652C185.711 116.886 181.509 120.532 179.947 123.127C178.905 124.857 177.855 125.964 176.796 126.447C177.137 130.639 176.841 133.623 175.907 135.4C174.668 133.592 173.33 132.462 171.894 132.01C170.673 128.192 170.439 124.257 171.194 120.205C172.325 114.104 179.758 107.558 189.778 106.647C196.439 106.054 201.458 107.169 204.833 109.989C209.268 112.156 212.15 115.078 213.479 118.756C214.79 122.449 214.879 126.688 213.748 131.473C212.617 131.971 211.683 133.086 210.947 134.816C208.81 132.026 208.011 129.065 208.55 125.932C207.688 120.945 204.995 118.382 200.47 118.241Z" fill="#743F3D"/>
<path d="M206.422 113.099C205.094 113.473 200.111 111.634 191.474 107.582C191.421 106.911 191.519 106.156 191.771 105.314C192.282 103.561 193.602 101.246 197.05 100.171C197.642 99.9841 198.217 99.8517 198.773 99.7737C203.971 99.0023 208.281 102.088 209.52 105.221C210.893 108.727 208.442 112.561 206.422 113.099Z" fill="#743F3D"/>
<path d="M189.67 128.036C190.496 129.392 191.151 131.106 191.636 133.179C192.103 135.236 192.139 137.005 191.744 138.486C191.277 132.641 189.329 129.104 185.899 127.873C187.785 127.841 189.041 127.896 189.67 128.036Z" fill="#EA8D78"/>
<path d="M182.371 121.561C180.845 122.605 179.74 123.073 179.058 122.964L179.543 123.758C183.341 123.501 183.206 120.509 188.646 118.452C192.273 117.08 196.215 117.01 200.47 118.241C189.535 114.314 184.687 119.995 182.371 121.561Z" fill="#743F3D"/>
<path d="M172.648 297.495C168.357 297.214 164.828 297.69 162.063 298.921C157.889 300.744 150.186 307.687 149.081 308.084C147.95 308.482 146.981 308.669 145.122 308.786C143.291 308.879 143.991 309.043 143.183 309.37C142.626 309.573 141.702 309.643 140.409 309.581C140.068 310.313 139.646 310.742 139.143 310.866C138.389 311.053 137.5 311.568 136.692 310.001C135.884 308.458 137.419 306.565 137.365 305.887C137.311 305.232 137.365 302.1 139.762 299.949C142.133 297.799 148.839 294.152 150.563 290.692C152.313 287.256 153.983 284.1 157.054 283.983C159.101 283.905 162.557 284.17 167.423 284.778C168.644 284.575 170.996 284.279 174.479 283.889L172.648 297.495Z" fill="#FFA488"/>
<path d="M292.528 288.588C280.112 294.619 259.562 297.004 235.753 298.243C232.844 298.399 229.899 298.539 226.919 298.664L227.323 307.617C226.12 307.617 224.45 307.601 222.313 307.57C212.482 307.477 189.589 307.219 165.726 306.799C127.131 306.144 96.3998 297.822 87.5387 290.412C83.2563 286.835 80.7246 281.131 81.6403 275.801C82.3406 271.57 85.2224 267.596 91.1208 265.071C92.5214 264.487 94.9723 263.715 98.2851 262.897C108.654 260.326 127.427 257.216 148.139 257.029C148.462 257.006 148.785 257.006 149.081 256.983C150.895 254.614 155.168 250.422 161.902 244.406C166.642 247.85 172.244 250.601 178.708 252.658C183.825 254.271 189.697 255.323 195.622 254.715C207.042 253.515 218.498 250.149 229.989 244.616C232.305 246.627 234.577 249.985 236.803 254.692C253.96 254.832 282.374 259.344 288.488 262.009C288.524 262.04 288.56 262.063 288.596 262.079C292.744 263.037 296.191 265.141 298.561 267.806C304.056 273.978 303.706 283.188 292.528 288.588Z" fill="#E9835B"/>
<path d="M96.0496 262.453C88.7596 267.284 84.1899 269.949 82.3405 270.448C79.5933 271.172 77.1693 271.219 74.2605 270.962C71.3248 270.705 70.3552 271.5 70.1666 270.331C70.0589 269.567 71.7826 268.998 75.3378 268.624C74.8261 268.624 71.7557 268.204 69.4933 268.25C67.204 268.274 64.8338 267.713 65.992 266.894C66.7641 266.333 69.1522 266.076 73.1562 266.123C71.8096 266.263 69.7357 265.702 67.5002 265.539C65.2648 265.352 62.4368 265.305 63.8642 264.183C64.7979 263.419 66.8359 263.193 69.9781 263.505C68.3441 262.788 67.5182 262.016 67.5002 261.191C67.4733 259.952 68.8738 258.128 69.6549 256.211C70.4629 254.318 71.1093 254.224 71.5402 255.416C71.9442 256.609 70.3282 259.811 70.5976 260.279C70.8669 260.746 72.3482 261.237 76.1458 260.653C78.6776 260.279 80.3385 259.18 81.1285 257.357C80.949 256.967 80.4731 256.772 79.701 256.772C78.5429 256.796 76.6576 257.31 74.476 257.029C72.2944 256.772 71.648 256.141 71.5941 255.884C71.5402 255.627 72.5098 255.58 74.5029 255.276C76.469 254.996 79.9704 254.037 81.6941 253.99C82.8433 253.975 84.8543 254.162 87.7272 254.552L96.0496 262.453Z" fill="#FFA488"/>
<path d="M272.221 265.889C257.012 267.759 228.113 273.424 185.522 282.884C163.096 273.97 144.368 268.468 129.339 266.38C107.9 263.411 95.4032 264.884 98.2851 262.897C108.654 260.326 127.427 257.216 148.139 257.029C148.462 257.006 148.785 257.006 149.081 256.983C150.895 254.614 155.168 250.422 161.902 244.406C166.642 247.85 172.244 250.601 178.708 252.658C179.489 255.931 192.956 271.991 202.652 269.349C212.348 266.707 225.06 263.084 231.147 264.907C237.234 266.707 249.597 265.726 258.107 264.066C263.781 262.959 268.486 263.567 272.221 265.889Z" fill="#CC6A4C"/>
<path d="M288.704 261.939C288.704 261.939 288.695 261.946 288.677 261.962C288.623 262.102 288.192 262.827 287.088 263.411C287.088 263.427 287.088 263.435 287.088 263.435C287.034 263.45 286.989 263.474 286.953 263.505C268.611 253.663 250.943 239.006 246.472 235.219C244.21 233.442 242.055 231.292 240.385 228.743C236.48 222.712 231.174 211.491 227.511 203.286L229.612 187.951C234.909 207.712 240.34 220.772 245.907 227.13C251.491 233.505 265.757 245.107 288.704 261.939Z" fill="#3F2935"/>
<path d="M162.09 205.764L161.04 202.445L160.474 200.668C156.757 208.71 149.889 223.016 145.095 230.053C143.371 232.577 141.19 234.681 138.847 236.435C134.322 240.128 116.277 254.505 97.7464 264.066L96.0496 262.453C120.397 244.406 136.144 231.829 143.291 224.723C150.437 217.632 156.21 206.349 160.609 190.873L162.09 205.764Z" fill="#3F2935"/>
<path d="M292.528 288.588C280.112 294.619 259.562 297.004 235.753 298.243C229.109 297.308 223.417 295.718 218.677 293.474V292.445L185.549 282.884C185.747 282.931 187.659 282.51 191.286 281.622C206.369 284.544 243.537 293.334 262.902 289.476C287.788 284.521 288.731 275.427 293.309 270.915C295.087 269.139 296.945 268.25 298.561 267.806C304.056 273.978 303.706 283.188 292.528 288.588Z" fill="#CC6A4C"/>
<path d="M218.677 293.474C222.16 293.91 224.504 294.245 225.707 294.479C230.591 293.949 234.056 293.739 236.103 293.848C239.173 294.012 240.789 297.214 242.432 300.674C244.075 304.157 250.728 307.921 253.044 310.118C255.36 312.292 255.36 315.448 255.306 316.103C255.226 316.757 256.734 318.674 255.872 320.217C255.037 321.76 254.175 321.222 253.421 321.035C252.918 320.91 252.496 320.482 252.155 319.749C250.862 319.781 249.947 319.687 249.408 319.469C248.6 319.142 249.3 319.001 247.469 318.861C245.637 318.721 244.641 318.51 243.537 318.09C242.432 317.669 234.891 310.609 230.77 308.692C228.023 307.414 224.504 306.884 220.212 307.103L218.677 293.474Z" fill="#FFA488"/>
<path d="M297.188 254.177C300.079 253.835 302.099 253.687 303.248 253.733C304.971 253.78 308.446 254.809 310.412 255.136C312.378 255.463 313.375 255.533 313.321 255.79C313.24 256.048 312.567 256.655 310.385 256.889C308.203 257.123 306.345 256.585 305.187 256.539C304.415 256.523 303.93 256.71 303.733 257.1C304.487 258.923 306.121 260.053 308.634 260.489C312.432 261.12 313.94 260.653 314.21 260.209C314.479 259.741 312.917 256.492 313.375 255.323C313.833 254.131 314.479 254.224 315.233 256.141C315.987 258.058 317.334 259.905 317.28 261.167C317.244 261.993 316.4 262.749 314.748 263.435C317.89 263.17 319.928 263.427 320.862 264.206C322.236 265.375 319.435 265.352 317.199 265.492C314.964 265.632 312.863 266.17 311.516 266.006C315.52 266.022 317.899 266.31 318.654 266.871C319.812 267.736 317.415 268.25 315.125 268.18C312.863 268.11 309.766 268.484 309.281 268.461C312.836 268.897 314.542 269.497 314.398 270.261C314.21 271.406 313.24 270.611 310.331 270.822C307.395 271.009 304.971 270.939 302.224 270.167C300.393 269.637 295.886 266.894 288.704 261.939L297.188 254.177Z" fill="#FFA488"/>
<path d="M222.313 307.57C212.482 307.477 189.589 307.219 165.726 306.799C127.131 306.144 96.3998 297.822 87.5387 290.411C83.2563 286.835 80.7246 281.131 81.6403 275.801C84.8992 277.998 91.2016 281.832 103.241 287.045C122.983 295.648 159.478 300.253 188.377 302.684C207.643 304.29 218.138 304.741 219.862 304.04L222.313 307.57Z" fill="#CC6A4C"/>
<path d="M202.032 109.195C199.447 108.104 196.098 107.215 191.986 106.53C191.878 106.109 191.807 105.704 191.771 105.314C192.282 103.561 193.602 101.246 197.05 100.171C197.642 99.9841 198.217 99.8516 198.773 99.7737C198.127 100.335 197.454 101.433 198.046 103.233C199.07 106.272 205.938 110.854 202.032 109.195Z" fill="#603030"/>
<path d="M198.423 115.506C193.629 113.932 188.934 113.932 184.337 115.506C177.469 117.867 176.499 124.226 174.91 124.857C175.826 119.169 178.753 115.701 183.691 114.454C188.61 113.208 193.521 113.558 198.423 115.506Z" fill="#603030"/>
<path d="M203.864 111.556L201.143 116.886C203.621 115.904 204.528 114.127 203.864 111.556Z" fill="#603030"/>
</svg>
